<?xml version="1.0" encoding="iso-8859-1"?>
<!-- Uploaded to: SVG Repo, www.svgrepo.com, Generator: SVG Repo Mixer Tools -->
<svg version="1.1" id="Layer_1" xmlns="http://www.w3.org/2000/svg" xmlns:xlink="http://www.w3.org/1999/xlink" 
	 viewBox="0 0 512.001 512.001" xml:space="preserve">
<path style="fill:#D1A0C1;" d="M431.282,500.156H137.71V273.23c0-45.526,36.905-82.432,82.432-82.432h128.707
	c45.526,0,82.432,36.905,82.432,82.432V500.156z"/>
<path style="fill:#FF738D;" d="M80.72,152.356c0,20.05,16.254,36.304,36.304,36.304s36.304-16.254,36.304-36.304
	s-36.304-65.74-36.304-65.74S80.72,132.306,80.72,152.356z"/>
<path d="M117.023,200.504c-26.549,0-48.148-21.599-48.148-48.148c0-23.017,32.383-64.938,38.874-73.109
	c2.247-2.827,5.662-4.476,9.274-4.476s7.026,1.649,9.273,4.476c6.492,8.17,38.875,50.092,38.875,73.109
	C165.171,178.905,143.572,200.504,117.023,200.504z M117.026,106.304c-12.981,18.154-24.462,38.108-24.462,46.052
	c0,13.487,10.972,24.46,24.46,24.46s24.46-10.973,24.46-24.46C141.483,144.395,130.006,124.447,117.026,106.304z"/>
<rect x="256.203" y="11.844" style="fill:#FFC674;" width="56.598" height="82.705"/>
<rect x="187.009" y="286.642" style="fill:#FF738D;" width="194.968" height="164.433"/>
<g>
	<circle style="fill:#E3A9ED;" cx="219.888" cy="416.337" r="32.05"/>
	<circle style="fill:#E3A9ED;" cx="312.794" cy="317.733" r="25.062"/>
</g>
<rect x="210.91" y="94.552" style="fill:#FF9732;" width="147.165" height="96.246"/>
<path d="M369.919,181.356V94.549c0-6.542-5.303-11.844-11.844-11.844h-33.436v-70.86C324.638,5.303,319.336,0,312.794,0h-7.452
	h-49.145h-90.208c-2.539,0-5.01,0.816-7.051,2.327L114.901,34.95c-5.256,3.894-6.36,11.311-2.467,16.568
	c2.323,3.136,5.901,4.795,9.526,4.795c2.449,0,4.921-0.758,7.041-2.327L169.9,23.688h74.454v59.016h-33.436
	c-6.542,0-11.844,5.303-11.844,11.844v86.809c-41.869,9.6-73.206,47.133-73.206,91.873v226.926c0,6.542,5.303,11.844,11.844,11.844
	h293.57c6.542,0,11.844-5.303,11.844-11.844V273.23C443.125,228.491,411.79,190.957,369.919,181.356z M268.042,23.688h32.909v59.016
	h-32.909V23.688z M256.198,106.393h56.598h33.436v72.561H222.76v-25.154h57.382c6.542,0,11.844-5.303,11.844-11.844
	c0-6.542-5.303-11.844-11.844-11.844H222.76v-23.719H256.198z M419.436,488.312H149.555V273.23
	c0-38.923,31.666-70.588,70.588-70.588h52.509V274.8h-85.64c-6.542,0-11.844,5.303-11.844,11.844v164.432
	c0,6.542,5.303,11.844,11.844,11.844l194.967,0.001c3.141,0,6.154-1.248,8.375-3.469c2.221-2.221,3.469-5.234,3.469-8.375V286.645
	c0-6.542-5.303-11.844-11.844-11.844h-85.64v-72.159h52.509c38.922,0,70.588,31.666,70.588,70.588V488.312z M199.682,416.344
	c0-11.139,9.062-20.203,20.203-20.203c11.14,0,20.202,9.062,20.202,20.203c0,11.139-9.062,20.202-20.202,20.202
	C208.745,436.545,199.682,427.482,199.682,416.344z M219.885,372.452c-7.615,0-14.78,1.952-21.028,5.377v-79.34h73.795v99.641
	c0,6.542,5.303,11.844,11.844,11.844s11.844-5.303,11.844-11.844v-47.367c4.958,2.48,10.544,3.885,16.455,3.885
	c20.352,0,36.909-16.557,36.909-36.909c0-7.05-1.989-13.641-5.432-19.249h25.863v140.745l-112.819-0.001
	c4.093-6.669,6.459-14.508,6.459-22.89C263.775,392.142,244.086,372.452,219.885,372.452z M326.015,317.739
	c0,7.289-5.93,13.22-13.221,13.22c-7.29,0-13.221-5.93-13.221-13.22c0-7.29,5.93-13.221,13.221-13.221
	C320.084,304.52,326.015,310.45,326.015,317.739z"/>
<path d="M317.116,153.796c-0.77,0-1.552-0.071-2.31-0.225c-0.758-0.154-1.504-0.379-2.215-0.675
	c-0.722-0.296-1.409-0.663-2.049-1.09c-0.651-0.438-1.255-0.936-1.8-1.481c-0.545-0.545-1.042-1.149-1.469-1.8
	c-0.426-0.64-0.794-1.327-1.09-2.037c-0.296-0.722-0.521-1.469-0.675-2.215c-0.154-0.77-0.237-1.54-0.237-2.321
	c0-0.77,0.083-1.552,0.237-2.31c0.154-0.758,0.379-1.504,0.675-2.215c0.296-0.722,0.663-1.409,1.09-2.049
	c0.426-0.651,0.924-1.255,1.469-1.8c0.545-0.545,1.149-1.042,1.8-1.469c0.64-0.426,1.327-0.794,2.049-1.09
	c0.711-0.296,1.457-0.521,2.215-0.675c3.849-0.782,7.936,0.486,10.683,3.233c0.545,0.545,1.042,1.149,1.481,1.8
	c0.426,0.64,0.794,1.338,1.09,2.049c0.296,0.711,0.521,1.457,0.675,2.215c0.154,0.758,0.225,1.54,0.225,2.31
	c0,0.782-0.071,1.552-0.225,2.321c-0.154,0.746-0.379,1.492-0.675,2.215c-0.296,0.711-0.663,1.398-1.09,2.037
	c-0.438,0.651-0.936,1.255-1.481,1.8C323.287,152.541,320.231,153.796,317.116,153.796z"/>
</svg>