<?xml version="1.0" encoding="UTF-8"?>
<svg id="Warstwa_1" xmlns="http://www.w3.org/2000/svg" version="1.1" viewBox="0 0 298.39 141.91">
  <!-- Generator: Adobe Illustrator 29.4.0, SVG Export Plug-In . SVG Version: 2.1.0 Build 152)  -->
  <defs>
    <style>
      .st0 {
        fill: #fff;
      }
    </style>
  </defs>
  <g>
    <path d="M19.69,133.29l13.04-24.83c.49,9.7,2.72,19.62,3.38,29.25.09,1.29-2.44.36-3.13.65l-2.77-23.17-12.41,22.3-11.36-21.88-3.99,22.72,3.79-29.88,13.45,24.83Z"/>
    <path d="M87.65,108.89c6.22.74,11.06,6.29,6.7,12.18-1.81,2.45-3.83,2.43-6.34,3.35-.46.17-.71-.21-.57.67l10.52,13.26-4.45-.39-9.82-12.48-2.98-.6v13.47h-2.95v-29.46c3.14.27,6.82-.36,9.89,0ZM80.71,109.73v13.68c2.15,1.51,8.01.29,9.9-1.46,2.01-1.87,2.09-6.6.95-8.97-.64-1.34-3.32-3.25-4.75-3.25h-6.1Z"/>
    <path d="M69.77,138.34l-3.74-.05-4.73-11.68-11.77.2c-1.61,3.37-2.73,7.24-4.57,10.49-.32.58-.35,1.22-1.28,1.03l13.25-29.88,12.83,29.88ZM49.99,125.72h10.52c-1.1-3.45-2.6-7.05-4.15-10.38-.24-.52-.32-1.65-1.1-1.4l-5.26,11.79Z"/>
    <polygon points="120.68 108.89 120.68 109.73 109.32 109.73 109.32 122.77 119.42 122.77 119.42 123.62 109.32 123.62 109.32 137.5 120.68 137.5 120.68 138.34 105.95 138.34 105.95 108.89 120.68 108.89"/>
    <path d="M188.42,108.89v.84h-11.78v13.05h10.52c.03.27-.56.84-.63.84h-9.89v14.73h-3.37v-28.83l.63-.63h14.52Z"/>
    <path d="M256.58,108.89v.84h-8.84v28.62h-3.37v-28.62h-9.26c-.03-.27.56-.84.63-.84h20.83Z"/>
    <rect x="128.67" y="108.86" width="3.37" height="29.48"/>
    <path d="M147.61,108.89l-11.68,12.4,14.2,17.05-4.54-.09-12.7-14.85c4.41-4.3,8.54-9.72,13.24-13.68.47-.4.68-1.02,1.47-.84Z"/>
    <path class="st0" d="M80.71,109.73h6.1c1.43,0,4.1,1.91,4.75,3.25,1.14,2.37,1.06,7.1-.95,8.97-1.89,1.75-7.75,2.97-9.9,1.46v-13.68Z"/>
    <g>
      <path d="M277.11,108.58c11.71-1.42,20.11,5.17,19.02,17.34-1.59,17.81-30.25,17.48-31.97.42-.91-9.1,3.47-16.62,12.95-17.76ZM277.52,109.42c-13.36,1.95-13.85,26.92,0,28.82,8.39,1.15,14.3-3.01,15.2-11.52,1.08-10.18-3.9-18.95-15.2-17.3Z"/>
      <path class="st0" d="M277.52,109.42c11.3-1.65,16.27,7.12,15.2,17.3-.9,8.51-6.81,12.67-15.2,11.52-13.84-1.9-13.36-26.87,0-28.82Z"/>
    </g>
    <path class="st0" d="M49.99,125.72l5.26-11.79c.78-.24.86.88,1.1,1.4,1.55,3.33,3.05,6.93,4.15,10.38h-10.52Z"/>
    <g>
      <path d="M208.95,108.58c12.49-1.51,21.52,7.03,18.41,19.68-3.49,14.19-26.38,14.57-30.82,1.34-3.3-9.82,1.81-19.74,12.41-21.02ZM209.36,109.42c-13.83,1.89-14.1,27.48.32,28.92,7.38.74,13-2.53,14.4-9.99,1.95-10.38-2.76-20.57-14.72-18.93Z"/>
      <path class="st0" d="M209.36,109.42c11.97-1.63,16.68,8.55,14.72,18.93-1.41,7.46-7.02,10.73-14.4,9.99-14.42-1.44-14.15-27.04-.32-28.92Z"/>
    </g>
  </g>
  <g>
    <path d="M225.03,3.67c.13,2.26-.19,4.7,0,6.94.3,3.45,1.69,7.47,1.69,10.97,0,2.3-.91,5.17-.89,7.56.01,1.67.66,3.46.71,5.12.37,11.04.34,21.78,1.02,32.73.28,4.56.31,12.31-.02,16.85-.24,3.28-.31,5.26-3.99,5.69-3.33.38-6.73-.57-10.12-.44-7.12.28-13.56-.84-20.61-.42s-13.22.16-20.2.42c-2.2.08-4.97.92-7.13.89-2.86-.03-6.14-1.58-8.83-1.74-2.85-.17-5.4,1.32-7.99,1.3-16.13-.11-33.1-2.66-49.25-.4l-13.23-1.32c-.13-3.45-1.33-7.28-1.33-10.71,0-2.15.96-5.11.9-7.14-.04-1.18-.78-2.34-.88-3.78-.85-11.6,1.14-24.52.46-35.81-.29-4.85-1.01-8.3-.44-13.45s3.53-2.92,5.04-5.59c.96-1.71.45-2.76,2.82-4.23,2.02-1.25,9.35-2.18,11.62-1.66.91.21,4.01,2.87,4.74,3.68.46.51.44,1.09.75,1.56.41.63,1.81.39.7,2.24h4.21c.18-1.44-.61-5.37.94-6.03l18.6-1.51c3.31.53,1.84,5.06,2.79,7.51l4.14-.42c1.25-2.71-1.45-7.11,1.6-8.71,2.49-1.31,7.43-.4,10.45-.49,11.7-.34,23.92-.95,35.76-.88,8.77.05,17.37,1.45,26.05,1.72,3.38.1,6.55-.54,9.91-.44ZM223.34,5.36c-3.57.23-7.15.64-10.74.43-5.74-.33-11.46-.05-17.25-.42-2.71-.17-6.25-1.3-8.82-1.28-5.49.05-11.92.87-17.67.87-1.94,0-3.85-1.15-5.87-1.31-3.53-.29-5.5.95-8.42,1.29-3.59.41-7.91-.33-11.59-.01-.31,3.24,2.92,8.97-1.92,10.08-4.11.94-6.37-.1-10.06-.41-4.08-.34-9.14.49-13.5.46-6.67-.05-11.83.12-18.48.42-3.98.18-8.03-.17-12.01-.02l.42,16c4.41-.45,8.82-.59,13.25-.85,7.21-.42,13.62.28,20.64.02,8.32-.3,16.83-1.55,25.21-1.26,4.87-4.12,9.74-8.76,16.64-8.43-.05.73-1.3.34-2.08.65-8.24,3.31-15.93,10.55-18.73,19.14-2.11,6.46,2.34,19.42,4.92,25.77,2.01,4.95,8.28,9.42,13.15,11.26,5.51,2.08,18.49,2.67,24.29,1.55,10.42-2.02,19.4-10.83,21.26-21.24,1.28-7.19,3.13-19.1-1.58-25.13-4.31-5.52-14.96-11.77-21.59-14.18-5.26-1.92-11.09.73-16.49,1.33-.88-.74,1.73-1.86,2.51-2.12,3.11-1.06,11.81-1.59,15.13-1.19,3.02.37,13.01,5.32,15.41,7.31,1.88,1.56,2.92,3.79,4.92,5.18,6.52.79,12.95.17,19.48.09.04-2.66.6-5.07.41-7.78-.22-3.17-1.66-6.97-1.69-10.13-.02-1.73.66-4.28.86-6.08ZM107.21,10.41c.15-.66-.22-.87-.61-1.28-2.14-2.24-13.73-2.9-15.36,1.07,1.26,1.39,3.24.24,4.81.19,3.71-.12,7.46.13,11.17.01ZM135.83,12.51l-1.53-4.99-17.83.79v5.05c6.51.39,12.85-2.28,19.36-.85ZM108.9,12.93c.03-.27-.56-.84-.63-.84h-16.83c-.25,0-.95.59-1.47.43v.42s18.93,0,18.93,0ZM223.77,30.61c-2.93-.45-5.86,1.06-8.61,1.28-3.33.26-6.14-1.29-9.48-.86,1.68,5.36,4.65,10.81,4.2,16.61-.9,11.52-4.91,21.25-13.99,28.51l-6.19,3.69c4.53-.18,9.14-.17,13.67-.42,5.27-.3,10.72-1.25,16.01-1.27,1.71,0,3.77.84,5.66.44.12-3.02.64-6.02.43-9.07-.64-9.47-2.39-18.96-.84-28.62l-.85-10.29ZM145.92,31.45l-58.88,1.7.82,46.69c4.5-1.07,9.64,1.4,13.68,1.29,5.76-.17,13.49-1.92,19.4-2.5,7.2-.7,12.71.71,19.73,1.21,2.58.18,5.84.39,8.39.45,3.17.07,6.37.08,9.49-.45-4.81-3.56-10.47-6.64-13.25-12.2-.5-1-2.78-7.3-3.16-7.58-9.11,3.65-11.62-8.21-2.57-10.15-.87-7.02,2.76-12.83,6.36-18.47ZM139.96,52.15c-2.21-1.22-4.39.65-4.17,3.08.25,2.71,2.61,3.18,4.86,3.57l.48-.87-1.17-5.78ZM225.02,80.69c-.94-.17-1.86.44-2.73.42-10.71-.2-25.33-1.1-35.77,0-6.68.7-12.26,1.89-19.34,1.26-2.07-.18-4.36-1.25-6.32-1.29-2.66-.06-6.64,1.14-9.67,1.21-3.76.08-8.73-.19-12.64-.32-6.6-.21-13-1.66-19.78-1.3-8.47.45-14.5,1.51-23.13.87-2.43-.18-4.94.17-7.36-.21l.85,4.84c8.29.56,16.83-.82,25.05-.44,11.33.52,22.67.1,34.06.44,3.36.1,5.95-.5,8.82-.44,3.4.08,6.75,1.8,10.56,1.72,7.9-.16,17.12-.52,24.85-1.24,7.02-.65,11.2.57,17.62.82,2.1.08,4.02-.76,5.84-.7,2.59.08,5.8,1.28,8.69.69l.42-6.32Z"/>
    <path class="st0" d="M223.34,5.36c-.2,1.8-.87,4.35-.86,6.08.03,3.16,1.47,6.96,1.69,10.13.19,2.71-.37,5.12-.41,7.78-6.53.08-12.96.7-19.48-.09-2-1.39-3.04-3.62-4.92-5.18-2.4-2-12.39-6.94-15.41-7.31-3.32-.4-12.01.13-15.13,1.19-.78.26-3.39,1.38-2.51,2.12,5.4-.6,11.23-3.24,16.49-1.33,6.63,2.41,17.27,8.67,21.59,14.18,4.71,6.03,2.86,17.93,1.58,25.13-1.86,10.41-10.83,19.22-21.26,21.24-5.8,1.12-18.78.53-24.29-1.55-4.87-1.83-11.14-6.31-13.15-11.26-2.58-6.35-7.03-19.32-4.92-25.77,2.8-8.59,10.49-15.83,18.73-19.14.78-.31,2.03.08,2.08-.65-6.9-.33-11.76,4.31-16.64,8.43-8.38-.29-16.89.96-25.21,1.26-7.02.25-13.43-.44-20.64-.02-4.42.26-8.84.4-13.25.85l-.42-16c3.98-.15,8.03.2,12.01.02,6.65-.3,11.81-.47,18.48-.42,4.36.03,9.42-.8,13.5-.46,3.69.31,5.95,1.35,10.06.41,4.84-1.11,1.61-6.83,1.92-10.08,3.67-.32,8,.43,11.59.01,2.93-.34,4.89-1.58,8.42-1.29,2.02.16,3.93,1.31,5.87,1.31,5.76,0,12.18-.82,17.67-.87,2.57-.02,6.1,1.11,8.82,1.28,5.79.36,11.51.09,17.25.42,3.59.21,7.18-.21,10.74-.43ZM217.88,9.14c-5.93-.05-11.86-.18-17.7,1.03-1.35,2.57-.83,5.15.12,7.71,1.62,1.95,14.69.5,17.6-.09,1.25-.85-.46-7.06-.02-8.65ZM152.96,9.65c-2.4.53-4.47,5-2.22,6.67,5.48,4.07,9.39-8.25,2.22-6.67ZM176.5,24.04c-18.1-.13-31.7,18.35-24.17,35.73,1.5,3.45,2.36,3.14,4.51,5.17,1.21,1.15,1.73,2.64,3.26,3.9,4.59,3.78,17.23,4.3,22.78,2.73,15.54-4.39,23.54-22.75,13.11-36.11-3.63-4.65-13.53-11.38-19.48-11.42Z"/>
    <path class="st0" d="M145.92,31.45c-3.6,5.63-7.23,11.44-6.36,18.47-9.05,1.94-6.54,13.79,2.57,10.15.38.28,2.66,6.58,3.16,7.58,2.78,5.56,8.44,8.64,13.25,12.2-3.12.52-6.31.52-9.49.45-2.55-.06-5.81-.26-8.39-.45-7.02-.5-12.53-1.91-19.73-1.21-5.92.58-13.65,2.33-19.4,2.5-4.04.12-9.18-2.35-13.68-1.29l-.82-46.69,58.88-1.7Z"/>
    <path class="st0" d="M223.77,30.61l.85,10.29c-1.55,9.66.2,19.15.84,28.62.21,3.05-.32,6.04-.43,9.07-1.89.4-3.95-.45-5.66-.44-5.29.03-10.75.98-16.01,1.27-4.53.26-9.14.24-13.67.42l6.19-3.69c9.08-7.26,13.09-16.99,13.99-28.51.45-5.8-2.52-11.26-4.2-16.61,3.35-.44,6.15,1.12,9.48.86,2.75-.22,5.68-1.73,8.61-1.28Z"/>
    <path class="st0" d="M225.02,80.69l-.42,6.32c-2.9.6-6.1-.61-8.69-.69-1.81-.05-3.74.78-5.84.7-6.42-.24-10.6-1.47-17.62-.82-7.72.72-16.94,1.08-24.85,1.24-3.82.08-7.16-1.64-10.56-1.72-2.87-.07-5.45.54-8.82.44-11.38-.34-22.73.08-34.06-.44-8.23-.38-16.76,1-25.05.44l-.85-4.84c2.43.38,4.93.03,7.36.21,8.63.65,14.66-.42,23.13-.87,6.78-.36,13.18,1.08,19.78,1.3,3.91.13,8.88.4,12.64.32,3.03-.07,7.01-1.27,9.67-1.21,1.96.04,4.26,1.11,6.32,1.29,7.08.63,12.66-.56,19.34-1.26,10.44-1.09,25.06-.2,35.77,0,.87.02,1.79-.59,2.73-.42Z"/>
    <path class="st0" d="M135.83,12.51c-6.5-1.43-12.85,1.24-19.36.85v-5.05s17.83-.79,17.83-.79l1.53,4.99Z"/>
    <path class="st0" d="M107.21,10.41c-3.71.11-7.45-.14-11.17-.01-1.57.05-3.55,1.2-4.81-.19,1.63-3.98,13.23-3.31,15.36-1.07.39.41.76.62.61,1.28Z"/>
    <path class="st0" d="M139.96,52.15l1.17,5.78-.48.87c-2.25-.39-4.61-.85-4.86-3.57-.23-2.43,1.96-4.3,4.17-3.08Z"/>
    <path class="st0" d="M108.9,12.93h-18.93v-.42c.52.16,1.22-.43,1.47-.43h16.83c.07,0,.66.57.63.84Z"/>
    <path d="M176.5,24.04c5.96.04,15.85,6.77,19.48,11.42,10.43,13.35,2.43,31.72-13.11,36.11-5.55,1.57-18.19,1.05-22.78-2.73-1.53-1.26-2.05-2.75-3.26-3.9-2.14-2.04-3.01-1.72-4.51-5.17-7.53-17.38,6.07-35.85,24.17-35.73ZM175.23,26.13c-10.04.51-20.78,6.63-22.87,17.02-1.72,8.58,4.27,23.5,13.32,25.99,5.79,1.59,17.27,1.47,22.47-1.55,12.02-6.97,13.34-21.46,4.49-31.72-3.27-3.79-12.38-9.99-17.41-9.73Z"/>
    <path d="M217.88,9.14c-.44,1.6,1.28,7.81.02,8.65-2.91.59-15.98,2.04-17.6.09-.94-2.57-1.47-5.14-.12-7.71,5.83-1.21,11.76-1.09,17.7-1.03ZM216.61,11.25l-15.14.43c-.1,2.05-.07,4.65,2.33,5.01,4.43.66,8.43.3,12.81-.39v-5.05Z"/>
    <path d="M152.96,9.65c7.17-1.58,3.26,10.75-2.22,6.67-2.25-1.67-.18-6.15,2.22-6.67ZM152.44,11.36c-2.33.2-.09,5.17,2.34,3.49,1.63-1.13-1.25-3.58-2.34-3.49Z"/>
    <path class="st0" d="M175.23,26.13c5.03-.26,14.15,5.94,17.41,9.73,8.85,10.26,7.53,24.75-4.49,31.72-5.2,3.02-16.68,3.14-22.47,1.55-9.05-2.48-15.04-17.41-13.32-25.99,2.08-10.39,12.82-16.51,22.87-17.02Z"/>
    <path class="st0" d="M216.61,11.25v5.05c-4.38.69-8.39,1.04-12.81.39-2.4-.36-2.43-2.96-2.33-5.01l15.14-.43Z"/>
    <path class="st0" d="M152.44,11.36c1.09-.09,3.98,2.36,2.34,3.49-2.44,1.69-4.67-3.29-2.34-3.49Z"/>
  </g>
</svg>