<?xml version="1.0" encoding="UTF-8"?>
<svg xmlns="http://www.w3.org/2000/svg" version="1.1" viewBox="0 0 40 40">
  <defs>
    <style>
      .cls-1 {
        fill: #edd8d4;
      }

      .cls-2 {
        fill: #e49189;
      }

      .cls-3 {
        fill: #e37476;
      }

      .cls-4 {
        fill: #ea9493;
      }

      .cls-5 {
        fill: #e6a59c;
      }

      .cls-6 {
        fill: #f3e2dd;
      }

      .cls-7 {
        fill: #eaa499;
      }

      .cls-8 {
        fill: #e7beb3;
      }

      .cls-9 {
        fill: #e5b2b3;
      }

      .cls-10 {
        fill: #df4141;
      }

      .cls-11 {
        fill: #e5242b;
      }

      .cls-12 {
        fill: #d02d33;
      }

      .cls-13 {
        fill: #e27b78;
      }

      .cls-14 {
        fill: #e28a84;
      }

      .cls-15 {
        fill: #f4e2df;
      }

      .cls-16 {
        fill: #edb9b5;
      }

      .cls-17 {
        fill: #e87378;
      }

      .cls-18 {
        fill: #e97474;
      }

      .cls-19 {
        fill: #e86d6f;
      }

      .cls-20 {
        fill: #eca4a0;
      }

      .cls-21 {
        fill: #e77979;
      }

      .cls-22 {
        fill: #e4b2a3;
      }

      .cls-23 {
        fill: #e39288;
      }

      .cls-24 {
        fill: #e9c6bc;
      }

      .cls-25 {
        fill: #e46464;
      }

      .cls-26 {
        fill: #eed1cd;
      }

      .cls-27 {
        fill: #ea7473;
      }

      .cls-28 {
        fill: #e97877;
      }

      .cls-29 {
        fill: #d0272e;
      }

      .cls-30 {
        fill: #d84d51;
      }

      .cls-31 {
        fill: #eaaca7;
      }

      .cls-32 {
        fill: #f1d0cb;
      }

      .cls-33 {
        fill: #df1d28;
      }

      .cls-34 {
        fill: #e8666c;
      }

      .cls-35 {
        fill: #d0cbd1;
      }

      .cls-36 {
        fill: #c92d30;
      }

      .cls-37 {
        fill: #e4a79b;
      }

      .cls-38 {
        fill: #e8887a;
      }

      .cls-39 {
        fill: #e7494e;
      }

      .cls-40 {
        fill: #e3a69c;
      }

      .cls-41 {
        fill: #dc3533;
      }

      .cls-42 {
        fill: #cf2830;
      }

      .cls-43 {
        fill: #e7b0a3;
      }

      .cls-44 {
        fill: #e6535a;
      }

      .cls-45 {
        fill: #eb9a8e;
      }

      .cls-46 {
        fill: #e5b0a2;
      }

      .cls-47 {
        fill: #d11e29;
      }

      .cls-48 {
        fill: #e0817e;
      }

      .cls-49 {
        fill: #e18c8a;
      }

      .cls-50 {
        fill: #f7ebe9;
      }

      .cls-51 {
        fill: #de2e2f;
      }

      .cls-52 {
        fill: #e18b87;
      }

      .cls-53 {
        fill: #e18882;
      }

      .cls-54 {
        fill: #ea8485;
      }

      .cls-55 {
        fill: #c82128;
      }

      .cls-56 {
        fill: #e75c65;
      }

      .cls-57 {
        fill: #eaa59e;
      }

      .cls-58 {
        fill: #e3797e;
      }

      .cls-59 {
        fill: #e7a8a4;
      }

      .cls-60 {
        fill: #e27674;
      }

      .cls-61 {
        fill: #e86763;
      }

      .cls-62 {
        fill: #e06356;
      }

      .cls-63 {
        fill: #f0dad5;
      }

      .cls-64 {
        fill: #f1e0dd;
      }

      .cls-65 {
        fill: #e9c3b8;
      }

      .cls-66 {
        fill: #eba7a5;
      }

      .cls-67 {
        fill: #e9626a;
      }

      .cls-68 {
        fill: #e16c6f;
      }

      .cls-69 {
        fill: #ea8380;
      }

      .cls-70 {
        fill: #eaaca9;
      }

      .cls-71 {
        fill: #e16a6b;
      }

      .cls-72 {
        fill: #e76c6c;
      }

      .cls-73 {
        fill: #e8968f;
      }

      .cls-74 {
        fill: #df4c4c;
      }

      .cls-75 {
        fill: #edbfb5;
      }

      .cls-76 {
        fill: #f0d7d5;
      }

      .cls-77 {
        fill: #e7a29d;
      }

      .cls-78 {
        fill: #ea9f9b;
      }

      .cls-79 {
        fill: #e98b89;
      }

      .cls-80 {
        fill: #e1585d;
      }

      .cls-81 {
        fill: #e5b3a6;
      }

      .cls-82 {
        fill: #e77279;
      }

      .cls-83 {
        fill: #ecb8a9;
      }

      .cls-84 {
        fill: #e9686b;
      }

      .cls-85 {
        fill: #e5afa4;
      }

      .cls-86 {
        fill: #e8797b;
      }

      .cls-87 {
        fill: #e07e7d;
      }

      .cls-88 {
        fill: #e5c2b9;
      }

      .cls-89 {
        fill: #e2504e;
      }

      .cls-90 {
        fill: #e8585b;
      }

      .cls-91 {
        fill: #e7ada4;
      }

      .cls-92 {
        fill: #f4e8e7;
      }

      .cls-93 {
        fill: #dd7771;
      }

      .cls-94 {
        fill: #e99488;
      }

      .cls-95 {
        fill: #edbcb4;
      }

      .cls-96 {
        fill: #ea948d;
      }

      .cls-97 {
        fill: #e02b30;
      }
    </style>
  </defs>
  <!-- Generator: Adobe Illustrator 28.6.0, SVG Export Plug-In . SVG Version: 1.2.0 Build 709)  -->
  <g>
    <g id="Warstwa_1">
      <g>
        <path class="cls-33" d="M32.84,7.1s.03.03.05.04c.07.05.14.11.2.18.12.13.01.14-.09.15.24.19.21.45.2.7,0,.1-.06.18-.19.19-.11,0-.15-.06-.18-.16-.08-.21-.47-.3-.63-.15-.11.11-.01.17.06.23.19.21.3.44.27.73-.02.06-.06.1-.1.14-.02.03-.04.05-.06.08-.09.15-.03.31-.03.47,0,.1.02.19-.07.26-.09.05-.09.15-.11.23-.03.09-.06.2-.16.23-.17.05-.24.18-.27.34-.03.13-.1.23-.22.31-.2.13-.36.3-.52.47-.06.06-.13.12-.13.2,0,.41-.31.61-.56.84-.19.18-.28.36-.26.61,0,.08,0,.16,0,.24,0,.05,0,.1-.02.14-.01.05-.04.11-.08.11-.3.02-.31.47-.66.42-.11-.02-.23,0-.34,0-.23,0-.41.04-.49.3-.05.16-.22.23-.38.27-.13.03-.21.08-.22.21-.02.12-.09.2-.17.29-.15.16-.3.32-.35.54-.03.12-.1.2-.22.23-.12.02-.17.1-.2.21-.08.27-.11.29-.38.28-.05,0-.1,0-.14-.02-.3-.06-.3-.06-.3.25,0,.05,0,.11-.05.13-.21.08-.33.29-.57.35-.22.05-.4.17-.57.36-.16.18-.3.41-.55.51-.06.03-.12.07-.14.13-.06.21-.21.24-.4.23-.15,0-.29,0-.44,0-.15.01-.27.06-.32.22-.02.07-.07.14-.14.16-.22.07-.29.25-.29.46,0,.17-.04.3-.21.38-.07.03-.09.11-.14.16-.16.21-.44.3-.57.54-.02.04-.11.02-.16.02-.21,0-.39.04-.46.27,0,.03.01,0-.01.02-.22.1-.37.28-.53.45-.09.1-.23.15-.29.3-.04.11-.15.11-.25.11-.24,0-.46,0-.54.29-.02.07-.09.08-.15.11-.08.03-.15.07-.18.16-.04.13-.12.21-.24.25-.08.03-.13.09-.16.17-.03.1-.09.17-.19.2-.03.01-.08.02-.08.05-.09.27-.43.33-.53.6-.05.13-.18.13-.29.12-.23,0-.42.02-.49.29-.02.06-.07.09-.12.12-.04.02-.11.03-.13.07-.1.26-.36.38-.53.57-.19.22-.41.39-.39.71-.24.1-.34.3-.43.53-.03.08-.18.06-.27.06-.36.03-.42.08-.43.44,0,.18-.09.27-.21.39-.2.2-.38.29-.66.28-.12,0-.26.07-.4.08-.23.02-.32.14-.39.48-.07.05-.11-.03-.17-.04-.26-.16-.45-.39-.67-.59-1.16-1.07-2.29-2.17-3.35-3.35-.68-.76-1.34-1.53-1.91-2.38.13-.1.24-.06.33.06.07.1.13.2.19.31.08.15.29.24.45.19.17-.06.29-.3.3-.47,0-.39-.18-.69-.43-.97-.07-.07-.14-.19.05-.22.11.07.18.18.25.28.12.16.2.36.33.51-.01-.08-.18-.12-.06-.24.2.04.41,0,.61.12.12.06.26.04.3-.14.03-.11.12-.17.19-.24.26-.25.29-.49.1-.8-.07-.11-.11-.25-.04-.34.15-.21.3-.43.55-.52.21-.08.31-.23.38-.4.11-.26.18-.29.36-.08.09.1.15.1.23,0,.06-.07.09-.12-.02-.16-.09-.03-.16-.09-.14-.2.02-.11.11-.13.2-.15.03,0,.08-.01.09-.03.09-.21.29-.31.43-.47.24-.27.22-.28.49-.08.04-.06-.01-.11-.03-.16-.04-.13-.07-.26.05-.36.12-.1.27-.1.39-.01.17.13.28.07.41-.06.2-.2.47-.27.71-.4.19-.11.32-.26.47-.41.07-.07.03-.15-.02-.22-.08-.1-.06-.19,0-.29.12-.25.21-.51.5-.62.04-.02.05-.06.05-.1-.04-.24.12-.27.29-.28.05,0,.1,0,.15,0,.26-.01.3-.08.16-.31-.04-.07-.07-.14-.06-.23.01-.07.04-.12.11-.15.08-.03.14,0,.2.05.04.04.07.09.09.14.04.08.08.18.19.16.12-.02.2-.11.25-.22.04-.1-.04-.13-.12-.12-.09.02-.17.03-.2-.07-.03-.1.02-.18.09-.23.12-.09.2-.2.24-.35.05-.15.19-.21.35-.22.15-.01.31,0,.46,0,.06,0,.16.01.14-.08-.06-.23.14-.37.17-.57.01-.08.05-.16.04-.25-.02-.15.06-.23.2-.16.19.1.22.03.22-.14,0-.09.06-.17.13-.23.13-.11.17-.23.1-.39-.02-.05-.04-.11-.02-.17.04-.13.13-.23.28-.22.16,0,.19.12.2.26,0,.07,0,.14-.02.2.08-.16.2-.31.39-.37.26-.08.39-.24.39-.51,0-.32.04-.35.39-.37-.25-.02-.31-.19-.34-.38-.02-.15-.11-.27-.17-.4-.04-.1-.15-.23.03-.32.39.48.68,1.02.95,1.58.1-.06.12-.17.16-.26.48-.99,1.12-1.85,1.94-2.58,1.06-.95,2.28-1.57,3.67-1.89,1.47-.34,2.92-.25,4.36.22.59.19,1.15.47,1.69.79.1.06.2.11.27.2.09.25.35.27.53.39h0c.03.07.15.08.15.19,0,0-.01,0,0,0,.02-.03,0,.01.02-.01.03-.01.06,0,.08.02Z"/>
        <path class="cls-55" d="M35.71,14.61s.01.08,0,.12c-.05.08,0,.18-.04.26,0,.05,0,.09-.02.13-.03.05,0,.11-.03.16-.21,1.23-.66,2.37-1.22,3.48-.62,1.21-1.38,2.32-2.23,3.38-.91,1.13-1.9,2.19-2.93,3.21-.93.92-1.89,1.8-2.87,2.65-.65.57-1.33,1.11-2,1.66-.76.61-1.53,1.2-2.3,1.78-.63.48-1.28.93-1.92,1.4-.12.09-.2.05-.3-.02-1.05-.75-2.1-1.52-3.12-2.32-.62-.48-1.23-.97-1.85-1.46-.08-.06-.15-.15-.22-.22.04-.04.08-.04.13-.01-.01-.04-.06-.04-.09-.07-.21-.23-.14-.56.16-.61.27-.04.53-.14.72-.28.21-.15.45-.33.57-.58.06-.12.14-.2.22-.29.21-.23.42-.41.73-.49.06-.02.08-.12.12-.18.12-.19.26-.37.47-.48.04-.02.1-.04.12-.08.09-.23.3-.33.5-.44.29-.17.46-.47.7-.69.05-.05.09-.12.16-.15.21-.07.37-.17.39-.43,0-.09.11-.15.2-.13.16.02.24-.05.29-.19.01-.04.04-.08.08-.09.21-.06.32-.2.36-.41,0-.05.09-.07.13-.11.25-.23.5-.38.87-.34.2.02.43,0,.65,0,.14,0,.27-.04.39-.11.33-.19.66-.4,1.05-.45.16-.02.28-.15.37-.3.06-.11.15-.21.27-.23.19-.04.32-.16.44-.28.17-.16.32-.34.49-.5.06-.05.1-.13.13-.2.03-.09.11-.19-.02-.26-.12-.06-.18.02-.24.13-.13.23-.37.37-.51.6-.04.06-.1.1-.14.16-.16.26-.43.37-.72.29-.25-.07-.48-.13-.6.19-.02.06-.09.09-.16.07-.06-.02-.08-.07-.1-.13-.07-.24,0-.4.23-.52.06-.03.11-.07.13-.14.04-.21.2-.24.37-.22.31.04.56-.06.7-.35.02-.04.05-.09.08-.09.31.06.42-.24.63-.35.06-.03.11-.07.12-.14.08-.35.31-.58.62-.73.22-.11.36-.27.49-.48.19-.29.43-.57.79-.66.27-.07.5-.22.67-.45.06-.08.13-.16.22-.19.19-.07.36-.13.41-.36,0-.04.05-.06.09-.07.04-.01.1-.01.11-.04.11-.25.4-.34.53-.57.04-.07.06-.16.17-.14.11.02.14.1.15.19.01.08,0,.16-.02.24-.02.1-.01.17.1.22.2.08.14.23.05.33-.14.16-.17.31-.1.51.06.17-.08.29-.19.39-.05.05-.13,0-.18-.03-.08-.05-.09-.13-.06-.22.02-.08.11-.18-.05-.21-.12-.02-.25,0-.3.15-.04.13.06.16.16.19.34.1.33.1.28.57,0,.03,0,.07,0,.1.03.01-.08.07.02.06.02,0,.04.01.05.02,0,.18-.12.56-.24.66-.15.12-.11.28-.11.42,0,.08.02.17-.05.22-.26.2-.28.47-.27.76-.06.08-.13.14-.18.23,0,.04-.06.14.05.08.1-.06.15-.18.23-.27.07-.06.14-.18.24-.03-.12.2-.28.37-.43.53.21-.18.35-.46.59-.64.17.08.05.18,0,.25-.21.31-.47.57-.75.81-.02.02-.01-.01-.02.01,0,.03.03-.01.04,0,.23-.1.35-.3.51-.48.03-.05.07-.09.11-.13.11-.07.15-.24.33-.21.06.09.03.18-.01.27-.01.02-.02.04-.04.06-.43.35-.81.74-1.15,1.17-.19.24-.35.52-.56.75-.06.07-.06.11.03.14.12.05.07.12.02.19-.08.09-.17.17-.25.26-.07.07-.02.2.1.24.41-.34.77-.73,1.13-1.12.26-.31.55-.61.81-.92.05-.06.11-.15.22-.11,0,.24-.18.39-.32.56-.11.13-.23.24-.28.41-.08.14-.22.23-.32.36-.42.49-.91.92-1.35,1.39.44-.46.92-.89,1.34-1.38.16-.19.35-.36.49-.58.02-.03.04-.05.06-.08.63-.65,1.2-1.36,1.76-2.07.25-.32.49-.64.73-.97.04-.06.08-.12.16-.15.07,0,.11.04.12.11-.05.29-.27.48-.43.69-.51.69-1.03,1.37-1.59,2.02-.01.02-.03.04-.04.05-.25.23-.47.47-.69.73-.09.14-.23.24-.34.37-.51.62-1.12,1.14-1.67,1.72.54-.57,1.14-1.09,1.64-1.7.12-.13.26-.24.36-.39.16-.17.29-.36.47-.51.15.04.02.17.09.24-.02.17-.17.25-.27.35-.64.71-1.32,1.37-2.01,2.04-.35.31-.68.64-1.03.94.36-.3.69-.64,1.04-.94.8-.79,1.61-1.56,2.34-2.41.18-.21.36-.43.56-.63.67-.77,1.31-1.56,1.88-2.4.87-1.29,1.56-2.66,1.9-4.19.03-.14.04-.29.13-.41.17.03.15.16.14.28,0,.08-.06.15-.02.23,0-.29.15-.59-.05-.87-.02-.07-.03-.15.02-.22.35,0,.48.08.59.36.03.07.07.13.15.12.08,0,.13-.06.16-.13.04-.13.04-.27.08-.4.04-.15.14-.24.29-.24.22,0,.25.06.21.36Z"/>
        <path class="cls-11" d="M7.96,20.03c-.15.05-.06.13-.01.17.21.16.29.4.41.62.03.06.05.12.02.18-.04.08-.03.16.03.23.07.08.04.15-.03.21-.04.04-.09.07-.12.12-.13.24-.36.18-.56.16-.06,0-.11-.05-.13-.13-.04-.12-.12-.21-.17-.32-.07-.16-.18-.19-.33-.16-.04-.02-.07-.06-.08-.1.02-.09-.02-.13-.1-.15-.27-.31-.47-.68-.68-1.03-.6-.97-1.1-2-1.46-3.08-.54-1.62-.7-3.27-.37-4.95.34-1.72,1.16-3.19,2.43-4.41.86-.82,1.86-1.42,2.97-1.83.02,0,.05,0,.07,0,.17.03.33-.01.47-.08.14-.07.32-.05.44-.17.08-.04.16-.06.25-.05.63-.07,1.26-.14,1.9-.13.09-.01.18,0,.26.03.07.11.19.06.28.07.26.02.51.1.77.09.11,0,.21.02.3.08-.02.03-.05.04-.08.05,0,.03.04.02.06.03.19.07.39.06.59.08.07.01.14.03.2.08.03.06.07.1.14.05.04,0,.08,0,.1.04.04.04.08.09.14.06.03,0,.04,0,.05.03.07.1.16.15.29.12.06.01.11.03.15.08.12.2.31.28.53.3.03,0,.05,0,.05.03.02.04.05.05.09.06.03,0,.05.01.05.04.02.03.06.05.09.06.05.06.16.05.2.13.06.06.12.11.19.16.02.01.03.03.05.04.19.2.43.34.63.54.08.08.16.16.24.24.13.18.28.34.44.49.05.05.13.06.15.14,0,.03.02.05.05.06.05.03.08.08.1.14-.11.13-.01.26.05.35.08.12.13.24.15.38.04.24.05.25.29.3.06.01.12.02.12.09,0,.09-.07.1-.14.1-.1,0-.2-.1-.29.01-.06.08-.03.19-.03.28,0,.31-.13.46-.44.54-.16.04-.25.18-.34.31-.03.04-.02.09-.1.13,0-.13,0-.24,0-.36,0-.14-.06-.2-.17-.18-.11.02-.23.16-.21.26,0,.03.03.06.04.09.08.2.07.25-.09.39-.11.1-.18.19-.14.36.03.13-.06.2-.18.14-.04-.02-.08-.06-.12-.09-.04-.03-.09-.05-.13,0-.04.04-.04.1,0,.13.09.09.07.15-.03.21-.04.03-.05.08-.05.13,0,.06,0,.12-.05.16-.14.12-.16.25-.02.38-.07.09-.15.08-.22.08-.16,0-.32,0-.49,0-.23,0-.32.08-.35.31-.01.09-.05.13-.12.16-.08.04-.15.1-.2.17-.03.04-.03.1.02.13.04.04.07,0,.1-.02.04-.03.07-.08.12-.05.06.05.11.11.16.17,0,.01,0,.06-.02.06-.09.05-.12.15-.2.21-.19.14-.32.11-.4-.11-.01-.04-.01-.08-.03-.11-.04-.06-.09-.12-.18-.09-.08.03-.08.11-.08.19,0,.06.04.11.08.15.08.08.15.15.09.27-.06.11-.17.11-.27.11-.08,0-.16,0-.24,0-.2.01-.24.08-.15.26.01.02.02.04.03.06-.02.04-.04.06-.07.06-.25.03-.39.18-.44.43-.01.06-.04.12-.09.17-.09.08-.08.16,0,.24.13.13.13.19-.01.31-.08.06-.13.15-.2.21-.08.08-.16.15-.28.18-.08.02-.16.04-.2.12-.03.05-.09.09-.14.08-.22,0-.32.16-.45.29-.14.13-.15.14-.3.02-.02-.02-.05-.05-.07-.06-.08-.05-.29-.05-.35,0-.06.06-.06.21,0,.32.03.06.14.09.09.18-.03.06-.1.1-.17.12-.07-.02-.04-.08-.06-.12-.03-.06-.06-.13-.13-.12-.07,0-.13.04-.14.12-.02.15-.09.23-.25.25-.1.01-.15.09-.15.19,0,.14-.07.19-.2.19-.03,0-.07,0-.1,0-.05.01-.09.05-.09.1,0,.07.03.11.09.12.07.02.19-.02.21.08.02.09-.1.13-.15.21-.05.07-.14.1-.22.16-.05-.11-.06-.22-.15-.28-.09-.06-.18-.04-.17.06.03.25-.23.31-.28.51,0,.03-.05.04-.08.02-.12-.04-.19.02-.26.12-.06.09-.15.17-.24.24-.15.12-.17.3-.05.44.17.2.17.55,0,.75-.06.07-.13.13-.2.18-.05.04-.07.08-.1.13-.03.07.02.19-.09.2-.12.02-.27.06-.38-.03-.08-.07-.15-.1-.26-.06-.1.04-.18-.04-.26-.09,0,0-.02,0-.03-.01-.03-.03-.05-.06-.08-.09-.01-.02-.02-.03-.03-.05-.02-.03-.04-.07-.07-.1-.01-.02-.02-.03-.03-.05-.03-.06-.07-.1-.11-.15-.01-.02-.03-.04-.04-.05-.16-.27-.31-.54-.49-.8-.05-.08-.11-.16-.12-.26,0-.03.02-.06.04-.08.04-.03.09,0,.14-.02.04,0,.08.02.13,0,.09.06.12.17.2.25.01.02.02.03.03.05.02.06.05.12.08.17.01.02.02.04.03.05.01.03.02.06.02.09,0,.02.02.04.02.06.02-.03-.02-.05-.02-.08-.01-.13-.1-.24-.14-.36-.03-.08-.11-.15.01-.24.06-.05-.08-.17-.06-.27.01-.03.03-.05.06-.07.11-.03.03-.09.01-.12-.11-.23-.2-.46-.3-.7-.03-.07-.06-.14-.06-.21,0-.07.02-.13.09-.15.16.04.15.19.19.3.03.1.05.21.08.32.03.11.1.2.12.31-.02-.11-.08-.2-.11-.3-.01-.09-.09-.18-.04-.28.04-.03.09-.04.14-.02.05.03.06.09.08.13,0,.02,0,.02.02.02-.01,0-.02-.02-.02-.04-.16-.38-.31-.76-.35-1.18.02-.18-.03-.36,0-.54-.05.02.01.11-.06.13-.11-.05-.09-.14-.08-.23.02-.07.03-.15.08-.21.02-.02.04-.02.06-.01.04.03.01.09.04.13,0,.02.03-.03.01,0-.04-.05-.02-.13-.08-.16-.06-.19-.13-.38-.04-.57.04-.04.07-.03.09.02,0,.02,0,.03,0,.04-.03,0-.03.03,0,0s.02.02.02-.01c0-.07-.04-.14,0-.2.1-.05.08.03.09.08.03.17.05.35.12.51-.02-.12-.04-.25-.03-.36.02-.12-.08-.02-.08-.06-.04-.23-.07-.46-.05-.7,0-.09,0-.18.06-.25.17.01.1.15.12.23.03.11-.05.25.08.33.05.18.09.35.08.54,0,0,.02,0,.02,0,0,0,.01,0,.02,0,.09.08.04.17.04.26.02-.15,0-.29-.08-.42-.03-.05-.07-.1-.05-.16.04-.08.09-.14.18-.16.12.12.02.3.12.41,0-.05.06-.1-.04-.11-.04-.07-.02-.15-.02-.23.03-.05.07-.04.1,0,.11.14.06-.03.08-.04.03-.09.02-.19.04-.29.09-.36,0-.75.12-1.1.03-.07,0-.19.13-.17.08.24-.03.48,0,.71,0,.02,0,.04,0,.06,0,.02,0,.02.01,0,.02-.18-.08-.38.06-.55.02.01.03.05.05.05.03,0,0-.02,0-.04,0-.1-.04-.21.09-.25.05.07.03.14.02.22.02-.1-.01-.21.05-.3.06-.07.15-.09.19-.17.08-.08.07-.2.14-.29.05-.05.09-.12.16-.16.02,0,.04,0,.06,0,0,.01.02.03.03.03.02,0,.02,0,0,0-.03,0,.01,0-.02,0-.02-.03-.04-.06-.03-.1,0-.02,0-.04.02-.06.02-.05.05-.08.1-.11.03-.03.03-.07.03-.11,0-.1,0-.2.1-.27.12-.03.13-.12.1-.22,0-.04,0-.08.03-.11-.03.02-.04.07-.09.06-.03-.01-.05-.04-.07-.07.01-.15.14-.24.21-.36.05-.07.11-.13.16-.2.08-.1.13-.22.24-.3.09-.06.16-.13.2-.23.02-.03.05-.05.08-.05.21.06.2-.08.2-.21,0-.06.04-.1.08-.14,0,0,.02-.02.03-.02,0,0-.02.01-.03.02-.02,0-.04,0-.05-.01-.05-.11.02-.19.08-.28.01-.02.03-.03.05-.05.19-.02.28-.17.38-.31.02-.03.04-.05.07-.06.04,0,.07-.03.09-.06.02-.02.04-.04.06-.06.03-.08-.04-.16-.01-.25.02-.05.04-.09.03-.14.08-.11.2-.16.33-.21-.02-.04-.08-.04-.09-.09,0-.07.05-.1.09-.13.11-.14.29-.18.4-.24,0,0-.05.01-.09,0-.02-.03-.03-.06-.03-.09.02-.07.08-.12.07-.2.06-.08.14-.1.23-.09.05-.02.12.12.15-.03,0-.02,0-.04,0-.06.04-.12.23-.05.25-.2.02-.08.14-.03.16-.12.07-.09.22-.03.27-.14.04-.06.1-.08.13-.08-.17.13-.39.16-.63.15-.17-.04-.33,0-.5.03-.1.02-.2.07-.31.03-.09-.06.03-.11.01-.17.11-.04.21-.08.33-.09.08,0-.02-.05.02-.06.06-.08.14-.07.22-.05.03,0,.06,0,.09.03.09.07.09-.01.12-.06.24-.08.49-.02.73-.04.09,0,.17,0,.26-.02.09-.03.19-.02.27-.08.08-.04.17,0,.25-.02.03,0,.05-.02.07-.04,0-.04-.03-.06-.06-.08-.14-.07-.27-.15-.43-.09-.07.01-.13.02-.19-.04-.02-.01.03-.08-.04-.05-.04.02-.09.03-.13.03-.08,0-.14-.03-.21-.06-.11-.08-.23-.05-.35-.05-.27-.01-.55.03-.82-.03-.09-.02-.17.03-.25.06-.07.04-.14.06-.23.05-.35-.05-.69-.05-1,.14-.01.02-.03.04-.05.05-.37.12-.73.25-1.09.41-1.63.74-2.78,1.94-3.47,3.59-.42,1.01-.62,2.06-.55,3.15.08,1.1.33,2.17.75,3.2.09.23.19.46.29.69.28.65.63,1.25,1.02,1.84.01.02.03.04.04.05.03.1.14.17.1.3Z"/>
        <path class="cls-29" d="M28.97,18.62c-.09-.06-.06-.13-.03-.21.09-.2.07-.24-.14-.3-.05-.02-.11-.02-.17-.03-.09-.02-.17-.06-.17-.17,0-.14.04-.23.16-.26.09-.03.18-.06.28-.05.13.02.18.11.11.23-.02.03-.06.06-.07.1-.03.07,0,.13.07.16.06.03.12.05.16-.04.01-.04.03-.08.06-.1.08-.07.1-.13.02-.22-.07-.08-.04-.18-.02-.27.02-.09.03-.16.13-.2.1-.04.07-.15.08-.24-.03-.03-.06-.03-.09-.03-.16-.02-.18-.05-.16-.2,0-.09.06-.17.05-.26,0-.06,0-.11-.03-.16-.03-.03-.06-.05-.1-.05-.04,0-.06.04-.06.07,0,.21-.11.31-.32.32-.07,0-.07.07-.08.13-.01.15-.09.24-.25.25-.1,0-.14.05-.15.15,0,.15-.1.24-.25.24-.15,0-.25.1-.32.2-.2.3-.49.45-.83.53-.13.03-.23.08-.28.2-.02.06-.06.09-.12.12-.15.07-.24.18-.29.34-.07.2-.21.34-.41.41-.27.1-.45.3-.62.52-.04.06-.04.12-.04.19.01.13-.06.2-.18.21-.1,0-.15.04-.17.15-.03.19-.06.2-.26.16-.12-.03-.2-.01-.26.11-.03.07-.1.13-.14.2-.07.13-.19.17-.33.17-.13,0-.26,0-.39,0-.1,0-.17.01-.18.14,0,.15-.09.24-.25.25-.12,0-.15.07-.14.18,0,.09,0,.18,0,.27,0,.04.02.08.07.08.04,0,.08-.02.1-.06,0-.01.01-.03.02-.04.01-.08.02-.19.1-.21.13-.03.26-.1.4-.03.19.1.38.08.58,0,.09-.03.16-.07.19-.17.03-.11.07-.21.21-.24.04,0,.07-.04.08-.09.03-.15.12-.24.26-.3.09-.04.12-.11.14-.21.03-.15.25-.24.38-.16.08.05.06.15.04.22-.05.15-.12.3-.25.41-.24.19-.41.43-.62.63-.05.05-.1.07-.17.08-.18.01-.29.09-.38.27-.08.16-.24.32-.47.31-.14,0-.27,0-.36.14-.01.02-.05.05-.08.05-.24,0-.41.18-.59.29-.06.04-.11.06-.18.06-.19,0-.39.03-.58-.02-.07-.02-.12.02-.18.04-.12.05-.23.05-.35,0-.13-.05-.25-.03-.28.1-.03.15-.13.18-.23.21-.12.03-.17.1-.17.22,0,.14-.04.23-.21.24-.13,0-.21.09-.22.22-.02.13-.07.18-.21.14-.21-.05-.26,0-.28.21-.02.21-.02.21-.22.26-.05.01-.1.02-.13.06-.16.16-.33.3-.46.48-.07.1-.13.19-.24.25-.16.09-.28.24-.47.29-.05.01-.11.07-.11.12,0,.15-.11.19-.22.24-.22.09-.36.27-.45.48-.07.17-.16.26-.36.27-.14,0-.29.03-.31.24,0,.11-.11.16-.21.18-.12.03-.17.09-.18.22-.01.21-.05.24-.26.28-.09.02-.11.06-.13.14-.04.19-.08.24-.27.25-.11,0-.18.03-.24.13-.05.09-.12.11-.22.08-.16-.06-.29.09-.44.1-.01,0-.04.04-.04.06.01.1.02.19.04.28.02.1.08.16.2.16.12,0,.09.1.06.19-.12,0-.16-.15-.29-.12-.13-.06-.22-.16-.32-.25-.03-.03-.05-.08-.1-.1-.06-.02-.11-.06-.15-.12-.03-.08-.13-.1-.16-.19.02-.11-.08-.06-.12-.1-.18-.05-.23-.26-.41-.31-.03-.02-.06-.04-.09-.07,0-.11-.17-.12-.14-.24-.13-.19.04-.31.11-.44.07-.13.24-.14.37-.13.1,0,.16,0,.24-.06.15-.1.31-.07.44.03.09-.03.06-.1.08-.15.04-.09.08-.17.2-.18.14-.01.19-.11.17-.24,0-.04,0-.08,0-.12-.01-.39.08-.4.43-.46.02,0,.05,0,.07,0,.08,0,.17.03.24-.03.06-.05.02-.14.04-.21.04-.13.06-.28.26-.25.09.01.12-.05.12-.14,0-.06,0-.13,0-.19,0-.19.04-.23.24-.3.08-.03.14-.06.15-.16.02-.13.08-.22.24-.23.08,0,.14-.06.15-.16.02-.13.09-.22.24-.23.08,0,.13-.06.15-.16.03-.17.12-.25.3-.26.09,0,.18,0,.27,0,.13,0,.21-.01.22-.17,0-.13.13-.17.24-.21.06-.02.14-.02.13-.11,0-.17.11-.25.25-.28.09-.02.14-.05.14-.15.01-.16.14-.21.27-.24.06-.02.12-.02.12-.1,0-.18.12-.25.27-.29.07-.02.11-.04.12-.12.04-.19.13-.26.31-.27.07,0,.15,0,.22,0,.14,0,.25.01.26-.19,0-.12.14-.17.25-.2.07-.02.12-.03.12-.12,0-.17.12-.24.26-.27.11-.02.18-.04.18-.17,0-.09.07-.15.15-.17.09-.03.18-.06.28-.06.15,0,.31.04.32-.21,0-.11.15-.17.27-.18.1,0,.15-.03.15-.14,0-.11.07-.18.17-.2.14-.03.18-.12.16-.25,0-.08,0-.16.02-.24.03-.17.11-.28.28-.32.09-.02.14-.07.14-.17,0-.1.07-.16.16-.19.08-.03.17-.06.26-.05.15,0,.31,0,.46,0,.13,0,.24.01.24-.18,0-.12.12-.17.22-.2.1-.02.15-.05.17-.16.02-.11.08-.19.21-.2.11,0,.16-.08.18-.19.02-.11.08-.19.21-.2.17-.01.3-.17.48-.15.02,0,.05-.02.06-.03.05-.16.19-.21.33-.24.05-.01.07-.06.04-.11-.02-.03-.04-.05-.05-.08-.02-.09-.02-.18.06-.24.07-.06.15-.07.22-.02.13.08.28.06.42.07.1,0,.16-.03.15-.14,0-.07.03-.14.04-.21.02-.09.08-.15.17-.14.16.02.24-.1.24-.21.01-.27.21-.4.36-.56.08-.09.14-.17.15-.29.02-.19.02-.18.19-.21.22-.04.43-.1.45-.38,0-.07.07-.12.15-.15.08-.03.17-.06.26-.05.15,0,.29,0,.44,0,.15,0,.27,0,.29-.19.01-.09.09-.13.19-.16.22-.05.22-.06.22-.3,0-.12,0-.24,0-.36-.02-.17.03-.31.17-.4.21-.14.32-.39.54-.51.05-.03.07-.09.06-.15-.05-.28.14-.45.32-.61.15-.14.28-.32.48-.4.07-.03.07-.1.09-.16.03-.09.05-.19.08-.28.02-.06.04-.12.11-.12.24,0,.26-.17.28-.34.01-.09.05-.15.15-.16.2.24.22.54.29.82.01.06,0,.13.04.18,0,.02.02.05.02.07,0,.1.03.2-.05.28-.02.01-.05.01-.07,0-.04-.05-.06-.11-.09-.16-.08-.21-.05-.45-.12-.58.12.88.19,1.84.34,2.8,0,.07,0,.13-.02.2-.05.18-.02.37-.03.56,0,.08,0,.16-.02.24-.02.06-.03.12-.03.18-.01.18-.07.36-.12.53-.16,0-.06.09-.05.15,0,.03,0,.06-.03.09-.08-.02-.19.03-.21-.11-.01-.1.01-.18.05-.27.02-.05.04-.1.04-.16,0-.03.01-.07.02-.1.02-.07.03-.13.03-.2,0-.06,0-.12.02-.18.02-.06.03-.12.02-.18,0-.11,0-.21.02-.32.05-.36.04-.72,0-1.08-.03-.11-.02-.22-.02-.32,0-.08,0-.15-.03-.23-.01-.05-.02-.1-.02-.15,0-.1,0-.2-.03-.29,0-.04,0-.07,0-.11-.04-.25-.1-.5-.12-.66.11.33.11.77.09,1.21,0,.08.02.19-.12.19-.04-.04-.04-.09-.04-.14-.03-.29-.14-.58-.11-.82.07.23-.06.51-.02.78,0,.05.05.03.01.03,0,0,0,0,0,0,0-.06-.04-.13.03-.17.02-.01.04,0,.06.03.03.04.03.09.02.14,0,.14.02.27.06.41.01.42.02.84,0,1.26-.03.1-.05.21-.04.32,0,.04,0,.08-.02.11-.03.07-.03.15-.03.22,0,.05-.02.1-.06.14-.14-.07-.04-.18-.07-.33.01.41-.06.76-.18,1.09-.03.08.03.16.02.24,0,.09-.03.18-.09.25-.01,0-.04.02-.04.01-.02-.09-.11-.12-.16-.18,0-.23.09-.44.15-.65.08-.3.15-.6.19-.91.02-.08.03-.15.03-.23,0-.13,0-.27.02-.4.02-.39.18-.77-.03-1.15-.01-.05-.01-.1-.01-.15,0-.08.01-.17-.01-.25,0-.01-.01-.02-.02-.02.02.04.03.08.03.12,0,.1,0,.2,0,.3.04.41-.08.81-.04,1.22.01.11,0,.22.02.33.03.28-.04.54-.11.8-.16.18-.21.4-.19.64,0,.02,0,.04,0,.06-.01.05-.03.1-.05.15-.01.02-.03.03-.05.03-.09-.03-.17-.07-.17-.18.11-.41.19-.83.29-1.24.03-.07.03-.15.03-.22,0-.12.01-.24.02-.36.04-.25.03-.5,0-.75-.02-.06-.01-.12-.01-.18,0-.06.01-.13-.06-.17-.02,0-.03,0-.04.01-.01.02-.03.04-.02.07,0-.02,0-.05.03-.06.04-.02.06,0,.07.04,0,.02.01.05.01.07.02.34.05.68,0,1.01-.02.09-.03.19-.03.28,0,.05,0,.11-.03.16-.18.21-.1.46-.13.69,0,.02-.02.05-.03.07-.03.03-.09,0-.11.07-.21.77-.49,1.51-.9,2.2-.03.05-.03.11-.01.16,0,.05-.02.08-.05.11-.07.04-.09.1-.1.17-.01.02-.03.03-.05.04-.11.02-.16-.04-.19-.13-.01-.12.08-.19.13-.28.47-.81.83-1.67,1.07-2.58.02-.06.03-.12.03-.18,0-.14.05-.26.06-.4.02-.07.03-.14.03-.21,0-.08.02-.16.02-.24,0-.07.04-.13.03-.2,0,0-.01,0-.01,0,0,0,0,.01,0,.02,0,.04,0,.09,0,.13,0,.05,0,.11-.01.16-.02.07-.02.14-.02.21-.12,1.08-.52,2.06-1.02,3.01-.28.52-.59,1.02-.91,1.52-.06.1-.11.23-.26.23Z"/>
        <path class="cls-47" d="M35.71,14.61s0-.06,0-.1c0-.06,0-.11-.01-.17-.07.02-.11-.04-.17-.05-.12-.01-.24.07-.25.2-.01.12-.07.23-.05.36.01.09-.05.15-.11.2-.13.11-.28.07-.35-.09-.03-.06-.02-.13-.03-.19-.02-.13-.09-.18-.2-.1-.14.09-.18.03-.21-.1,0-.02-.04-.03-.06-.04-.08-.09-.05-.2-.04-.3.14-1.14-.04-2.24-.43-3.31-.15-.47-.38-.91-.66-1.32-.2-.3-.4-.59-.62-.87-.06-.16-.18-.28-.27-.42-.11,0-.19-.03-.2-.16,0-.12.06-.17.17-.2.15-.05.3-.04.45-.01.13.03.23.08.21.24,0,.07.02.12.11.13.07,0,.12-.02.13-.1.01-.09.08-.18,0-.27-.04-.04-.04-.1-.02-.16.05-.11-.01-.16-.1-.21-.05-.03-.2,0-.14-.14.06-.15.14,0,.23,0-.05-.13-.18-.18-.22-.29.19.08.32.24.45.38,1.38,1.4,2.17,3.08,2.4,5.02.08.64.06,1.28,0,1.91,0,.05-.02.09-.03.14Z"/>
        <path class="cls-35" d="M29.45,34.58c-.2.07-.41.05-.6.08-.35.05-.71.01-1.06.08-.02,0-.05,0-.07,0-.43-.01-.85.04-1.28.05-.88.02-1.76.03-2.64.06-2.4.08-4.79.03-7.18.02-.64,0-1.29,0-1.94-.04-.45-.04-.91-.01-1.36-.05-.55-.04-1.1-.05-1.64-.1-.38-.04-.76.02-1.13-.11.17-.04.34-.07.52-.07.35-.01.71-.03,1.06-.08.02,0,.05,0,.07,0,.51.03,1.02-.04,1.52-.05.86-.03,1.71-.02,2.57-.06,1.18-.06,2.36-.02,3.54-.03,1-.01,1.99,0,2.99,0,.87,0,1.74.05,2.62.06.43,0,.86,0,1.28.04.6.04,1.19.05,1.79.11.3.03.6-.02.89.08.02,0,.04.02.07.03Z"/>
        <path class="cls-33" d="M12.92,5.12c-.06.05-.14.04-.21.04-.38,0-.76,0-1.13.09-.15.04-.3,0-.45.05-.04.01-.08-.01-.1-.05.25-.09.5-.1.76-.12.38-.04.76-.04,1.14,0Z"/>
        <path class="cls-33" d="M14.23,5.31s-.06.07-.12.05c-.29-.1-.6-.04-.89-.11-.03,0-.06-.01-.09-.02-.02,0-.05-.03-.02-.05.02-.01.04-.02.06-.03.36,0,.71.07,1.05.16Z"/>
        <path class="cls-33" d="M15.1,5.56c-.2.06-.4.07-.59-.02-.08-.04-.17-.03-.26-.07.08-.11.19-.05.28-.07.2.02.39.08.57.16Z"/>
        <path class="cls-33" d="M10.77,5.3s.08,0,.06.04c-.03.04-.1.05-.15.06-.13.04-.25.09-.37.13-.12.05-.3.12-.44,0,.3-.11.6-.2.91-.25Z"/>
        <path class="cls-33" d="M16.71,6.33c-.12,0-.23.07-.35-.02-.1-.08-.18-.15-.18-.28.19.07.37.18.53.3Z"/>
        <path class="cls-47" d="M32.61,6.9c-.07.01-.15.06-.21-.04-.04-.06-.1-.1-.18-.08-.1.02-.1-.08-.15-.13-.04-.04-.07-.09,0-.14.17.14.38.22.53.39Z"/>
        <path class="cls-33" d="M18.07,7.39c-.09,0-.14-.07-.2-.13-.09-.08-.16-.18-.3-.17-.04,0-.08-.02-.07-.07.02-.08-.05-.11-.07-.17.25.13.46.31.63.54Z"/>
        <path class="cls-55" d="M13.4,27.77c.07-.08.09,0,.13.03.11.08.16.22.32.24.04.03.08.05.1.1.03.08.13.12.14.22-.24-.19-.48-.37-.68-.59Z"/>
        <path class="cls-33" d="M18.75,8.12c-.25-.07-.33-.29-.44-.49.18.13.35.27.44.49Z"/>
        <path class="cls-33" d="M16.03,5.95c-.15.1-.22.08-.29-.12.11.02.2.07.29.12Z"/>
        <path class="cls-55" d="M13.16,27.46s.03.06.04.05c.18-.02.13.09.1.19-.12-.08-.21-.18-.3-.29.06,0,.11.02.16.05Z"/>
        <path class="cls-33" d="M6.9,20.85s.03-.02.04-.02c.05.02.12-.05.14.02.03.07-.02.11-.08.15-.05-.04-.08-.09-.1-.15Z"/>
        <path class="cls-47" d="M32.84,7.1s-.06,0-.1,0c-.02-.09-.16-.09-.14-.2.1.04.19.1.24.2Z"/>
        <path class="cls-33" d="M15.45,5.69s-.02.09-.06.08c-.05-.02-.13-.04-.08-.13.05,0,.1.02.14.05Z"/>
        <path class="cls-33" d="M17.39,6.81c-.1,0-.16-.07-.19-.16.08.04.16.06.19.16Z"/>
        <path class="cls-47" d="M35.67,14.99c0-.09-.04-.18.04-.26,0,.09,0,.18-.04.26Z"/>
        <path class="cls-33" d="M15.69,5.8c-.09.07-.13.04-.14-.06.06,0,.1.03.14.06Z"/>
        <path class="cls-55" d="M14.23,28.48c.1-.03.08.05.1.1-.06,0-.07-.06-.1-.1Z"/>
        <path class="cls-33" d="M18.94,8.32s-.05.04-.07.01c-.02-.03,0-.05.02-.07.03,0,.04.03.05.06Z"/>
        <path class="cls-33" d="M17,6.52c-.08.05-.07-.03-.09-.06.04,0,.07.03.09.06Z"/>
        <path class="cls-33" d="M16.86,6.42c-.08.05-.08-.02-.09-.06.04,0,.07.02.09.06Z"/>
        <path class="cls-47" d="M35.62,15.28c0-.05-.02-.11.03-.16,0,.06,0,.11-.03.16Z"/>
        <path class="cls-42" d="M32.5,11.28c.09-.09.04-.2.06-.3.02-.01.02-.03.02-.05,0,0-.01,0-.02.01-.04-.02-.09-.04-.08-.08.04-.27-.09-.49-.16-.73-.02-.07-.04-.14-.06-.21.06-.15,0-.3,0-.46,0-.1-.03-.21.09-.27.03,0,.04-.03.05-.05.02-.05.05-.08.1-.1.16.04.16.2.24.29.1.28.22.55.34.82.17.39.26.81.38,1.22.14.65.18,1.31.23,1.97.1,1.31-.22,2.53-.73,3.71-.27.62-.57,1.23-.94,1.8-.45.71-.96,1.37-1.49,2.03-.23.28-.43.59-.69.84-.13.05-.22.13-.24.27-.17.19-.31.4-.5.57-.02.02-.04.03-.05.06,0,.02,0,.03,0,.05,0,0-.01.02-.02.02-.1.05-.12.21-.27.19.01-.18.13-.29.24-.4.17-.16.28-.36.39-.57-.04-.09.02-.13.07-.19,1.01-1.17,1.96-2.39,2.7-3.75.46-.88.84-1.78,1.05-2.75.15-.71.22-1.42.13-2.14-.01-.12-.01-.24-.01-.36,0-.04.02-.07.06-.09.03,0,.05.01.05.04,0,.04.01.07.02.11,0,.06.01.12.03.18,0,.08.03.15.02.22,0,.1,0,.21.02.31,0,.7-.09,1.39-.24,2.06-.08.18-.11.37-.15.55-.09.21-.12.44-.19.55.04-.11.11-.32.17-.53.07-.18.08-.37.16-.55.16-.6.23-1.21.25-1.83.01-.35-.03-.71-.09-1.05-.15-.47-.15-.96-.29-1.43-.09-.29-.15-.58-.19-.73.15.52.16,1.21.36,1.87-.03.79.11,1.58-.04,2.37-.13.7-.32,1.38-.59,2.04-.16.39-.33.77-.53,1.14-.76,1.38-1.72,2.62-2.74,3.81-.34.4-.69.79-1.04,1.19-.38.39-.74.8-1.14,1.17-.04.06-.09.11-.16.06-.08-.06-.01-.15,0-.22-.05-.04-.08.03-.13,0,.12-.19.31-.31.44-.48,0-.04,0-.05-.02-.05-.07-.02-.17.02-.19-.06-.02-.08.07-.11.12-.17.04-.05.09-.09.14-.14.04-.05.1-.08.04-.16-.04-.05,0-.09.07-.09.12,0,.18-.03.18-.19,0-.1.13-.21.22-.3.29-.31.59-.61.9-.91.05-.05.14-.07.21-.11.05.11-.06.16-.11.22-.1.11-.22.22-.32.33.92-1,1.77-2.05,2.5-3.2.6-.95,1.11-1.95,1.44-3.03.12-.4.18-.82.26-1.23.02-.84.03-1.67-.16-2.49-.02-.1.02-.21-.03-.31-.05-.12-.03-.25-.03-.37,0,.13-.04.27.04.39,0,.37.1.72.14,1.07.05.45.03.9.04,1.35-.03.81-.22,1.58-.53,2.32-.56,1.39-1.35,2.66-2.28,3.83-.23.28-.45.57-.68.85-.08.1-.16.23-.3.26,0-.1.06-.2.04-.31,0-.2.17-.33.28-.46.8-1,1.55-2.02,2.11-3.17.15-.3.28-.62.41-.93.21-.57.48-1.13.58-1.73.09-.53.12-1.07.12-1.61,0-.55-.08-1.09-.14-1.63,0-.06,0-.11.04-.16Z"/>
        <path class="cls-12" d="M32.7,9.33c-.12-.05-.12-.19-.19-.28-.01-.05-.04-.09-.03-.14.02-.18-.05-.33-.16-.46-.03-.04-.05-.08-.05-.13.14.1.23.23.29.39.32.45.64.89.9,1.38.12.22.21.45.26.7.11.6.31,1.18.37,1.8.04.4.03.81.02,1.21-.03.94-.24,1.86-.44,2.54.13-.54.36-1.3.41-2.11.02-.33.03-.66.04-.99.02-.7-.13-1.38-.32-2.05-.02-.08-.1-.16,0-.24.1,0,.09.1.12.16.33.93.47,1.9.39,2.88-.1,1.28-.45,2.5-.99,3.66-.6,1.3-1.4,2.46-2.29,3.57-.24.3-.49.6-.75.89-.15.15-.26.34-.44.47-.09.01-.13.08-.18.15-.01.02-.03.03-.04.04-.06-.02-.13-.04-.07-.13.02-.03.04-.05,0-.08,0-.14.15-.18.19-.3h0c.72-.8,1.37-1.66,2-2.54.74-1.04,1.36-2.15,1.74-3.38.59-1.99.6-3.96-.08-5.93-.03-.01-.01-.01,0,0,.67,1.94.67,3.89.1,5.84,0,.02-.01.03-.01.05-.34,1.12-.89,2.13-1.53,3.1-.04.06-.06.16-.17.15-.02-.04-.05-.08-.09-.1.02-.24.2-.39.31-.58.72-1.17,1.28-2.39,1.56-3.74.11-.55.16-1.1.11-1.66-.03-.31-.01-.63-.04-.94-.04-.41-.13-.81-.2-1.21-.15-.7-.45-1.34-.73-1.99Z"/>
        <path class="cls-11" d="M8.45,20.56c0,.14.18.2.18.4-.21-.21-.33-.44-.47-.65.01-.02.02-.05.05-.06.02,0,.03,0,.04.02h0s.06.1.1.15h0s.06.1.1.15h0Z"/>
        <path class="cls-28" d="M8.21,20.27s-.03.03-.05.04c-.05-.11-.19-.15-.2-.28-.04-.1-.14-.17-.14-.29.18.04.19.23.29.35h0c.03.06.13.09.1.19Z"/>
        <path class="cls-47" d="M32.74,7.1s0,.02,0,.02c-.01.05.03.12-.05.14,0,0-.03-.02-.03-.03-.02-.08,0-.13.08-.14Z"/>
        <path class="cls-12" d="M32.41,9.14s.04.06,0,.08c-.02.01-.04-.01-.05-.03.02-.02.03-.03.05-.05Z"/>
        <path class="cls-42" d="M31.19,15.45c.05.04.1.07.15.11.07.18-.05.33-.11.48-.5,1.21-1.2,2.3-2.01,3.33,0,.02-.04.03-.04.06,0-.02.02-.04.03-.06.85-1.07,1.58-2.22,2.09-3.49.03-.07.01-.17.12-.19.05.01.1.07.14.16.02.27-.12.49-.23.71-.51,1.09-1.18,2.07-1.91,3.02-.24.31-.5.61-.75.91-.03.05-.07.1-.11.14.05-.04.08-.1.12-.15.99-1.16,1.89-2.38,2.57-3.74.31-.63.49-1.3.65-1.97.18-.76.18-1.53.12-2.31,0-.06-.01-.11.04-.15.08-.07.03-.17.05-.25.02-.14-.09-.3.04-.44.03-.04,0-.12-.02-.19-.05-.24-.08-.48-.1-.73.12.29.18.59.21.9,0,.14,0,.27.03.4.04.49.11.98.07,1.47-.04.5-.09,1-.2,1.5-.15.73-.44,1.4-.74,2.07-.12.26-.27.49-.39.75-.58.98-1.25,1.91-1.98,2.78-.09.11-.19.22-.33.28-.09-.08-.13.02-.17.06-.11.13-.21.26-.31.39q-.12-.18-.06-.25s.06,0,.08-.02c.06-.03.08-.08.08-.14,0-.02.02-.04.03-.05-.02-.06-.04-.12-.05-.19,0-.08-.07-.17.06-.22.04-.02.04-.12.05-.18,0-.04-.07-.07-.03-.13.04-.05.08-.02.12,0,.04.01.16-.15.13-.19-.09-.15.04-.29,0-.44-.01-.04.02-.08.06-.09.13-.05.25-.1.17-.29-.02-.05.05-.11.09-.16.05-.06.1-.11.02-.18-.01-.02-.02-.05,0-.07.27-.41.52-.83.8-1.23.01-.02.04-.02.07-.02.06.04.1.12.19.1-.09.31-.3.55-.47.81-.12.15-.22.33-.34.48-.02.03,0,0-.01.02,0,0,0-.01.01-.02.12-.15.22-.33.34-.48.56-.83,1.04-1.7,1.4-2.63.04-.1.05-.24.19-.29Z"/>
        <path class="cls-42" d="M32.16,15.16s0,.09.04.06c.07-.06.07.03.1.04.03.29-.16.53-.23.79-.03.13-.1.25-.15.38-.44,1.1-1.02,2.13-1.74,3.08-.42.55-.81,1.12-1.29,1.62-.03.04-.06.08-.08.12-.02.04-.05.06-.08.08-.17.17-.31.37-.52.49-.08,0-.12.08-.2.12,0-.09.05-.12.09-.16.24-.25.51-.47.71-.76.05-.07.09-.13.14-.2.02-.03,0-.06-.03-.08.06-.22.24-.36.37-.52.63-.76,1.2-1.57,1.71-2.42.45-.83.85-1.67,1.1-2.58.01-.04.03-.08.08-.07Z"/>
        <path class="cls-1" d="M30.21,22.11c.51-.63,1.03-1.25,1.5-1.9.76-1.04,1.38-2.16,1.87-3.36.35-.88.55-1.79.64-2.72.11-1.09-.03-2.16-.41-3.19-.03-.05-.04-.09.04-.09.47,1.19.59,2.42.42,3.68-.03.08-.03.16-.03.24.04.13.03.25-.07.35-.07.27-.13.53-.2.8-.29,1.11-.78,2.14-1.36,3.12-.67,1.13-1.49,2.14-2.36,3.13-.04,0-.07,0-.05-.05Z"/>
        <path class="cls-85" d="M33.47,11.29c.05.24.11.49.15.73.06.36.09.72.09,1.08,0,.49.02.99-.03,1.48-.08.75-.28,1.47-.56,2.17-.37.92-.84,1.78-1.38,2.61-.02.03-.03.06-.05.08-.49.72-1.05,1.39-1.59,2.06-.33.41-.68.8-1.05,1.17-.01,0-.03-.02-.04-.03,0-.04.02-.07.05-.1.21-.17.36-.39.53-.58.04-.1.1-.19.2-.23.31-.3.55-.66.82-.99.49-.61.95-1.25,1.37-1.92.74-1.18,1.3-2.44,1.58-3.81.1-.51.14-1.02.09-1.54-.04-.34-.03-.68-.06-1.02-.03-.25-.05-.5-.11-.74-.03-.11-.04-.22-.05-.33,0-.05-.04-.1.05-.1Z"/>
        <path class="cls-88" d="M33.48,16.39c-.29,1.05-.82,1.99-1.41,2.89-.63.98-1.36,1.89-2.12,2.77-.07.08-.12.18-.23.21,0-.1.07-.14.12-.2.64-.73,1.21-1.51,1.78-2.3.05-.07.1-.15.14-.22.15-.16.25-.35.37-.54.34-.56.65-1.13.93-1.73.12-.26.21-.52.29-.79.02-.05.03-.11.06-.15.05,0,.07,0,.05.06Z"/>
        <path class="cls-24" d="M28.36,22.94c.54-.63,1.11-1.24,1.63-1.89.76-.96,1.5-1.94,2.1-3.02,0-.01.02-.03.03-.04.04,0,.07,0,.05.05-.34.69-.77,1.33-1.23,1.93-.47.61-.92,1.22-1.44,1.79-.05.05-.06.11-.1.16-.24.19-.41.46-.62.67-.13.13-.24.26-.36.39-.04,0-.06,0-.05-.05Z"/>
        <path class="cls-43" d="M29.87,17.45c-.2.25-.34.53-.52.79-.12.17-.23.35-.34.53,0,0,0,0,0,0-.04.01-.06,0-.06-.05,0-.03.02-.06.02-.1.09-.06.14-.15.2-.24.41-.68.87-1.34,1.21-2.07.33-.71.58-1.45.71-2.23.01-.07,0-.14.01-.22.04-.06,0-.14.04-.2,0-.06,0-.13.01-.19.05-.06,0-.14.04-.2.01-.01.02-.03.03-.04.08.09.04.19.03.29,0,.09,0,.18-.01.28-.03.07,0,.14-.03.21-.02.14-.08.28-.07.42-.03.05,0,.11-.03.16-.14.44-.27.89-.45,1.32-.21.5-.47.97-.74,1.44-.02.03-.03.07-.05.11Z"/>
        <path class="cls-81" d="M28.81,21.26c-.01-.09.05-.13.1-.18.84-1.01,1.65-2.04,2.27-3.2.25-.47.47-.96.69-1.44.05,0,.07,0,.05.06-.38,1-.91,1.91-1.52,2.78-.42.59-.88,1.14-1.31,1.71-.1.09-.19.18-.29.27Z"/>
        <path class="cls-40" d="M31,17.84c-.33.64-.75,1.22-1.19,1.78-.29.38-.6.75-.91,1.13-.23.25-.46.51-.68.76-.01-.01-.02-.02-.04-.03.18-.21.35-.42.53-.64.47-.54.91-1.1,1.33-1.68.32-.44.61-.91.9-1.37.04,0,.07,0,.05.05Z"/>
        <path class="cls-9" d="M30.21,22.11s.03.04.05.05c-.33.43-.72.81-1.09,1.2-.59.62-1.2,1.23-1.82,1.81-.04.02-.05,0-.04-.04.7-.69,1.39-1.38,2.06-2.1.08-.09.18-.17.23-.28,0,0,0,0,0,0,.04-.09.1-.16.19-.19.17-.13.26-.32.43-.45Z"/>
        <path class="cls-48" d="M28.71,23.44c-.05.11-.13.18-.21.26-.47.47-.95.95-1.42,1.42-.04.04-.06.1-.13.09-.01-.06.04-.08.07-.11.54-.54,1.09-1.07,1.61-1.64.03-.03.06-.05.09-.07.02.02.02.04,0,.07Z"/>
        <path class="cls-47" d="M34.18,15.13c.01-.12.02-.24.07-.35.12,0,.08.12.12.18.05.07.08.13.01.21-.05.05-.03.12-.03.18,0,.09,0,.18,0,.26,0,.06.03.15-.06.16-.07,0-.12-.07-.13-.15,0-.05,0-.11.02-.14.11-.12.04-.24,0-.36Z"/>
        <path class="cls-58" d="M28.51,23.28c-.25.31-.54.57-.82.85-.22.22-.43.45-.68.65-.05-.05,0-.07.01-.08.45-.46.92-.91,1.35-1.39.03-.03.06-.05.09-.08.02,0,.04.02.04.04Z"/>
        <path class="cls-52" d="M28.36,22.94s.03.03.05.05c-.33.4-.72.75-1.09,1.11-.02.01-.04.02-.07.02.1-.19.27-.31.41-.46.23-.24.44-.5.7-.72Z"/>
        <path class="cls-87" d="M27.31,25.14s.03.03.04.04c-.26.24-.51.49-.77.72-.13.12-.26.23-.42.37.09-.18.76-.83,1.15-1.14Z"/>
        <path class="cls-88" d="M29.73,22.26c0,.14-.16.18-.19.3-.17.15-.29.36-.48.49l-.02-.02c.2-.28.41-.56.69-.77Z"/>
        <path class="cls-42" d="M28.06,22.05c-.09.2-.28.31-.44.51.04-.16.29-.45.44-.51Z"/>
        <path class="cls-85" d="M28.51,23.28s-.03-.03-.04-.04c.1-.11.19-.23.29-.34.1-.04.13-.19.27-.19-.15.21-.35.38-.52.58Z"/>
        <path class="cls-81" d="M28.2,21.83c.13-.13.25-.26.38-.38.04-.04.07-.11.14-.11-.12.23-.33.38-.52.55,0,0-.02,0-.01-.01,0-.02,0-.03,0-.05Z"/>
        <path class="cls-88" d="M28.71,23.44s0-.05,0-.07c.11-.12.2-.26.33-.35,0,0,.02.02.02.02-.08.16-.23.27-.35.4Z"/>
        <path class="cls-22" d="M28.21,21.09s-.03-.03-.04-.04c.07-.07.07-.2.2-.2,0,.02,0,.04,0,.06,0,.11-.09.14-.17.18Z"/>
        <path class="cls-42" d="M28.95,18.72s.03.05.06.05c-.03.05-.06.1-.13.12,0-.07.03-.12.07-.17Z"/>
        <path class="cls-41" d="M14.57,6.96c-.08.1-.16-.01-.24,0-.23.06-.46.13-.68-.01.02-.1.09-.06.16-.04-1.07,0-2.09.11-3.06.56-.32.18-.66.32-.95.54-.87.59-1.59,1.33-2.18,2.2-.07.1-.11.22-.24.26-.06,0-.07-.05-.08-.1.04-.2.17-.34.28-.5.43-.6.9-1.17,1.48-1.64.56-.46,1.16-.85,1.84-1.1.67-.28,1.37-.44,2.1-.39.03,0-.02-.05,0-.02-.5.02-1.01.03-1.49.2-.05.01-.1,0-.15-.01-.14-.06-.27.01-.4.05-.75.21-1.4.61-2.01,1.07-.81.6-1.44,1.35-1.95,2.22-.7,1.2-.92,2.5-.86,3.87,0,.16.06.32.05.48.02.24.08.47.13.7.02.08.06.17.01.25-.02.02-.04.03-.07.03-.11-.03-.11-.13-.14-.21-.29-1.06-.31-2.14-.08-3.21.25-1.16.75-2.19,1.5-3.11.37-.46.82-.85,1.3-1.19.06-.04.12-.08.17-.12.04-.03.09-.06.12-.08,0,0,0,0,0,0-.04.03-.08.05-.12.08-.06.04-.11.07-.16.11-1.4.96-2.24,2.32-2.72,3.92-.05.18-.1.36-.12.54,0,.08-.03.14-.09.19-.03,0-.05,0-.07-.01-.09-.15,0-.3.03-.45.3-1.35.91-2.55,1.9-3.53.83-.82,1.82-1.38,2.95-1.7.08-.02.16-.04.23-.08.91-.21,1.82-.28,2.74-.09.09.02.19,0,.28.06.1.1.24.1.37.13.08.02.18.02.21.12Z"/>
        <path class="cls-33" d="M7.82,15.8c0,.07.02.14-.05.19-.17-.07-.12-.23-.16-.36-.03-.11,0-.22-.04-.33-.02-.11-.01-.23-.02-.34,0-.19,0-.39,0-.58-.05-1.79.6-3.32,1.75-4.66.14-.17.28-.34.45-.47.36-.32.76-.59,1.16-.85.11-.07.23-.14.36-.2.52-.24,1.05-.44,1.61-.56.09-.02.19-.05.28,0,.06.01.13.03.03.09-.08.06-.2.03-.28.11-.31.12-.63.22-.95.35-.32.13-.64.27-.92.47-.39.25-.78.5-1.1.83-.36.37-.7.75-1,1.19-.65.96-1.03,2.02-1.14,3.16-.06.6-.08,1.21.03,1.81.01.05.02.11-.02.16Z"/>
        <path class="cls-33" d="M8.17,14.82s0,.07-.05.08c-.04,0-.05-.02-.05-.06,0-.2,0-.4,0-.6-.08-.08-.07-.18-.05-.27.1-.6.24-1.18.48-1.74.1-.21.3-.38.27-.65.07-.25.24-.45.38-.67.52-.82,1.16-1.53,1.98-2.05.32-.21.66-.37,1-.53.11-.05.23-.14.36-.06.09-.01.16-.1.29-.07-.17.18-.4.22-.57.37-.5.28-1.01.54-1.44.92-.68.58-1.25,1.26-1.64,2.07-.47.97-.86,1.96-.89,3.06,0,.07,0,.15-.06.2Z"/>
        <path class="cls-95" d="M10.92,6.8c-.58.16-1.13.38-1.66.67-.99.55-1.8,1.3-2.4,2.27-.47.75-.79,1.57-.96,2.44-.02.1-.03.21-.04.31.04.2.01.39,0,.59-.03.33-.04.65,0,.98.11,1.22.42,2.39.92,3.51.03.07.06.15.05.23-.01.04-.03.08-.08.07-.48-1.04-.84-2.11-.99-3.25-.05-.36-.08-.72-.08-1.09,0-1.04.22-2.04.65-2.98.64-1.42,1.66-2.49,3.03-3.22.48-.25.97-.47,1.51-.58.04-.01.06,0,.05.05Z"/>
        <path class="cls-33" d="M12.09,8.65c.06.03.11.05.18.08-.15.09-.28.17-.42.25-.01.04-.04.08-.07.11-.02.02-.03.03-.05.04-.33.16-.62.39-.9.64-.47.36-.83.81-1.16,1.28-.47.67-.68,1.44-.86,2.22-.08.36-.14.72-.07,1.1.03.17-.02.35-.04.53-.02.04.02.11-.04.12-.08.01-.1-.07-.15-.11-.15-.32-.09-.67-.05-1,.05-.49.21-.96.34-1.44.03-.12.1-.23.17-.33-.03.03-.05.07-.1.03-.05-.07-.01-.14.02-.21.44-.98,1.04-1.83,1.87-2.53.36-.29.75-.54,1.16-.76.05-.03.1-.09.17-.04Z"/>
        <path class="cls-97" d="M7.77,17.4c-.06.04-.05.1-.05.15-.01,0-.02,0-.03.01-.02,0-.04-.02-.05-.04-.03-.09-.05-.17-.1-.26,0-.02-.02-.05-.02-.07-.08-.33-.17-.66-.25-.99-.11-.35-.11-.71-.15-1.07-.03-.23-.05-.46-.08-.69-.02-.07-.02-.14-.02-.2,0-.08,0-.16,0-.24.09-.64.15-1.28.34-1.9.28-.92.76-1.73,1.36-2.47.06-.08.14-.16.25-.17.04.01.07.04.08.08-.02.14-.12.23-.19.33-.59.78-1.07,1.61-1.31,2.56-.11.44-.19.88-.2,1.33,0,.48,0,.96,0,1.45.06.58.21,1.14.36,1.69.04.16.15.31.06.48Z"/>
        <path class="cls-32" d="M8.55,12.2c-.2.54-.38,1.1-.46,1.67-.02.12-.04.24-.03.36-.06.33-.06.66,0,.99.08.17.07.34.06.52-.13-.13-.12-.3-.15-.46-.02-.09,0-.19-.04-.28-.14-.2-.08-.43-.07-.65.01-.18.03-.36.05-.54.08-.33.19-.66.24-.99.04-.29.08-.57.19-.84.31-.71.69-1.37,1.21-1.95.39-.45.86-.82,1.34-1.16.05-.04.11-.07.18-.06.04,0,.07.03.06.07-.85.58-1.54,1.33-2.07,2.22-.09.15-.19.3-.28.45,0,.13-.09.24-.15.35-.05.09-.1.18-.09.29Z"/>
        <path class="cls-33" d="M11.85,9.08c0,.09.04.17.07.25.01.04.01.11-.07.05-.08-.03-.1.07-.16.08-.64.47-1.22,1.01-1.67,1.67-.02.03-.06.06-.09.07-.27.27-.45.59-.58.93-.13.33-.24.67-.3,1.02-.01.07-.02.15-.11.17-.04.32-.21.63-.11.97.03.12-.03.23-.08.34-.11-.53-.04-1.05.09-1.57.28-1.16.79-2.19,1.67-3.02.11-.1.22-.19.32-.29.29-.24.59-.48.93-.67h0s.06-.03.1,0Z"/>
        <path class="cls-89" d="M7.77,17.4c-.05-.34-.2-.66-.26-.99-.06-.34-.15-.67-.22-1.01-.01-.06,0-.13,0-.19.04-.13.02-.26.02-.38,0-.72.02-1.43.16-2.13.15-.71.46-1.35.81-1.98.03-.06.08-.11.14-.12.06.02.08.07.1.12-.06.28-.24.5-.37.75-.36.7-.54,1.45-.59,2.23-.03.54,0,1.09.05,1.64,0,.09.03.18-.01.26q-.1-.04-.12-.19c.14.75.32,1.49.54,2.23,0,.04,0,.08,0,.11.02.1.04.19.06.29-.02.02-.03.02-.05,0-.1-.2-.13-.43-.24-.63Z"/>
        <path class="cls-63" d="M7.82,15.8c-.04-.33-.1-.65-.11-.99-.04-1.07.15-2.09.58-3.07.47-1.07,1.16-1.97,2.07-2.7.21-.17.44-.3.66-.45.05-.01.06.01.07.05-.14.23-.4.31-.59.48-.32.29-.65.58-.92.92-.82.97-1.43,2.05-1.59,3.33-.08.52-.17,1.03-.12,1.56,0,.08.02.16-.04.23-.05.21.06.42.04.63h0s-.03,0-.05,0Z"/>
        <path class="cls-33" d="M8.5,10.69s-.04-.06-.05-.1c-.04-.12.05-.2.1-.28.48-.7,1.05-1.3,1.74-1.8.12-.09.24-.19.38-.26.39-.19.77-.42,1.2-.55.49-.15.99-.29,1.5-.33.08,0,.16-.03.23.01,0,.07-.04.1-.11.1-.06,0-.13-.02-.18.05-.7.19-1.4.36-2.05.69-.53.29-1.04.61-1.47,1.03-.42.37-.77.81-1.11,1.26-.05.07-.08.16-.18.18Z"/>
        <path class="cls-33" d="M12.62,7.19s.08.02.04.04c-.12.05-.25.07-.37.11-.32.2-.7.23-1.03.4-.37.18-.73.36-1.07.6-.69.45-1.29.99-1.77,1.67-.05.08-.1.17-.21.18-.04,0-.06-.03-.08-.07-.02-.07,0-.13.05-.18.3-.43.6-.86,1.03-1.18.71-.62,1.48-1.13,2.38-1.42.24-.08.49-.13.74-.17.1-.02.2-.05.29.04Z"/>
        <path class="cls-33" d="M7.96,19.2c-.13-.05-.15-.2-.24-.29-.12-.05-.16-.16-.2-.26-.35-.73-.62-1.49-.89-2.25-.19-.65-.28-1.32-.35-2-.04-.42,0-.82.02-1.23,0-.12,0-.33.13-.32.13.01.1.22.08.34-.1,1.01.05,1.98.34,2.94.06.21.12.42.19.63.16.63.4,1.23.7,1.81.04.09.09.17.12.26,0,.13.16.22.1.37Z"/>
        <path class="cls-75" d="M10.78,9.48c-.55.5-1.05,1.05-1.41,1.7-.18.32-.35.64-.48.97-.03.28-.19.51-.24.78-.19.61-.35,1.22-.32,1.87,0,.07-.03.14-.05.21-.02.05,0,.1.02.15.06.06.06.13,0,.2.03.01-.02,0-.01.02,0,.02-.02.03-.03,0-.04-.19-.07-.39-.1-.58.01-1.6.61-3,1.51-4.29.29-.42.67-.76,1.06-1.1.05-.01.06,0,.05.05Z"/>
        <path class="cls-33" d="M13.65,6.91c.1.08.21.04.32.04.12,0,.24,0,.36,0-.03.15-.16.07-.24.09-.17.05-.33.02-.5.02-.69,0-1.36.08-2.01.27-.68.26-1.33.59-1.91,1.04-.06.04-.11.09-.19.1-.05,0-.1,0-.12-.06.07-.23.3-.29.45-.44.32-.21.67-.38,1-.57.85-.37,1.74-.55,2.66-.54.06,0,.13-.02.18.03Z"/>
        <path class="cls-33" d="M9.47,13.07c0,.12-.08.16-.19.15-.08-.08-.04-.17-.02-.25.17-.85.54-1.62,1.08-2.3.17-.22.36-.41.56-.6.09-.09.18-.19.32-.21.01.11-.12.17-.09.29-.04.18-.2.28-.32.41-.06.07-.11.13-.17.2-.11.1-.18.23-.26.34-.05.08-.13.13-.17.21-.38.44-.48,1-.65,1.52-.03.08-.03.16-.08.23Z"/>
        <path class="cls-97" d="M7.96,19.2c0-.14-.14-.21-.14-.34.01-.02.03-.03.04-.05-.03-.21-.16-.38-.26-.56-.06-.04-.08-.09-.08-.16.01-.03.04-.05.06-.07.04-.07-.01-.12-.03-.17,0-.02-.02-.04-.02-.07-.16-.47-.31-.93-.43-1.41-.04-.17-.12-.34-.09-.52.03-.08.04-.17.04-.26,0-.07,0-.16.11-.14.06.12.04.27.07.4.02.06,0,.12.03.17.01.03.02.06.03.1,0,.05,0,.11.04.16,0,.02.01.04.01.07.04.31.18.6.25.91h0c.05.09.06.19.1.29h0c.04.06.03.15.1.19.14.3.28.6.4.93-.11.01-.1-.09-.16-.1-.08-.1-.15-.2-.15-.31-.04.12.13.22.1.36.06.12.11.23.17.35-.06.07-.1-.04-.16,0,.06.13.13.25.19.38.02.05.07.1,0,.15-.05-.01-.07-.06-.1-.1h0c-.05-.06-.06-.13-.1-.19h0Z"/>
        <path class="cls-33" d="M6.81,17.83c-.41-.95-.74-1.92-.91-2.94-.04-.26-.08-.52-.08-.79-.01-.09-.08-.19.05-.26.12.17.07.38.09.56.08.71.32,1.38.51,2.06.23.74.55,1.45.91,2.14.05.11.13.21.11.34.15.31.34.6.52.89.05.08.1.14.1.24-.14-.08-.15-.26-.29-.35,0,0,0,0,0,0-.32-.5-.62-1.01-.87-1.55-.06-.11-.12-.23-.13-.36Z"/>
        <path class="cls-33" d="M9.02,9.53l-.05-.07c.07-.3.33-.44.53-.63.21-.19.45-.35.69-.52.56-.37,1.16-.68,1.81-.86.07-.02.15-.07.23-.02.13.02.25-.03.37-.06.14-.04.28-.02.42-.06.03,0,.04.04.05.07-.42.15-.86.21-1.29.36-.38.17-.77.32-1.12.54-.48.33-.97.66-1.37,1.1-.07.08-.14.16-.26.15Z"/>
        <path class="cls-83" d="M10.88,9.77c-.56.51-1.07,1.06-1.41,1.74-.49.98-.81,2.01-.71,3.12-.03.09.02.2-.05.28,0-.22-.02-.44-.03-.65-.03-.43.04-.85.14-1.27.12-.48.31-.93.47-1.4.02-.06.05-.12.09-.17.4-.64.86-1.23,1.47-1.69.04-.01.05,0,.04.05Z"/>
        <path class="cls-33" d="M9.56,10.01c.41-.55.93-.99,1.51-1.35.22-.23.52-.35.8-.45.21-.08.4-.24.65-.18.03.01.07.02.08.04.02.03-.02.05-.05.06-.03.01-.05.03-.07.05-.48.21-.94.45-1.41.68-.55.33-1.01.77-1.47,1.21-.04,0-.07,0-.05-.05Z"/>
        <path class="cls-33" d="M6.25,15.56s.04,0,.06,0c.13,0,.1.12.15.18.09.26.12.53.23.78.24.72.51,1.44.85,2.12.04.08.13.15.08.26-.03.06-.06.02-.1,0-.18-.18-.25-.43-.36-.65-.29-.6-.53-1.22-.75-1.85-.07-.22-.13-.45-.19-.67-.02-.07-.03-.13.01-.18Z"/>
        <path class="cls-45" d="M11.22,9.87c-.47.35-.85.79-1.16,1.29-.37.6-.63,1.25-.77,1.95,0,.04,0,.08,0,.12-.04.11-.05.23-.07.38-.06-.11-.02-.2-.04-.28-.08-.1-.04-.2-.02-.3.1-.58.33-1.11.6-1.63.05-.07.05-.17.15-.2.32-.45.65-.9,1.09-1.25.23-.19.44-.4.72-.52,0,0,.02.02.02.02,0,.02,0,.03-.01.04-.03,0-.04.02-.05.04-.13.13-.28.25-.44.34h0Z"/>
        <path class="cls-69" d="M10.92,6.8s-.03-.03-.05-.05c0-.01,0-.03,0-.04.32-.15.66-.18,1.01-.16.07.01.14,0,.2-.04.5-.04,1.01-.06,1.5.05.07.01.13.05.2.04.05-.02.09-.03.14.01.06.05.13.05.2.04.18-.03.32.06.48.12.03.05.11.05.1.13-.25,0-.49-.05-.73-.14-.12-.07-.26-.07-.4-.08-.89-.11-1.77-.08-2.65.13,0,0-.02,0-.02,0Z"/>
        <path class="cls-7" d="M8.6,12.9c.05-.27.16-.51.28-.74.01.02.03.03.05,0,.04-.06.04-.14.12-.18.02.07-.03.12-.06.17-.16.26-.18.56-.27.84-.2.63-.28,1.27-.22,1.93,0,.09-.03.17.03.25.05.08.04.15,0,.23-.09-.17-.07-.37-.14-.54-.14-.2-.07-.42-.07-.63.01-.37.11-.73.21-1.08.03-.08.05-.17.05-.26Z"/>
        <path class="cls-57" d="M9.9,11.2c-.03.05-.06.1-.09.15-.38.66-.64,1.36-.74,2.12,0,.03-.02.06-.05.08-.06.15-.02.31-.04.47,0,.09.03.19-.05.27-.04-.05-.03-.09,0-.14,0-.28,0-.55,0-.83.09-.39.2-.78.33-1.16.13-.38.37-.7.59-1.02.04-.05.03.04.04.06Z"/>
        <path class="cls-33" d="M9.03,13.55c-.01-.16.02-.31.06-.45.16-.62.34-1.22.73-1.74,0,.11-.07.19-.12.29-.27.53-.45,1.09-.53,1.68-.06.07-.03.15-.04.23,0,.06.02.13-.06.17-.06-.05-.02-.11-.04-.17Z"/>
        <path class="cls-33" d="M8.6,12.9c.07.05.02.12,0,.17-.19.59-.25,1.19-.2,1.8,0,.09-.07.11-.13.15-.05-.49,0-.96.12-1.43.06-.23.14-.46.21-.69Z"/>
        <path class="cls-89" d="M7.63,15.31c.09.18.03.39.09.58.01.04.01.08.05.11.01.08-.02.17.05.24.08.12.06.26.09.39.03.29.14.55.22.83.04.14.11.28.12.43-.02.02-.03.02-.05,0-.02-.05-.03-.1-.05-.14-.07-.06-.11-.13-.15-.22-.21-.56-.35-1.13-.47-1.71-.01-.06-.01-.11.01-.16.11-.09,0-.24.08-.34Z"/>
        <path class="cls-54" d="M12.23,7.44c-.64.16-1.23.44-1.78.78-.08.05-.17.09-.25.14-.02-.01-.05-.02-.05-.05.14-.17.35-.23.52-.34.51-.29,1.05-.5,1.62-.63.05.07-.06.05-.06.1Z"/>
        <path class="cls-86" d="M7.63,18.9c-.04-.1-.08-.19-.13-.29-.33-.62-.57-1.29-.82-1.94-.02-.04-.04-.09-.03-.14.03-.03,0-.08.05-.1.12.31.24.62.35.92.2.53.39,1.06.67,1.56-.04.05-.07,0-.1,0Z"/>
        <path class="cls-79" d="M6.46,16.43c.16.29.23.62.36.92.21.53.44,1.06.71,1.56-.02.01-.03.03-.05.04-.41-.77-.77-1.56-1.05-2.38,0-.02,0-.03,0-.05.03-.03,0-.08.05-.1Z"/>
        <path class="cls-33" d="M7.82,15.17c-.07-.53-.02-1.06.06-1.58.01-.09.03-.17.04-.26.17.13.03.29.04.44-.02.41-.06.83-.05,1.24,0,.08,0,.17-.01.25-.06,0-.04-.08-.09-.09Z"/>
        <path class="cls-90" d="M11.22,8.21c.22-.16.48-.23.72-.32.44-.17.9-.29,1.37-.35.02.03.01.04-.02.05-.05,0-.1,0-.13.05-.27.07-.55.13-.81.22-.36.12-.72.27-1.08.41-.02-.01-.05-.02-.05-.05Z"/>
        <path class="cls-44" d="M11.51,7.35c.28-.16.59-.2.9-.24.55-.08,1.11-.05,1.67-.05-.06.07-.13.04-.2.04-.22,0-.44,0-.66,0-.07,0-.15-.02-.21.04-.05.03-.09.03-.14,0-.09,0-.18-.03-.25.04-.28,0-.54.08-.8.14-.09.02-.16.07-.26.06-.02-.02-.05-.02-.05-.05Z"/>
        <path class="cls-39" d="M11.75,7.73c.09-.09.22-.11.33-.13.33-.08.65-.18.98-.21.05-.01.11-.04.16-.04.13,0,.27,0,.39-.08.05-.04.15-.03.27.01-.13.03-.25,0-.29.11-.35.02-.7.11-1.04.2-.24.06-.48.13-.72.19-.02-.03-.07,0-.09-.04Z"/>
        <path class="cls-28" d="M6.81,17.83c.09.12.14.25.2.38.23.46.47.91.74,1.35.03.05.07.11.07.18-.04-.01-.07-.04-.09-.08-.36-.57-.72-1.15-.98-1.78.02-.02.04-.03.06-.05Z"/>
        <path class="cls-34" d="M12.53,8.02c-.44.12-.87.29-1.26.54-.06.04-.13.06-.19.1-.02-.02-.03-.04-.05-.05.1-.13.25-.17.39-.24.48-.25.98-.43,1.51-.53,0,.01,0,.03,0,.04-.04.05-.08.08-.14.05-.09.02-.18.03-.25.1Z"/>
        <path class="cls-96" d="M9.47,13.07c.05-.48.2-.93.41-1.36.08-.16.19-.3.31-.43.02,0,.04.02.04.04-.07.12-.18.21-.23.34-.1.38-.22.76-.4,1.11-.07.08-.02.23-.14.28Z"/>
        <path class="cls-27" d="M10.78,9.48s-.03-.03-.05-.05c.18-.18.4-.32.61-.45.2-.12.39-.24.6-.34.08-.04.16-.08.25-.08-.04.03-.07.06-.11.1-.38.16-.71.4-1.03.64-.09.07-.17.14-.27.19Z"/>
        <path class="cls-19" d="M11.07,8.85c.37-.28.79-.46,1.23-.62.06-.02.12-.04.18-.06,0,.03,0,.06-.01.09-.38.08-.71.3-1.05.48-.1.05-.19.12-.3.16-.02-.02-.03-.03-.05-.05Z"/>
        <path class="cls-33" d="M9.62,12.79c.1-.39.2-.77.4-1.11.01.01.02.03.03.04.05.05.05.11.01.15-.13.19-.14.43-.26.63h0s0,.1-.04.14c-.07.03-.07.13-.15.15Z"/>
        <path class="cls-33" d="M13.6,6.56c-.5-.05-1-.05-1.5-.05.12-.09.24-.08.38-.07.29.03.58.02.87.02.1,0,.2-.02.25.09Z"/>
        <path class="cls-33" d="M11.89,6.55c-.34.01-.67.1-1.01.16-.03-.03-.02-.07,0-.07.33-.08.66-.19,1-.09Z"/>
        <path class="cls-94" d="M10.54,11.58s-.05-.03-.04-.05c.1-.22.2-.44.43-.63-.05.23-.2.37-.28.54,0,.08-.06.11-.11.15Z"/>
        <path class="cls-61" d="M10.59,10.75c.15-.22.35-.4.53-.59.02,0,.03,0,.05,0h.01c-.02.06-.04.1-.06.14-.05.11-.12.21-.24.25-.02.02-.03.03-.05.05-.05.07-.09.14-.18.17-.02,0-.04,0-.06-.02Z"/>
        <path class="cls-72" d="M9.81,12.5c.03-.21.11-.41.18-.61.02-.06.06-.11.06-.18.03-.02.06-.04.08-.06,0,.04,0,.07,0,.11-.03.08,0,.19-.1.24-.07.08-.09.19-.1.29,0,.04,0,.08-.04.1-.03.03-.06.07-.1.1Z"/>
        <path class="cls-33" d="M13.99,6.76c.25.03.49.08.73.14-.03.06-.09.05-.14.05-.14-.06-.3-.08-.45-.1-.07,0-.12-.02-.13-.1Z"/>
        <path class="cls-33" d="M8.22,16.79c-.13-.14-.17-.29-.11-.48.05.16.13.3.11.48Z"/>
        <path class="cls-33" d="M11.22,9.87c.12-.14.28-.25.44-.34,0,.11-.18.14-.13.29,0,.03-.06.06-.1.04-.08-.04-.14.03-.21.02Z"/>
        <path class="cls-33" d="M10.88,10.55c.06-.1.15-.18.24-.25,0,.02,0,.05,0,.07.02.08.04.16-.03.22-.08.07-.14-.03-.21-.04Z"/>
        <path class="cls-33" d="M7.91,16.63c-.08-.12-.09-.25-.09-.39,0-.05,0-.09,0-.14.1.17.14.34.09.53Z"/>
        <path class="cls-33" d="M8.12,15.75c-.05-.17-.08-.34-.06-.52.01-.03,0-.08.04-.11.02.22.13.42.02.64Z"/>
        <path class="cls-33" d="M7.82,19.3c.17.09.19.28.3.44-.15-.07-.25-.23-.3-.44h0Z"/>
        <path class="cls-33" d="M16.98,12.1c-.07,0-.1-.06-.09-.12,0-.06.05-.1.11-.1.07,0,.1.05.09.11,0,.06-.05.1-.11.11Z"/>
        <path class="cls-33" d="M14.61,14.1c0,.07-.05.11-.12.13-.05.01-.1-.03-.09-.08,0-.06.03-.13.11-.13.05,0,.09.03.1.09Z"/>
        <path class="cls-33" d="M7.97,18.62c-.05-.13-.17-.24-.13-.44.1.14.15.26.18.39-.02.02-.03.03-.05.05Z"/>
        <path class="cls-33" d="M8.31,15.36c-.02-.07-.02-.13,0-.2.06,0,.1.04.1.11,0,.12,0,.25,0,.4-.09-.11,0-.24-.09-.31Z"/>
        <path class="cls-97" d="M8.01,18.03s.03,0,.05,0c.1.09.11.22.15.36-.11-.1-.13-.13-.2-.36Z"/>
        <path class="cls-33" d="M14.62,6.77c-.17-.02-.32-.06-.48-.12.2-.11.33.03.48.12Z"/>
        <path class="cls-33" d="M8.24,16.25c-.03-.14-.06-.22-.07-.31,0-.02,0-.05.03-.05.01,0,.04.01.04.02.02.09.09.18,0,.34Z"/>
        <path class="cls-38" d="M10.59,10.75s.04,0,.06,0c0,.04,0,.07-.04.09-.08.1-.15.2-.23.29-.02,0-.03-.02-.04-.04.08-.11.16-.23.24-.34Z"/>
        <path class="cls-33" d="M10.05,12c0-.09.04-.17.1-.24.06.1.07.19-.04.26-.02.01-.04,0-.06-.02Z"/>
        <path class="cls-33" d="M12.77,7.93s.09-.03.14-.05c.04,0,.08,0,.12.03-.05.08-.14.08-.22.09-.03,0-.04-.05-.04-.08Z"/>
        <path class="cls-33" d="M8.06,19.4s.08.05.1.1c.03.06.06.13.1.21q-.13-.1-.2-.31Z"/>
        <path class="cls-97" d="M8.06,17.55c.06.05.09.12.09.2-.05,0-.1,0-.15,0-.01-.02-.03-.03-.04-.05.04-.05.01-.13.1-.15Z"/>
        <path class="cls-73" d="M10.35,11.09s.03.03.04.04c-.03.08-.1.13-.15.19-.01-.01-.03-.03-.04-.04.05-.06.1-.13.15-.19Z"/>
        <path class="cls-33" d="M10.62,10.84s.02-.06.04-.09c.06-.05.12-.1.17-.15-.02.12-.1.19-.21.24Z"/>
        <path class="cls-33" d="M8.33,16.49s-.06-.06-.07-.09c0-.02,0-.06.01-.06.04-.02.05.01.06.04.01.04.02.08,0,.11Z"/>
        <path class="cls-33" d="M10.54,11.58c.02-.06.07-.1.11-.15.02,0,.06.02.05.03-.04.05-.06.15-.16.12Z"/>
        <path class="cls-33" d="M8.54,15.41c0-.08,0-.15,0-.23.01,0,.04-.01.04,0,.03.08.02.16,0,.24,0,0-.01,0-.02,0,0,0-.01,0-.02-.01Z"/>
        <path class="cls-33" d="M9.81,12.64s.05-.05.07-.05c.04,0,.02.05.01.07-.02.04-.04.08-.09.06-.03-.02,0-.05,0-.08h0Z"/>
        <path class="cls-84" d="M7.77,17.74c-.11-.02-.09-.12-.1-.2.02,0,.03,0,.05,0,.02.06.04.13.05.19Z"/>
        <path class="cls-61" d="M11.17,10.16c.04-.05.08-.11.19-.13-.05.09-.1.13-.17.15,0,0-.01-.01-.01-.01Z"/>
        <path class="cls-33" d="M8.21,20.27c-.04-.06-.11-.11-.1-.19.08.04.14.09.15.19-.02,0-.03,0-.05,0Z"/>
        <path class="cls-33" d="M9.91,12.39s0-.07.04-.1c.04.02.06.05.03.1-.02.03-.05.04-.07,0Z"/>
        <path class="cls-33" d="M12.87,7.15s.1,0,.14,0c.02,0,.03,0,.05.01.01.01,0,.03-.01.03-.06,0-.13.02-.18-.04Z"/>
        <path class="cls-33" d="M7.96,19.2c.06.05.09.12.1.19-.09-.04-.1-.11-.1-.19Z"/>
        <path class="cls-97" d="M8.21,17.89s.03,0,.05,0c.04.02.06.06.04.1,0,0-.01.01-.02.01-.06-.02-.06-.07-.06-.11Z"/>
        <path class="cls-45" d="M11.71,9.43s.06-.14.14-.05c-.02,0-.04.02-.05.04-.03.05-.06.04-.09.01h0Z"/>
        <path class="cls-18" d="M11.85,9.08h-.1s.06-.07.1-.1c.06.03,0,.06,0,.1Z"/>
        <path class="cls-33" d="M12.16,9.01s-.03.03-.04.02c-.02-.01-.04-.03-.04-.05,0-.01.02-.03.04-.02.02.01.03.03.05.04Z"/>
        <path class="cls-33" d="M7.82,19.3s-.04-.02-.06-.04c-.02-.02-.05-.05,0-.07,0,0,.04.03.05.04.01.02.01.04.02.07,0,0,0,0,0,0Z"/>
        <path class="cls-33" d="M8.35,20.41c-.06-.03-.1-.07-.1-.14.06.03.1.07.1.14Z"/>
        <path class="cls-33" d="M8.45,20.56c-.06-.03-.1-.07-.1-.14.06.03.1.07.1.14Z"/>
        <path class="cls-33" d="M13.94,6.62s-.09,0-.14-.01c.03-.04.08-.04.13-.04.03,0,.03.03,0,.05Z"/>
        <path class="cls-63" d="M7.87,15.8c.05.04.05.09.01.18,0-.08,0-.13-.01-.18,0,0,0,0,0,0Z"/>
        <path class="cls-72" d="M9.77,12.64c0-.05-.01-.11.04-.15,0,.05,0,.1,0,.14,0,0,0,0,0,0-.01,0-.03,0-.04,0Z"/>
        <path class="cls-33" d="M8.93,14.15s0,.1,0,.14c-.06-.04-.06-.09,0-.14Z"/>
        <path class="cls-33" d="M11.71,9.43s.06,0,.09-.01c-.02.04-.02.11-.09.07,0-.02,0-.04,0-.05Z"/>
        <path class="cls-22" d="M32.07,12.3c-.02.27.02.53.03.8.06,1.14-.19,2.22-.63,3.26-.22.53-.5,1.03-.81,1.52-.45.72-.94,1.42-1.48,2.07-.16.2-.32.41-.51.58l-.02-.02c.16-.27.39-.49.58-.74.61-.78,1.17-1.58,1.66-2.44.27-.47.51-.95.67-1.47.02-.07.05-.15.07-.22.06-.36.12-.71.28-1.04,0-.04,0-.09.01-.13.04-.06,0-.14.03-.21v-.09c.06-.1.01-.2.05-.3.03-.45.02-.91,0-1.37,0-.11-.08-.23.05-.32,0,.04,0,.08,0,.13Z"/>
        <path class="cls-37" d="M29.2,19.39c0-.09.07-.14.12-.2.62-.83,1.19-1.69,1.63-2.62.15-.33.33-.64.39-1.01,0,0,0,0,0,0,.04-.04,0-.11.05-.15,0-.01.01-.02,0-.03,0-.25.07-.47.18-.69.05-.24.09-.48.11-.72-.02-.48,0-.96.02-1.44,0-.08.02-.16-.02-.24,0-.11,0-.22,0-.33-.02-.07-.05-.13.02-.19,0,.03.02.06.03.09.06.1,0,.21.04.3,0,.04,0,.09,0,.13.12.38.08.77.05,1.16v.42c-.05.07-.02.14-.04.21-.07.49-.19.98-.33,1.45-.01.05-.02.09-.03.14-.25.61-.52,1.21-.85,1.79-.37.64-.8,1.25-1.26,1.83-.03.04-.06.08-.11.09Z"/>
        <path class="cls-46" d="M31.19,15.45c-.05.11-.1.22-.14.33-.34.91-.83,1.74-1.38,2.54-.02.03-.04.05-.07.07-.02,0-.03,0-.03-.02.16-.27.33-.54.49-.81.01,0,.02-.02.02-.04.01-.06.02-.12.08-.16.02-.03.04-.06.06-.09.02-.08.03-.15.07-.23.36-.63.64-1.3.84-2,.02-.08.03-.16.1-.21,0-.01.01-.03,0-.04.05-.24.03-.5.14-.73,0-.05,0-.09,0-.14.04-.08,0-.17.04-.25.03-.37.02-.73.01-1.1.07-.05.07.01.08.05,0,.06,0,.12.01.18.03.26.02.51,0,.77l-.02.38c-.04.07,0,.14-.03.21-.1.43-.2.87-.31,1.3Z"/>
        <path class="cls-23" d="M31,17.84s-.03-.03-.05-.05c.2-.41.42-.8.6-1.22.34-.76.6-1.54.69-2.36.06-.58.11-1.18.03-1.77-.02-.16,0-.32-.01-.49,0,0,.02-.01.03-.02,0,.01,0,.02.01.03,0,.04,0,.09,0,.13.04.06,0,.14.04.21,0,.11,0,.22.01.33.03.37.02.74,0,1.11,0,.11-.01.22-.02.33-.03.05,0,.1-.03.15,0,.06,0,.13-.01.19-.05.06,0,.14-.04.2,0,.03,0,.06,0,.09-.03.05,0,.11-.04.15-.03.09-.07.19-.06.29-.16.5-.33,1-.54,1.48-.18.41-.37.82-.62,1.2Z"/>
        <path class="cls-14" d="M31.93,16.49s-.04-.04-.05-.06c.14-.39.32-.77.42-1.17,0-.03,0-.06.01-.09.03-.03,0-.08.04-.1,0-.19.12-.37.11-.57.03-.05.01-.11.03-.15,0-.08.01-.16.02-.24.06-.19-.01-.4.04-.59,0-.06,0-.13,0-.19.06-.26-.04-.5-.04-.76-.01-.35-.06-.7-.11-1.05-.01-.07,0-.14.03-.21.02-.03.04-.04.07-.03,0,0,0,0,0,0,.05.37.1.73.14,1.1.04.44.04.89,0,1.33-.04.51-.09,1.01-.24,1.5-.13.43-.28.86-.47,1.27Z"/>
        <path class="cls-42" d="M32.45,11.28c.04.42.09.84.13,1.26.02.26.04.53-.02.79-.01-.09.02-.19-.07-.27-.04-.03-.03-.09-.03-.14,0-.24-.01-.48-.04-.72-.04-.29-.08-.59-.13-.88-.01-.08-.04-.17-.01-.24.08-.22,0-.43-.06-.63-.02-.07-.07-.13,0-.23.13.3.18.61.26.91,0,0,0,.02,0,.03,0,.03,0,.06,0,.09,0,0,0,.02,0,.03Z"/>
        <path class="cls-42" d="M31.23,14.83c-.03.29-.14.56-.24.83-.2.56-.45,1.1-.77,1.61-.07-.03-.11-.06-.06-.15.26-.41.46-.85.63-1.3.09-.25.17-.5.25-.75.03-.08.05-.17.09-.25.04-.09.07.02.1.02Z"/>
        <path class="cls-42" d="M32.06,12.17c-.08.1-.01.22-.05.32-.06-.06-.04-.13-.04-.2,0-.09,0-.18,0-.32-.08.14-.02.24-.08.36-.03-.26-.11-.48-.03-.72.03-.09.03-.21-.01-.31-.03-.07-.03-.14-.02-.22.1.12.23.76.23,1.1Z"/>
        <path class="cls-42" d="M31.91,14.58c-.06.36-.14.71-.28,1.04-.06-.18-.02-.36.04-.53.09-.26.12-.53.16-.8.07.09-.01.22.07.3Z"/>
        <path class="cls-42" d="M31.68,12.29s.03.06.03.09c.01.5.03,1,0,1.5,0,.03-.02.06-.03.09-.02-.05-.05-.11-.05-.16.01-.34-.04-.69.03-1.03.03-.16.01-.32.02-.48Z"/>
        <path class="cls-53" d="M30.05,16.13c-.06.27-.33.86-.49,1.05.01-.24.3-.85.49-1.05Z"/>
        <path class="cls-42" d="M31.83,13.46c-.02-.39-.04-.78-.05-1.16.16.2.18.43.11.67-.02.08,0,.17-.01.26,0,.08.02.16-.04.23Z"/>
        <path class="cls-5" d="M30.45,15.7c-.04.37-.21.68-.4.98.06-.36.25-.66.4-.98Z"/>
        <path class="cls-42" d="M31.57,14.68c-.02.24-.09.47-.18.69-.12-.18.02-.35.04-.52.01-.1.07-.13.15-.17Z"/>
        <path class="cls-42" d="M31.38,14.05c0,.25-.07.49-.14.73,0-.11,0-.22,0-.33-.01-.16.03-.29.14-.4Z"/>
        <path class="cls-42" d="M32.37,13.75c0-.37,0-.74,0-1.11.03.03.04.07.04.11,0,.3,0,.59,0,.89,0,.04,0,.08-.04.11Z"/>
        <path class="cls-42" d="M31.54,13.56c0-.26,0-.51,0-.77.07.26.06.51,0,.77Z"/>
        <path class="cls-53" d="M30.3,15.55c-.01.15-.06.29-.17.46.02-.21.08-.34.17-.46Z"/>
        <path class="cls-42" d="M32.55,13.52c0,.2.03.4-.04.59.01-.2-.05-.4.04-.59Z"/>
        <path class="cls-33" d="M31.01,13.48c-.08-.1-.07-.16-.03-.24.09.06.06.13.03.24Z"/>
        <path class="cls-33" d="M31.43,12.49c-.06.03-.03.1-.09.17,0-.1-.02-.18,0-.24.04-.09.06,0,.09.02.02.01.02.02.01.03,0,0-.01.01-.02.01Z"/>
        <path class="cls-42" d="M31.89,13.81c.03.11.03.22,0,.33-.03-.11-.03-.22,0-.33Z"/>
        <path class="cls-23" d="M32.26,11.96c-.06-.12-.07-.24,0-.37,0,.03,0,.05,0,.08.04.1.04.2,0,.29h0Z"/>
        <path class="cls-42" d="M32.26,11.96c0-.1,0-.2,0-.29.09.09.04.2.05.31-.01,0-.03-.01-.05-.01Z"/>
        <path class="cls-42" d="M30.16,17.35c0,.06-.04.11-.08.16-.06-.14-.06-.14.08-.16Z"/>
        <path class="cls-42" d="M31.25,13.51c0-.1-.02-.19-.03-.29.11.09.08.18.03.29Z"/>
        <path class="cls-42" d="M32.01,13.86c0,.1.01.21-.03.3,0-.1-.04-.21.03-.3Z"/>
        <path class="cls-42" d="M31.77,12.17c-.07-.09-.04-.2-.04-.3.09.09.04.2.04.3Z"/>
        <path class="cls-42" d="M32.35,15.07s0,.08-.04.1c-.01-.03-.03-.05-.04-.08,0-.03-.02-.06.01-.07.02,0,.04.03.07.05Z"/>
        <path class="cls-42" d="M31.42,13.66c0,.09.02.17-.04.25,0-.09-.03-.18.04-.25Z"/>
        <path class="cls-42" d="M31.19,13.27c0,.07,0,.14-.04.2,0-.07-.03-.15.04-.2Z"/>
        <path class="cls-93" d="M32.55,10.94s0-.07.03-.1c.02.05.03.1-.02.14,0-.01,0-.03,0-.04Z"/>
        <path class="cls-42" d="M31.13,13.66c0,.07,0,.14-.04.2,0-.07-.02-.14.04-.2Z"/>
        <path class="cls-42" d="M31.2,14c0-.07,0-.14.03-.21,0,.07.03.15-.03.21Z"/>
        <path class="cls-42" d="M31.78,14.1c0-.07-.01-.14.03-.21,0,.07.03.15-.03.21Z"/>
        <path class="cls-42" d="M31.49,14.14c0-.07,0-.14.03-.21,0,.07.03.15-.03.21Z"/>
        <path class="cls-42" d="M32.26,14.63c0-.07-.01-.14.04-.2,0,.07.02.14-.04.2Z"/>
        <path class="cls-42" d="M31.96,14.25c0,.07.01.14-.03.21,0-.07-.03-.15.03-.21Z"/>
        <path class="cls-42" d="M31.43,12.49s0-.03,0-.05c.07.03.1.09.09.16-.03-.02-.06-.03-.09-.05,0-.02,0-.05,0-.07Z"/>
        <path class="cls-42" d="M32.35,12.31c-.05-.06-.04-.13-.04-.21.07.06.04.14.04.21Z"/>
        <path class="cls-42" d="M31.7,11.77c0,.06-.02.13-.02.19-.06-.07-.08-.14.02-.19Z"/>
        <path class="cls-33" d="M13.94,28.14s-.08-.05-.1-.1q.11.02.1.1Z"/>
        <path class="cls-42" d="M32.49,14.35c0,.06,0,.11-.03.15,0-.05-.02-.11.03-.15Z"/>
        <path class="cls-42" d="M32.32,14.24c0-.05,0-.11.03-.15,0,.05.02.11-.03.15Z"/>
        <path class="cls-42" d="M31.1,14.58c0-.06,0-.11.03-.16,0,.06.02.12-.03.16Z"/>
        <path class="cls-42" d="M32.5,11.28s-.03,0-.05,0c0,0,0,0,0,0-.04-.05-.03-.09,0-.14,0,0,0,0,0,0,.06.04.05.09.04.15Z"/>
        <path class="cls-42" d="M32.22,14.87c0-.06,0-.11.04-.15,0,.06.01.11-.04.15Z"/>
        <path class="cls-42" d="M31.38,15.41c0,.05,0,.11-.05.15,0-.05-.01-.11.05-.15Z"/>
        <path class="cls-33" d="M30.04,15.88s-.03,0-.03-.02c0,0,0-.01.01-.02.01-.01.03-.01.04,0,0,.01-.01.03-.02.04Z"/>
        <path class="cls-33" d="M31.62,12.57s-.01.02-.02.04c0-.01-.02-.02-.02-.04,0-.01.01-.02.02-.04,0,.01.01.02.02.04Z"/>
        <path class="cls-49" d="M33.85,10.85s-.03.06-.04.09c-.07.04-.04.09-.03.15.18.51.28,1.04.34,1.58.04.41.03.82.01,1.24-.03.8-.23,1.58-.43,2.35-.04.15-.08.3-.18.46,0-.18.06-.31.1-.44.19-.68.33-1.36.38-2.06.04-.52.06-1.04.02-1.55-.04-.57-.15-1.13-.34-1.68-.05-.15-.1-.3-.1-.47,0-.13-.1-.25-.16-.37-.24-.45-.51-.88-.81-1.29-.03-.05-.07-.09-.07-.15.28.28.49.62.7.95.25.38.46.77.6,1.2Z"/>
        <path class="cls-65" d="M29.06,21.3c.25-.22.44-.49.65-.75.54-.68,1.07-1.38,1.52-2.13.43-.71.8-1.44,1.1-2.21.27-.67.42-1.37.47-2.1.14.09.04.22.05.33-.09.78-.32,1.53-.63,2.26-.54,1.27-1.29,2.41-2.13,3.49-.46.59-.93,1.18-1.47,1.71-.04.04-.07.09-.12.16-.04-.12.02-.14.05-.18.16-.2.38-.35.51-.58,0,0,0,0,0,0Z"/>
        <path class="cls-91" d="M32.17,18.04s-.03-.03-.05-.05c.23-.48.46-.96.65-1.46.4-1.06.64-2.15.55-3.29-.02-.28-.04-.56-.04-.84.19.05.06.2.09.29.02.31.04.63.05.94.02.99-.2,1.94-.53,2.86-.19.53-.43,1.04-.72,1.53Z"/>
        <path class="cls-8" d="M31.83,18.08c-.41.75-.87,1.45-1.4,2.13-.72.92-1.5,1.79-2.33,2.62-.02-.08.04-.11.07-.14.81-.87,1.6-1.76,2.32-2.71.47-.62.89-1.27,1.27-1.95.05-.01.07,0,.06.05Z"/>
        <path class="cls-13" d="M32.94,14.63c-.03-.39,0-.78.06-1.16.07-.47,0-.93-.02-1.39-.03-.46-.12-.91-.23-1.36,0-.02,0-.05,0-.08.38.75.58,3.48.26,4.72-.06-.13.04-.23.02-.35-.07-.07-.08-.17-.06-.25.11-.41.08-.83.15-1.24-.07.36-.02.74-.14,1.1-.01,0-.03,0-.04,0Z"/>
        <path class="cls-30" d="M33.37,12.7c-.09-.08,0-.22-.09-.29-.11-.17-.11-.37-.14-.56-.06-.37-.15-.74-.16-1.12,0-.13-.1-.24-.04-.38.1.3.19.6.29.9.04.44.13.87.21,1.3,0,.04.02.08-.01.11-.02.02-.03.03-.05.05Z"/>
        <path class="cls-13" d="M31.83,18.08s-.03-.05-.06-.05c.27-.48.52-.98.71-1.5.08-.22.16-.44.24-.66.01-.04.02-.08.02-.12,0-.37.17-.72.17-1.09,0-.01.02-.02.03-.03,0,0,0,0,0,0,.08.16.06.32,0,.49-.06.07-.04.16-.05.24.06.13-.08.25-.04.38-.17.49-.33.98-.54,1.45-.14.31-.3.6-.47.89Z"/>
        <path class="cls-93" d="M32.85,14.44c-.04-.11.04-.23-.05-.33,0-.27-.01-.55,0-.82.01-.42-.06-.83-.12-1.24-.02-.16-.02-.32-.03-.48h0c.09.12.06.27.08.4.15.73.19,1.47.16,2.22,0,.09.01.18-.04.26Z"/>
        <path class="cls-60" d="M33.28,15.61c0-.24.07-.46.11-.69.07-.48.11-.96.12-1.44-.03-.1.01-.2-.03-.3,0-.08,0-.16-.01-.24-.03-.04,0-.11-.04-.15,0-.03,0-.07,0-.1.01-.02.02-.02.04,0,.08.18.09.38.1.56.06.71-.02,1.42-.19,2.11-.02.08-.03.17-.1.24h0Z"/>
        <path class="cls-71" d="M33.47,11.29s-.04.06-.05.1c-.09-.13-.09-.29-.13-.43-.12-.48-.33-.92-.52-1.37-.03-.08-.08-.16-.07-.25.14.19.22.41.3.63.17.44.39.86.47,1.33Z"/>
        <path class="cls-36" d="M32.93,15.12c0-.16,0-.32,0-.49.08-.14.08-.29.09-.44,0-.24.05-.48.1-.72,0,.15.01.3,0,.44-.05.37-.06.73-.09,1.1-.03.03-.07.06-.1.09Z"/>
        <path class="cls-2" d="M33.47,12.69h-.02s-.02,0-.02,0c0-.01,0-.03-.01-.04-.11-.42-.13-.85-.22-1.27-.01-.05-.02-.1.03-.13.12.44.17.9.24,1.35,0,.03,0,.06,0,.1Z"/>
        <path class="cls-68" d="M32.71,17.27c-.18.36-.35.73-.56,1.11,0-.06,0-.02-.02-.04,0,0-.01-.02-.01-.02.18-.36.36-.72.53-1.08.02,0,.04.02.06.03Z"/>
        <path class="cls-60" d="M33.13,16.14c-.01.24-.09.45-.23.64.07-.22.1-.44.23-.64h0Z"/>
        <path class="cls-36" d="M32.85,15.74c-.09-.14,0-.26.04-.38.13.14.02.26-.04.38Z"/>
        <path class="cls-55" d="M29.79,21.74c-.05.09-.11.17-.2.23,0,0-.02,0-.02-.01,0-.13.08-.21.22-.22Z"/>
        <path class="cls-60" d="M33.14,16.14c.02-.19.04-.37.15-.54,0,0,0,0,0,0-.02.19-.04.37-.15.54,0,0,0,0,0,0Z"/>
        <path class="cls-93" d="M32.65,11.57c-.08-.12-.03-.25,0-.37,0,.12,0,.25,0,.37,0,0,0,0,0,0Z"/>
        <path class="cls-30" d="M33.48,13.17c.06.09.03.2.03.3-.05-.1-.03-.2-.03-.3Z"/>
        <path class="cls-55" d="M29.06,22.55s-.03.06-.05.1c-.06-.07.01-.07.05-.1Z"/>
        <path class="cls-30" d="M33.43,12.79c.05.04.05.09.04.15-.05-.04-.04-.09-.04-.15Z"/>
        <path class="cls-77" d="M33.48,16.39s-.04-.04-.05-.06c.12-.43.25-.85.31-1.29.06-.47.12-.95.1-1.42,0-.17,0-.34,0-.51.03-.89-.16-1.73-.43-2.57-.02-.07-.07-.14-.06-.28.1.2.15.37.2.54.15.49.29.97.35,1.48.04.44.08.89.06,1.33-.03.6-.07,1.19-.19,1.78-.07.34-.14.68-.28,1Z"/>
        <path class="cls-55" d="M29.79,22.56c-.05.08-.11.15-.19.19.03-.16.08-.2.19-.19Z"/>
        <path class="cls-46" d="M29.6,18.39c-.1.17-.2.34-.34.48,0,0-.02-.02-.02-.02.09-.18.21-.34.34-.49,0,0,.02.02.03.02Z"/>
        <path class="cls-22" d="M28.67,20.52c-.04.12-.15.18-.23.26.03-.12.12-.2.21-.28,0,0,.01.01.02.02Z"/>
        <path class="cls-55" d="M28.21,21.09c.06-.06.11-.12.17-.18.02.13,0,.15-.17.18Z"/>
        <path class="cls-37" d="M29.21,19.38c-.03.1-.07.15-.16.21.04-.12.08-.17.16-.21Z"/>
        <path class="cls-46" d="M29.26,18.87c-.02.07-.07.12-.15.18,0-.1.07-.15.12-.2,0,0,.02.02.02.02Z"/>
        <path class="cls-37" d="M28.94,19.75s-.02-.03-.01-.03c0-.02.03-.04.04-.05.01-.01.03,0,.03.02,0,.03-.03.05-.05.07Z"/>
        <path class="cls-50" d="M6.7,16.43s0,.08-.05.1c-.11-.25-.16-.52-.24-.78-.23-.84-.26-1.71-.21-2.57.04-.73.2-1.44.52-2.1.13-.48.46-.85.71-1.25.35-.57.86-1.02,1.33-1.49.07-.07.15-.14.27-.14.04.01.07.03.05.08-.21.2-.42.4-.62.61-.43.45-.81.94-1.13,1.48-.08.31-.3.55-.39.81.13-.21.21-.51.44-.72.24-.35.49-.7.76-1.03.47-.56,1-1.05,1.62-1.44.05,0,.07,0,.06.06-.15.12-.3.25-.45.37-.02.07-.06.13-.12.18-.64.56-1.19,1.2-1.61,1.95-.25.46-.38.95-.54,1.44-.16.49-.2.99-.27,1.5-.03.32,0,.64-.02.96,0,.1.03.22-.12.25-.07-.06-.07-.14-.07-.22-.04-.48-.04-.96.03-1.44.08-.54.18-1.07.38-1.58,0-.03-.05,0-.02,0-.14.51-.29,1.03-.36,1.56-.15,1.19.02,2.34.38,3.47.03.08.05.17.04.26-.01.04-.02.09-.08.07-.11-.4-.26-.8-.35-1.21-.17-.76-.26-1.53-.21-2.31,0-.13.01-.27,0-.4-.15.6-.13,1.21-.07,1.82.06.58.17,1.15.33,1.71Z"/>
        <path class="cls-26" d="M6.46,16.43s0,.08-.05.1c-.25-.75-.43-1.51-.53-2.3-.01-.12-.01-.24-.02-.36-.09-.21-.04-.43-.04-.64,0-.24.01-.49.09-.73.11-.61.29-1.19.54-1.76.5-1.13,1.21-2.1,2.24-2.81.06-.04.11-.09.19-.1h0c-.08.13-.21.2-.32.28-.74.57-1.29,1.29-1.74,2.09-.46.84-.75,1.74-.84,2.69-.07.75-.03,1.5.15,2.24.03.14.05.29.12.42.03.3.15.58.21.87Z"/>
        <path class="cls-92" d="M6.12,14.58c0-.25-.05-.5-.06-.75-.06-2.03.66-3.76,2.08-5.19.24-.24.49-.49.79-.66.05-.02.06.01.07.05-.03.1-.11.15-.19.22-.57.53-1.1,1.09-1.51,1.76-.2.32-.41.64-.55,1-.19.5-.35,1-.45,1.52-.12.61-.08,1.22-.09,1.83,0,.08.05.2-.09.23Z"/>
        <path class="cls-51" d="M6.75,10.94c.21-.54.52-1.01.86-1.48.27-.37.6-.7.92-1.03.15-.15.3-.28.46-.42.42-.37.89-.65,1.4-.88.31-.14.62-.28.97-.29.04,0,.08,0,.11.04-.18.15-.41.18-.62.28-.56.21-1.05.52-1.53.87-.09.07-.18.14-.29.17-.67.53-1.25,1.16-1.7,1.89-.19.3-.41.59-.53.93-.08,0-.07-.04-.05-.09Z"/>
        <path class="cls-3" d="M6.75,10.94s0,.08.05.09c0,.09-.04.15-.08.23-.22.5-.32,1.03-.41,1.56-.09.55-.06,1.11-.04,1.67.01.27.06.54.11.81.03.15.03.3.03.46-.08-.04-.03-.15-.1-.19-.06-.26-.11-.53-.17-.79-.01-.06-.02-.12-.01-.19.08-.05.05-.13.05-.2,0-.24,0-.48,0-.73,0-.9.19-1.76.51-2.6.02-.04.03-.09.08-.12Z"/>
        <path class="cls-17" d="M13.65,6.91c-.92-.01-1.81.13-2.66.5-.07.03-.13.05-.2.08-.03-.03-.08,0-.1-.05.18-.12.38-.17.58-.25.83-.31,1.7-.36,2.58-.32-.01.05-.06.03-.09.04-.03,0-.06,0-.1,0Z"/>
        <path class="cls-66" d="M11.36,6.85c-.53.09-1.01.31-1.47.58-.28.16-.55.33-.8.53-.03.02-.06.05-.11.05-.02-.01-.03-.03-.05-.04.68-.54,1.42-.95,2.27-1.15.05-.01.11-.04.15.03Z"/>
        <path class="cls-70" d="M9.02,8.21c.16-.16.34-.28.53-.41.37-.24.76-.45,1.16-.63.04-.02.08-.02.12-.03.05-.02.06,0,.05.04-.49.22-.96.46-1.39.78-.14.1-.27.2-.4.3-.02-.02-.04-.04-.06-.06Z"/>
        <path class="cls-82" d="M10.88,7.19s-.03-.03-.05-.04c.2-.12.42-.16.63-.25.52-.2,1.05-.2,1.59-.15-.06,0-.13.01-.19.01-.64-.01-1.24.15-1.83.39-.05.02-.1.05-.16.04Z"/>
        <path class="cls-62" d="M5.92,12.49c-.05.45-.04.91-.05,1.37-.07.07-.02.16-.05.24-.07-.34-.05-.69-.02-1.04.02-.19-.01-.39.07-.57.02,0,.03,0,.05,0Z"/>
        <path class="cls-16" d="M10.68,7.44s.08,0,.1.05c-.32.18-.64.36-.96.55-.02-.02-.04-.04-.06-.06.1-.13.26-.18.39-.26.17-.1.35-.18.53-.28Z"/>
        <path class="cls-21" d="M7.38,10.45c-.13.3-.32.57-.49.85.08-.34.25-.65.45-.94.01.03,0,.07.05.09Z"/>
        <path class="cls-26" d="M9.04,7.74c-.04.05-.08.09-.15.09,0,0,0,0,0,0,.02-.07.08-.09.14-.1h.01Z"/>
        <path class="cls-26" d="M9.18,7.64c.02-.06.06-.09.14-.08-.05.05-.09.08-.15.08h0Z"/>
        <path class="cls-26" d="M9.03,7.73c.03-.06.08-.09.15-.09,0,0,0,0,0,0-.02.07-.07.1-.14.11,0,0-.01-.01-.01-.01Z"/>
        <path class="cls-15" d="M7.63,15.31c-.04.11.05.23-.05.33-.01,0-.02-.02-.02-.02,0,0,0-.01.01-.01.02-.41-.05-.81-.07-1.21-.06-1.23.2-2.38.84-3.43.05-.09.13-.17.14-.27.35-.55.77-1.04,1.26-1.47.05-.01.06,0,.05.05-.81.79-1.42,1.71-1.82,2.77-.28.73-.37,1.5-.37,2.28-.03.22-.03.43,0,.65,0,.11,0,.22.01.33Z"/>
        <path class="cls-20" d="M9.81,9.28s-.03-.03-.05-.05c.26-.31.6-.51.94-.72.17-.11.34-.23.53-.3.02.02.04.04.05.05-.49.28-.97.58-1.38.96-.02.02-.05.03-.08.05Z"/>
        <path class="cls-89" d="M7.62,14.98c-.07-.22-.05-.43,0-.65.02.22.02.43,0,.65Z"/>
        <path class="cls-25" d="M8.55,12.2s-.12,0-.07-.08c.11-.18.16-.39.31-.55.03.06.08.11.03.18-.1.14-.15.33-.27.46Z"/>
        <path class="cls-18" d="M10.88,9.77s-.03-.03-.04-.05c.28-.26.56-.51.92-.63,0,.01-.01.03-.02.04-.3.19-.57.43-.86.64Z"/>
        <path class="cls-6" d="M9.02,9.53c.07-.06.13-.11.2-.18.42-.43.9-.78,1.41-1.09.06-.02.06,0,.06.05-.86.55-1.58,1.26-2.14,2.12-.03.05-.06.11-.09.17-.44.66-.77,1.36-.93,2.14-.15.76-.19,1.52-.19,2.29,0,.06.03.13-.04.18-.02-.41-.03-.82-.02-1.24.02-1.28.4-2.45,1.1-3.52.21-.32.45-.61.66-.93Z"/>
        <path class="cls-64" d="M10.15,8.31s.03.04.05.05c-.44.33-.88.66-1.22,1.1-.38.37-.66.81-.93,1.26-.53.9-.81,1.88-.91,2.91-.01.12-.03.24-.05.36-.14-.03-.1-.14-.11-.23.08-1.04.28-2.04.79-2.96.13-.23.22-.49.45-.64.48-.68,1.04-1.26,1.73-1.73.07-.05.14-.09.2-.13Z"/>
        <path class="cls-31" d="M7.19,15.89c-.02-.14-.04-.29-.07-.43-.09-.1-.04-.23-.09-.34-.02-.09-.02-.18-.02-.27,0-.07-.03-.15-.02-.23.02-.07.02-.15.09-.2.06.2.06.41.08.62.04.4.06.8.16,1.19.02.05,0,.06-.05.05h0s0-.11-.05-.15c0-.03,0-.06-.01-.09-.03-.05,0-.11-.04-.15Z"/>
        <path class="cls-84" d="M7.29,16.28s.03-.03.05-.05c.1.34.21.67.24,1.02-.13-.31-.28-.63-.29-.98Z"/>
        <path class="cls-76" d="M7.03,13.74c.02.08-.03.18.05.26.02.08.01.16,0,.25-.07.07.06.2-.09.24-.13-.24-.11-.59.03-.74Z"/>
        <path class="cls-64" d="M7.04,14.5c.02-.08-.03-.18.05-.25,0,.06,0,.12.01.18-.03.06.02.15-.05.2-.05-.04-.05-.09-.01-.13Z"/>
        <path class="cls-84" d="M7.67,17.55c-.07-.09-.09-.19-.1-.3.09.08.1.18.1.3Z"/>
        <path class="cls-74" d="M7.97,13.77c-.04-.14.04-.3-.04-.44.14-1.02.56-1.92,1.17-2.73.15-.2.26-.43.46-.59.02.02.03.03.05.05-.27.33-.53.67-.74,1.04-.24.43-.48.86-.61,1.34-.01.04-.04.08-.03.12.07.25-.07.47-.12.7-.03.17-.09.34-.13.51Z"/>
        <path class="cls-33" d="M7.58,15.61s0,.03,0,.04c-.03.21.07.41.11.61.07.39.22.77.35,1.15.01.05.02.09.03.14-.03.05-.04.11-.1.15-.22-.77-.44-1.53-.54-2.34.13.06.06.2.15.25Z"/>
        <path class="cls-4" d="M10.69,8.32s-.04-.04-.06-.05c.34-.24.73-.39,1.13-.53.03,0,.07,0,.09.04-.4.14-.77.35-1.15.54Z"/>
        <path class="cls-10" d="M7.04,14.5s0,.09.01.13c0,.07.02.14.03.2-.03.12,0,.24-.02.36.03-.02,0-.07.04-.09.06.11.03.24.03.36-.06.07-.05.16-.03.23.02.08-.03.11-.07.17-.09-.08-.12-.18-.12-.29-.01-.39-.1-.78-.1-1.17,0-.23-.07-.46.05-.68.03,0,.07.07.07-.03.04-.69.12-1.37.35-2.02.17-.48.4-.94.67-1.37.05-.08.09-.18.21-.18.02.02.05.05.07.07-.1.16-.2.33-.3.49-.49.85-.76,1.77-.84,2.75,0,.11-.03.22-.05.33-.08.25-.06.5,0,.75Z"/>
        <path class="cls-76" d="M8.15,10.1c-.54.78-.9,1.63-1.06,2.57-.05.28-.05.56-.08.84-.02.12-.05.23-.08.36-.01-.06-.02-.11-.03-.15-.06-.06-.06-.13-.06-.2.06-.87.23-1.72.59-2.52.38-.82.9-1.54,1.56-2.16.05-.04.1-.09.16-.09.04,0,.07.02.07.07-.42.38-.79.81-1.08,1.3Z"/>
        <path class="cls-78" d="M9.23,8.8s-.04-.03-.06-.05c0-.19.17-.21.29-.29.3-.2.59-.42.9-.6.37-.2.74-.39,1.14-.52.02.02.03.03.05.05-.67.25-1.29.59-1.86,1.03-.16.12-.29.28-.47.37Z"/>
        <path class="cls-67" d="M7,16.81s.03-.03.05-.04c.12,0,.13.11.16.18.12.33.21.67.35.99.02.05.02.09-.01.14.02.06.04.11.09.15.08.21.27.37.25.62-.02,0-.03,0-.05,0-.33-.61-.59-1.25-.8-1.91-.01-.05-.04-.09-.03-.14Z"/>
        <path class="cls-97" d="M9.46,8.46c-.07.12-.22.17-.29.29-.47.37-.82.85-1.16,1.33-.57.83-.94,1.73-1.05,2.73-.03.3-.05.6-.07.89-.1.19-.06.4-.04.59.04.29.02.58.08.86.01.06.03.13.03.19,0,.09.04.18-.02.25-.19-.24-.2-.54-.19-.81.01-.46-.02-.92.03-1.38.08-1.09.36-2.13.9-3.09.42-.75,1.01-1.37,1.68-1.92.02.04.05.05.09.05Z"/>
        <path class="cls-33" d="M7.53,18.08c-.17-.4-.28-.83-.44-1.24-.01-.03-.03-.05-.05-.08-.13-.46-.29-.92-.37-1.4-.13-.79-.18-1.59-.06-2.38.05-.04-.02-.16.08-.14.06.01.04.09.02.14-.06.56-.07,1.13,0,1.69.13.25.11.53.17.79.08.31.16.62.25.93.11.49.27.97.45,1.44h0c.02.08.09.15.05.24-.03,0-.06,0-.1,0Z"/>
        <path class="cls-59" d="M7.1,16.42c-.18-.52-.3-1.06-.39-1.6,0-.05,0-.09,0-.14.07-.07.04-.15.04-.23,0-.27,0-.53,0-.8,0-.08-.02-.16.04-.23,0,.24,0,.48,0,.73-.01.5.07.98.17,1.46.03.08.05.17.08.25,0,.18.1.35.1.53.02.05,0,.06-.04.04Z"/>
        <path class="cls-56" d="M7.1,16.42s.03-.03.04-.04c.07.11.07.24.11.36.1.3.17.62.3.91.03.06.02.13.03.19-.14-.19-.19-.42-.27-.63-.09-.26-.17-.52-.21-.78Z"/>
        <path class="cls-33" d="M7.87,18.86c-.06-.22-.22-.4-.25-.62.02-.02.04-.03.06,0,.09.16.15.35.27.5.05.06.01.12-.07.13Z"/>
        <path class="cls-56" d="M7.63,18.08c0-.08-.06-.16-.05-.24.04.08.15.14.05.24Z"/>
        <path class="cls-84" d="M7.19,15.89s.04.1.04.15c-.05-.04-.05-.1-.04-.15Z"/>
        <path class="cls-84" d="M7.24,16.13c.05.04.05.09.05.15-.06-.04-.05-.09-.05-.15Z"/>
        <path class="cls-14" d="M32.45,11.14s0,.09,0,.14c-.05-.05-.06-.09,0-.14Z"/>
        <path class="cls-80" d="M6.71,12.99s-.01-.07-.02-.11c-.03.04-.05.07-.07.11.05-.57.2-1.11.47-1.61-.05.2-.1.4-.16.6-.08.29-.13.58-.18.88,0,.05-.01.1-.04.14Z"/>
        <path class="cls-97" d="M7.1,15.11s0,.06-.01.09c-.05-.14-.05-.17,0-.37,0,.09.01.18.02.27Z"/>
        <path class="cls-32" d="M8.05,13.15s-.01.03-.02.04c0-.01-.01-.03-.01-.04,0-.01,0-.03.01-.04,0,.01,0,.03.01.04Z"/>
        <path class="cls-32" d="M8.11,12.88s0,.03,0,.05c0,.02.01.07-.03.06-.03,0-.02-.05,0-.08,0-.01.02-.02.03-.03h0Z"/>
        <path class="cls-32" d="M8.11,12.88s0-.09.02-.13c.04.06.03.1-.02.13,0,0,0,0,0,0Z"/>
      </g>
    </g>
  </g>
</svg>