<?xml version="1.0" encoding="UTF-8"?>
<svg xmlns="http://www.w3.org/2000/svg" version="1.1" viewBox="0 0 40 40">
  <defs>
    <style>
      .cls-1 {
        fill: #98d1d0;
      }

      .cls-2 {
        fill: #fbfbfb;
      }

      .cls-3 {
        fill: #97d1cf;
      }

      .cls-4 {
        fill: #f7f8f9;
      }

      .cls-5 {
        fill: #e3ebee;
      }

      .cls-6 {
        fill: #99a3a6;
      }

      .cls-7 {
        fill: #fdfdfd;
      }

      .cls-8 {
        fill: #f4f7f7;
      }

      .cls-9 {
        fill: #a3afb3;
      }

      .cls-10 {
        fill: #959fa2;
      }

      .cls-11 {
        fill: #fafbfb;
      }

      .cls-12 {
        fill: #fbfbfa;
      }

      .cls-13 {
        fill: #97a5aa;
      }

      .cls-14 {
        fill: #9fa9ac;
      }

      .cls-15 {
        fill: #939c9e;
      }

      .cls-16 {
        fill: #95a0a4;
      }

      .cls-17 {
        fill: #9ca9ae;
      }

      .cls-18 {
        fill: #98d2d0;
      }

      .cls-19 {
        fill: #f9f8f8;
      }

      .cls-20 {
        fill: #f9f9f9;
      }

      .cls-21 {
        fill: #eaf1f3;
      }

      .cls-22 {
        fill: #98d2ce;
      }

      .cls-23 {
        fill: #98d2cf;
      }

      .cls-24 {
        fill: #fcfbfb;
      }

      .cls-25 {
        fill: #97d1ce;
      }

      .cls-26 {
        fill: #333b3d;
      }

      .cls-27 {
        fill: #343c3e;
      }

      .cls-28 {
        fill: #f0f2f4;
      }

      .cls-29 {
        fill: #98d1cf;
      }

      .cls-30 {
        fill: #f8f8fa;
      }
    </style>
  </defs>
  <!-- Generator: Adobe Illustrator 28.6.0, SVG Export Plug-In . SVG Version: 1.2.0 Build 709)  -->
  <g>
    <g id="Warstwa_1">
      <g>
        <path class="cls-27" d="M16.68,29.14c-.16.4-.32.79-.48,1.17-.03.07-.01.11.03.15.09.08.16.19.2.3.16.38-.02.74-.42.83-.41.09-.78-.02-1.1-.28-.07-.06-.14-.13-.19-.2-.3-.43-.09-.96.43-1.01.24-.02.32-.13.39-.33.1-.26.21-.51.32-.77.07-.16.07-.16-.08-.24-.22-.11-.43-.22-.64-.34-.35-.21-.69-.43-1.01-.68-.2-.15-.2-.15-.39.03-.4.39-.79.79-1.18,1.18-.12.12-.24.25-.37.36-.08.08-.1.14-.05.26.16.34.25.7.25,1.08,0,.83-.54,1.28-1.28,1.33-.42.03-.81-.07-1.18-.25-.87-.43-1.48-1.09-1.81-2-.12-.35-.17-.71-.1-1.08.12-.64.57-1.02,1.23-1.05.39-.02.77.08,1.13.23.19.08.19.08.34-.07.5-.5,1-1,1.5-1.51.04-.04.08-.09.12-.12.05-.05.05-.09,0-.14-.07-.08-.14-.17-.2-.25-.35-.48-.66-.99-.92-1.53-.09-.18-.08-.17-.25-.09-.3.13-.6.27-.91.39-.1.04-.17.09-.15.22.01.1-.01.2-.05.29-.15.39-.53.52-.9.33-.45-.23-.73-.9-.58-1.39.11-.34.43-.5.79-.38.12.04.24.1.33.19.05.04.09.05.15.02.34-.15.69-.29,1.03-.43.14-.06.14-.06.1-.2-.22-.63-.37-1.28-.45-1.94-.01-.12-.06-.15-.18-.15-.71,0-1.42,0-2.13,0-.11,0-.16.04-.2.14-.11.33-.29.62-.52.88-.58.63-1.39.65-1.99.04-.13-.13-.24-.28-.33-.44-.21-.37-.33-.78-.38-1.2-.08-.78.01-1.53.41-2.22.13-.23.3-.42.51-.57.53-.38,1.14-.36,1.64.07.28.24.46.54.6.88.11.28.11.28.42.28.65,0,1.3,0,1.95,0,.17,0,.17,0,.19-.15.08-.71.25-1.39.49-2.07-.12-.08-.26-.12-.39-.17-.22-.09-.44-.17-.65-.27-.12-.06-.21-.07-.32.04-.11.12-.26.18-.42.2-.3.05-.56-.12-.66-.42-.16-.5.15-1.18.62-1.4.37-.17.73,0,.86.37.02.05.04.1.03.15-.02.22.1.3.28.37.28.1.54.22.81.34.09.04.15.05.2-.06.31-.68.71-1.3,1.18-1.88,0-.06-.04-.08-.07-.11-.55-.55-1.09-1.09-1.64-1.64-.09-.09-.15-.11-.27-.05-.37.17-.75.27-1.17.24-.73-.04-1.21-.52-1.25-1.25-.03-.55.13-1.05.42-1.5.46-.72,1.08-1.26,1.9-1.53.34-.11.68-.15,1.04-.08.62.13,1.01.59,1.04,1.22.02.39-.07.77-.23,1.12-.06.12-.06.2.05.31.54.53,1.06,1.06,1.6,1.59.15.15.12.13.27.02.5-.4,1.04-.73,1.62-1.01.05-.03.1-.05.15-.08.08-.04.1-.08.06-.17-.12-.27-.23-.54-.35-.81-.01-.03-.03-.05-.03-.08-.03-.17-.13-.21-.3-.22-.42-.02-.67-.31-.63-.68.02-.16.09-.3.19-.42.31-.34.69-.48,1.14-.42.58.08.72.59.42,1-.15.19-.12.32-.04.51.12.27.22.54.32.81.04.09.07.12.17.08.64-.22,1.29-.38,1.96-.46.11-.01.16-.05.16-.17,0-.72,0-1.43,0-2.15,0-.09-.03-.14-.12-.17-.25-.08-.48-.2-.69-.35-.29-.21-.53-.47-.63-.82-.13-.44-.03-.84.25-1.19.31-.39.73-.61,1.2-.74.89-.24,1.76-.21,2.6.18.38.17.69.43.89.81.23.46.2.9-.1,1.31-.27.38-.64.6-1.07.76-.18.07-.18.07-.18.25,0,.69,0,1.37,0,2.06,0,.19,0,.19.18.21.63.07,1.24.23,1.84.42.21.07.22.06.3-.14.12-.28.22-.57.35-.85.05-.12.05-.21-.05-.3-.11-.11-.16-.25-.18-.4-.05-.3.1-.54.38-.64.48-.17,1.17.1,1.41.56.21.41.02.83-.43.93-.03,0-.06.02-.08.01-.2-.03-.28.08-.35.26-.1.27-.22.53-.33.79-.07.17-.07.17.09.25.51.25,1,.54,1.45.87.13.1.26.2.39.29.07-.02.1-.07.14-.11.53-.53,1.06-1.07,1.59-1.6.13-.13.13-.13.06-.3-.14-.34-.24-.69-.24-1.06.01-.78.49-1.29,1.28-1.33.41-.02.8.08,1.16.25.86.42,1.47,1.07,1.8,1.98.14.37.19.76.11,1.16-.11.53-.51.91-1.06.98-.45.06-.88-.04-1.3-.22-.17-.07-.17-.08-.3.05-.54.54-1.07,1.07-1.61,1.61-.08.07-.11.13-.03.23.44.54.79,1.14,1.1,1.76.07.15.08.15.23.08.32-.14.63-.27.95-.4.09-.03.13-.07.12-.17,0-.12.02-.23.07-.33.14-.32.46-.46.78-.33.42.17.63.51.7.93.03.18.03.37-.05.55-.13.29-.39.42-.7.35-.15-.04-.29-.1-.39-.22-.07-.08-.14-.08-.23-.04-.33.14-.66.28-.99.41-.1.04-.11.08-.07.18.2.56.33,1.14.42,1.73,0,.02,0,.04.01.06.03.1-.03.24.07.3.09.06.21.02.32.02.62,0,1.25,0,1.87,0,.21,0,.21,0,.28-.2.12-.32.29-.62.54-.87.7-.71,1.55-.46,2.02.08.28.32.44.7.54,1.11.18.78.2,1.56-.11,2.32-.16.38-.38.72-.73.96-.54.37-1.15.32-1.63-.12-.29-.27-.49-.6-.63-.96-.06-.16-.03-.17-.24-.17-.69,0-1.37,0-2.06,0-.19,0-.18,0-.2.19-.07.61-.22,1.21-.4,1.8-.01.03-.02.07-.03.1-.05.15-.05.15.1.21.33.13.66.27.99.41.08.03.13.04.21-.03.16-.13.34-.21.55-.21.25,0,.45.15.53.39.18.52-.14,1.23-.64,1.45-.31.13-.61.03-.77-.27-.07-.14-.11-.28-.1-.43,0-.07,0-.11-.09-.15-.38-.15-.75-.32-1.12-.48-.06.04-.08.11-.1.17-.3.61-.65,1.18-1.07,1.71-.1.13-.1.13,0,.24.54.54,1.09,1.08,1.62,1.63.1.1.16.09.28.04.35-.16.71-.26,1.1-.24.77.02,1.29.54,1.31,1.31.01.45-.11.88-.32,1.27-.45.81-1.09,1.41-1.99,1.7-.4.13-.8.15-1.2.03-.52-.16-.83-.56-.87-1.1-.03-.44.07-.85.25-1.25.05-.1.03-.15-.04-.22-.55-.55-1.1-1.1-1.65-1.66-.07-.07-.11-.09-.21-.02-.54.43-1.12.79-1.74,1.09-.16.08-.15.08-.08.25.13.31.26.62.39.93.03.08.07.12.17.13.12,0,.24.03.35.08.32.15.44.46.31.79-.03.08-.07.16-.13.22-.32.36-.73.53-1.21.44-.41-.07-.6-.41-.45-.8.04-.12.1-.22.19-.31.07-.06.06-.11.03-.19-.15-.35-.29-.7-.42-1.06-.03-.09-.07-.1-.16-.07-.29.09-.59.18-.89.26-.35.09-.71.15-1.08.19-.16.02-.16.02-.16.18,0,.71,0,1.42,0,2.13,0,.11.03.16.14.2.36.12.68.31.94.58.49.5.55,1.17.13,1.73-.24.33-.57.54-.94.68-.94.34-1.88.34-2.81-.05-.43-.18-.79-.46-.99-.91-.21-.46-.16-.89.14-1.3.27-.36.64-.59,1.06-.74.17-.06.18-.03.18-.26,0-.69,0-1.37,0-2.06,0-.18,0-.18-.17-.2-.68-.08-1.34-.23-1.98-.45-.03,0-.05-.02-.09-.03Z"/>
        <path class="cls-25" d="M22.12,11.31c.31.04.61.15.9.26,2.72,1.04,4.56,2.94,5.5,5.7.38,1.11.49,2.26.4,3.43-.18,2.22-1.08,4.11-2.65,5.67-1.34,1.32-2.94,2.14-4.79,2.45-.67.11-1.35.12-2.03.09-.05,0-.1,0-.15-.03.02-.03.05-.04.11,0-1.06-.22-2.05-.59-3-1.08-.91-.47-1.74-1.07-2.47-1.8-.98-.99-1.67-2.15-2.11-3.47-.32-.97-.47-1.95-.42-2.96.04-.8.22-1.58.49-2.34.46-1.28,1.19-2.38,2.18-3.3.71-.66,1.52-1.17,2.39-1.58,1.15-.53,2.36-.82,3.62-.95.65-.06,1.31-.14,1.97-.07.02,0,.04,0,.06-.02Z"/>
        <path class="cls-7" d="M22.12,11.31c-.06.07-.15.04-.22.05-.43.02-.86.02-1.28.05-.64.05-1.27.14-1.9.27-.65.13-1.27.33-1.88.58-1.2.5-2.27,1.19-3.15,2.16-.51.55-.94,1.16-1.28,1.84-.22.43-.4.88-.55,1.34-.14.42-.24.85-.3,1.29-.05.39-.09.78-.08,1.17,0,.82.16,1.61.41,2.39.21.67.5,1.3.86,1.9.24.4.51.77.81,1.13.56.66,1.22,1.23,1.94,1.71.7.47,1.45.85,2.25,1.14.49.18,1,.33,1.51.47.09.02.18.03.28.06-.08.04-.15,0-.22.03-1.22-.07-2.37-.39-3.44-.97-2.03-1.1-3.45-2.73-4.25-4.89-.48-1.29-.64-2.63-.48-3.99.36-2.98,1.86-5.22,4.41-6.77,1.05-.64,2.19-1.01,3.41-1.16.96-.12,1.91-.08,2.86.12.11.02.22.05.33.08Z"/>
        <path class="cls-18" d="M27.36,26.94c.1.05.16.14.23.22.47.48.94.96,1.42,1.43.2.2.34.23.59.09.22-.12.45-.22.69-.29.15-.04.31-.05.47-.03.26.03.43.19.46.45.03.23,0,.46-.08.67-.33.84-.91,1.42-1.78,1.69-.18.06-.37.05-.55.03-.24-.03-.38-.17-.43-.41-.04-.19-.01-.37.04-.55.06-.22.15-.43.26-.63.15-.28.13-.39-.11-.62-.51-.5-1.02-1.01-1.52-1.51-.01-.01-.02-.03-.04-.05.04-.22.15-.38.35-.49Z"/>
        <path class="cls-18" d="M26.79,12.8c.29-.35.63-.66.95-.98.28-.29.57-.57.85-.84.19-.18.23-.36.09-.59-.16-.27-.28-.56-.32-.88-.01-.09-.04-.18.02-.27.09-.19.28-.23.46-.31.13-.06.29-.05.41-.15.14-.01.25.07.36.12.81.37,1.35.96,1.59,1.83.04.15.04.3.03.45-.02.24-.17.39-.4.44-.25.05-.48,0-.72-.08-.18-.06-.36-.15-.53-.24-.23-.12-.38-.1-.55.09-.46.48-.93.95-1.41,1.42-.21.04-.42.05-.62.07-.07,0-.16,0-.21-.07Z"/>
        <path class="cls-18" d="M29.72,19.73c.06-.09.14-.04.21-.04.74,0,1.47,0,2.21,0,.06,0,.11,0,.17,0,.26,0,.38-.09.44-.35.06-.24.16-.47.28-.69.08-.14.18-.26.3-.36.1-.07.2-.14.33-.1.2.2.45.35.65.55.14.23.19.49.24.75.1.52.08,1.04-.11,1.54-.09.22-.21.42-.38.59-.27.25-.56.24-.82-.01-.22-.22-.36-.5-.44-.8-.12-.43-.19-.52-.7-.51-.48,0-.96,0-1.44,0-.06,0-.11,0-.17-.01-.32-.1-.57-.29-.77-.56Z"/>
        <path class="cls-18" d="M13.22,26.96c.16.1.16.1.05.22-.62.61-1.23,1.23-1.85,1.84-.2.2-.23.33-.09.59.13.24.23.49.29.75.01.06.03.11.02.17-.11.21-.32.28-.52.34-.49.15-.96.08-1.38-.23-.05-.03-.09-.07-.15-.08-.43-.4-.72-.88-.8-1.47-.01-.09,0-.19.01-.28.04-.26.21-.42.48-.44.21-.02.41,0,.61.08.18.06.36.14.53.24.26.14.4.12.61-.1.48-.51.98-1,1.49-1.48.24-.05.47-.17.72-.13Z"/>
        <path class="cls-18" d="M12.01,12.43c-.34-.31-.65-.64-.97-.97-.03-.03-.06-.06-.09-.09-.17-.16-.31-.19-.52-.07-.28.15-.56.28-.88.33-.14.02-.29.02-.43-.02-.15-.04-.26-.13-.31-.27-.07-.19-.1-.39-.03-.58.04-.01.04.09.06.04.3-.72.81-1.29,1.37-1.81.29-.17.6-.25.94-.22.28.03.47.22.49.5.02.28-.05.54-.16.79-.05.11-.1.22-.16.32-.13.24-.11.39.08.58.48.47.95.94,1.43,1.42.14.14.3.26.39.44-.07.12-.17.08-.26.05-.34-.1-.66-.24-.94-.45Z"/>
        <path class="cls-18" d="M9.96,20.29c-.33,0-.65,0-.98,0-.42,0-.84,0-1.26,0-.29,0-.4.09-.46.37-.02.09-.03.18-.09.26-.18.13-.36.25-.57.33-.3.13-.6.13-.91.01-.15-.24-.23-.51-.26-.78-.08-.6-.05-1.19.23-1.74.09-.17.2-.33.36-.45.25-.18.49-.17.72.05.22.21.34.47.44.75.03.09.05.18.08.27.06.21.18.31.4.31.36,0,.73,0,1.09,0,.23,0,.46,0,.69,0,.05.06.12.03.18.04.08,0,.16,0,.23.02.14.04.29.07.32.24.03.16-.09.24-.21.31Z"/>
        <path class="cls-18" d="M19.57,34.59c-.34-.04-.67-.14-.96-.33-.1-.07-.19-.15-.27-.24-.2-.25-.2-.52.02-.75.22-.24.51-.36.81-.46.06-.02.12-.03.19-.05.24-.08.33-.18.33-.43,0-.27,0-.54,0-.81,0-.54,0-1.09,0-1.63,0-.05-.02-.11.03-.16.12.14.03.32.07.49.13-.21.33-.3.53-.41,0,.16.01.31.01.47,0,.67,0,1.33,0,2,0,.3.08.41.37.49.32.09.63.2.88.43.07.06.15.11.16.21-.24.37-.58.64-.96.85-.35.19-.72.31-1.12.3-.03,0-.06,0-.07.03Z"/>
        <path class="cls-23" d="M21,5.55c.24.06.45.19.62.36.27.28.25.61-.04.86-.22.19-.48.31-.75.4-.06.02-.12.04-.18.05-.24.08-.32.19-.32.44,0,.69,0,1.39,0,2.08,0,.06,0,.11,0,.17-.17.09-.34.08-.52,0-.06.11.03.25-.08.34-.05-.06-.02-.14-.02-.21,0-.77,0-1.54,0-2.32,0-.33-.07-.43-.39-.52-.21-.06-.41-.13-.6-.24-.17-.1-.34-.21-.44-.39.25-.43.66-.65,1.09-.83.52-.21,1.06-.29,1.62-.19.01,0,.03,0,.04-.02Z"/>
        <path class="cls-11" d="M21,5.55c-.06.07-.13.04-.2.04-.29-.01-.59,0-.87.06-.61.13-1.16.38-1.57.87-.03.03-.05.07-.1.08-.11-.23-.06-.43.09-.62.12-.15.28-.25.45-.33.64-.29,1.31-.34,1.99-.17.08.02.13.08.22.08Z"/>
        <path class="cls-12" d="M19.57,34.59s-.08-.06,0-.07c.13-.02.25-.02.38-.04.32-.04.6-.17.87-.32.2-.11.39-.25.55-.43.11-.12.22-.24.35-.34.14.19.1.38-.02.56-.13.2-.33.33-.55.43-.51.23-1.04.27-1.59.21Z"/>
        <path class="cls-2" d="M9.58,30.55c.08-.05.13.02.19.05.24.14.49.26.78.27.26.01.5-.02.72-.13.13-.06.24-.14.36-.22,0,.06.01.11.01.17,0,.29-.17.47-.46.52-.28.04-.54-.02-.79-.12-.31-.12-.58-.3-.81-.54Z"/>
        <path class="cls-24" d="M5.69,21.28c.08-.04.16,0,.23,0,.34.07.63-.04.91-.19.11-.06.2-.17.34-.16-.08.25-.21.48-.4.67-.28.28-.57.28-.84,0-.1-.1-.18-.2-.23-.33Z"/>
        <path class="cls-8" d="M10.22,8.99c.06.07-.02.09-.05.11-.27.26-.53.53-.76.84-.16.21-.31.43-.41.67-.05.11-.11.21-.19.34,0-.08-.02-.14-.02-.19.06-.35.23-.66.44-.94.26-.35.59-.63.99-.83Z"/>
        <path class="cls-20" d="M12.01,12.43c.19.06.36.16.54.24.15.07.31.11.46.17.07.03.14.02.2-.02.03.05.11.03.13.11-.11.12-.23.24-.35.36-.05.05-.09.06-.14,0-.09-.1-.19-.19-.28-.29-.19-.19-.38-.39-.56-.58Z"/>
        <path class="cls-19" d="M26.79,12.8c.15,0,.29,0,.44-.02.13-.02.26-.05.39.02-.19.17-.37.35-.58.54-.08-.08-.17-.19-.27-.29-.13-.13-.13-.12.01-.25Z"/>
        <path class="cls-4" d="M27.36,26.94c-.12.16-.23.33-.35.49-.13-.09-.29-.2-.32-.33-.04-.16.2-.21.27-.34.02-.04.06-.08.08-.12.12.12.22.21.31.3Z"/>
        <path class="cls-19" d="M19.71,10.26v-.42c.12.04.2.1.31.1.1,0,.19-.04.29,0,0,.43.04.34-.32.35-.09,0-.19.02-.28-.02Z"/>
        <path class="cls-20" d="M20.3,29.79c-.04.08-.05.16-.18.17-.11,0-.17.12-.24.19-.05.05-.07.13-.16.16-.04-.21,0-.41-.02-.61.17-.04.35,0,.53-.01.07,0,.08.04.07.1Z"/>
        <path class="cls-30" d="M29.72,19.73c.06.04.12.07.17.12.16.16.34.29.55.38.02,0,.04.04.05.06-.23,0-.46,0-.69.01-.07,0-.1-.03-.1-.1,0-.16,0-.31.01-.47Z"/>
        <path class="cls-5" d="M9.96,20.29s.09-.1.12-.15c.09-.11.07-.21-.06-.28-.12-.07-.25-.09-.39-.09-.07,0-.15.02-.21,0-.06-.02.02-.04.02-.07.24,0,.48,0,.73,0,.11,0,.14.04.13.14,0,.07,0,.14,0,.21q0,.28-.28.27s-.04,0-.06-.01Z"/>
        <path class="cls-28" d="M13.22,26.96c-.22.05-.45.11-.67.16-.01,0-.04-.02-.05-.03.12-.13.24-.25.36-.38.05-.05.09-.06.14,0,.07.08.15.17.22.25Z"/>
        <path class="cls-8" d="M29.25,8.79s.11.05,0,.08c-.13.04-.26.08-.39.12-.18.05-.34.14-.48.26.02-.28.19-.45.48-.47.13-.01.26,0,.38.02Z"/>
        <path class="cls-21" d="M34.32,18.74s-.06,0-.09-.01c-.16-.14-.32-.27-.49-.4-.03-.02-.06-.03-.09-.05-.09-.05.02-.05.02-.08.2,0,.34.11.46.25.08.09.16.19.19.31Z"/>
        <path class="cls-15" d="M30.91,24.36c-.01.1-.05.17-.11.27q0-.15.11-.27Z"/>
        <path class="cls-17" d="M24.61,9.24c-.12,0-.19-.03-.26-.09.11-.02.11-.02.26.09Z"/>
        <path class="cls-13" d="M15.69,30.9c-.14,0-.21-.03-.28-.11.12-.03.18.02.28.11Z"/>
        <path class="cls-16" d="M24.58,30.77q-.12.1-.24.12.08-.08.24-.12Z"/>
        <path class="cls-10" d="M30.9,15.66c-.08-.05-.12-.13-.13-.25.1.08.12.17.13.25Z"/>
        <path class="cls-6" d="M9.12,24.35c.07.07.1.14.11.24q-.11-.1-.11-.24Z"/>
        <path class="cls-14" d="M9.11,15.66c.01-.09.02-.17.12-.23-.02.11-.05.19-.12.23Z"/>
        <path class="cls-9" d="M15.64,9.13c-.05.07-.12.11-.23.1.07-.09.14-.11.23-.1Z"/>
        <path class="cls-26" d="M20.01,17.4c1.45,0,2.6,1.17,2.59,2.61,0,1.45-1.18,2.6-2.64,2.59-1.42,0-2.57-1.19-2.56-2.63,0-1.42,1.18-2.59,2.61-2.58Z"/>
        <path class="cls-26" d="M18.13,23.97c0,1.18-.92,2.11-2.08,2.11-1.15,0-2.08-.93-2.09-2.07,0-1.19.91-2.13,2.09-2.12,1.23,0,2.09,1.01,2.08,2.08Z"/>
        <path class="cls-26" d="M26.03,23.96c0,1.14-.93,2.09-2.07,2.09-1.16,0-2.1-.92-2.11-2.07,0-1.17.91-2.1,2.07-2.11,1.18,0,2.1.91,2.1,2.09Z"/>
        <path class="cls-26" d="M18.01,15.68c0,1.1-.89,1.98-1.99,1.97-1.08,0-1.95-.88-1.94-1.96,0-1.1.88-1.97,1.99-1.97,1.08,0,1.94.87,1.94,1.96Z"/>
        <path class="cls-26" d="M22.16,15.96c0-1.05.84-1.87,1.89-1.86,1.02,0,1.85.85,1.84,1.88,0,1.02-.86,1.86-1.89,1.86-1.02,0-1.85-.84-1.84-1.87Z"/>
        <path class="cls-26" d="M19.97,27.99c-.83,0-1.47-.67-1.46-1.5,0-.82.68-1.47,1.51-1.46.83,0,1.47.67,1.46,1.51-.01.83-.67,1.47-1.51,1.46Z"/>
        <path class="cls-26" d="M28.06,19.39c0,.82-.66,1.49-1.48,1.49-.82,0-1.49-.67-1.49-1.49,0-.82.66-1.48,1.49-1.48.83,0,1.48.64,1.48,1.48Z"/>
        <path class="cls-26" d="M14.91,19.54c.02.67-.55,1.46-1.49,1.46-.85,0-1.49-.67-1.48-1.51.01-.8.67-1.45,1.48-1.45.85,0,1.49.65,1.49,1.5Z"/>
        <path class="cls-26" d="M19.99,14.8c-.83-.01-1.46-.65-1.44-1.49.01-.81.67-1.45,1.48-1.44.8,0,1.45.67,1.44,1.48-.01.81-.67,1.46-1.47,1.45Z"/>
        <path class="cls-3" d="M18.16,20c-.03-.89.73-1.85,1.86-1.85,1,0,1.84.85,1.83,1.86,0,1.01-.84,1.83-1.86,1.83-1.06,0-1.87-.92-1.83-1.85Z"/>
        <path class="cls-25" d="M16.03,25.33c-.67.03-1.32-.59-1.32-1.33,0-.71.58-1.34,1.33-1.34.75,0,1.34.6,1.33,1.37-.01.8-.71,1.34-1.34,1.31Z"/>
        <path class="cls-18" d="M22.63,23.95c0-.75.59-1.34,1.34-1.33.73,0,1.32.6,1.32,1.34,0,.74-.64,1.35-1.34,1.33-.74-.02-1.31-.59-1.31-1.33Z"/>
        <path class="cls-22" d="M16.06,14.48c.66,0,1.19.54,1.19,1.21,0,.66-.55,1.2-1.23,1.2-.67,0-1.19-.53-1.18-1.21,0-.68.54-1.2,1.22-1.2Z"/>
        <path class="cls-29" d="M24.02,14.86c.63,0,1.1.49,1.1,1.12,0,.6-.51,1.08-1.12,1.09-.5,0-1.1-.44-1.09-1.12.01-.61.49-1.1,1.11-1.09Z"/>
        <path class="cls-18" d="M19.28,26.51c0-.42.31-.72.73-.73.34-.01.72.28.72.72,0,.4-.34.74-.74.73-.41-.01-.71-.31-.71-.72Z"/>
        <path class="cls-1" d="M25.85,19.38c0-.4.34-.72.75-.72.38,0,.7.33.7.72,0,.41-.33.74-.73.74-.41,0-.72-.32-.72-.74Z"/>
        <path class="cls-18" d="M13.42,20.24c-.4,0-.72-.32-.72-.72,0-.41.32-.73.74-.73.4,0,.72.33.71.73,0,.39-.33.72-.73.72Z"/>
        <path class="cls-29" d="M19.31,13.33c0-.4.32-.7.72-.7.39,0,.68.31.67.71,0,.39-.33.71-.72.7-.39-.01-.68-.32-.67-.72Z"/>
      </g>
    </g>
  </g>
</svg>