<?xml version="1.0" encoding="UTF-8"?>
<svg xmlns="http://www.w3.org/2000/svg" version="1.1" viewBox="0 0 40 40">
  <defs>
    <style>
      .cls-1 {
        fill: #fefdfc;
      }

      .cls-2 {
        fill: #fafbfa;
      }

      .cls-3 {
        fill: #f9f9f8;
      }

      .cls-4 {
        fill: #fefdfe;
      }

      .cls-5 {
        fill: #f9f8f8;
      }

      .cls-6 {
        fill: #f6f9f7;
      }

      .cls-7 {
        fill: #89878d;
      }

      .cls-8 {
        fill: #fbfcfb;
      }

      .cls-9 {
        fill: #161616;
      }
    </style>
  </defs>
  <!-- Generator: Adobe Illustrator 28.6.0, SVG Export Plug-In . SVG Version: 1.2.0 Build 709)  -->
  <g>
    <g id="Warstwa_1">
      <g>
        <path class="cls-7" d="M37.56,15.9s-.04.07-.07.11c-.06-.05-.05-.11-.05-.18.03-.25.03-.51,0-.76,0-.06,0-.12.04-.16.05.03.02.11.06.14v.84Z"/>
        <path class="cls-9" d="M37.5,14.92c0,.23.03.45.03.68,0,.14-.07.27-.03.41-.03.36-.14.71-.25,1.05-.31.91-.84,1.68-1.56,2.31-.31.27-.63.51-.98.72-.07.04-.1.09-.1.17-.02.64-.28,1.18-.66,1.67-.36.47-.8.86-1.32,1.16-.52.31-1.09.49-1.69.56-.77.09-1.52,0-2.25-.24-.42-.14-.8-.36-1.1-.7-.4-.46-.53-.98-.4-1.57.1-.45.31-.85.58-1.22.42-.58.95-1.04,1.56-1.4.55-.33,1.16-.53,1.81-.6.47-.05.93-.03,1.39.07.43.09.82.25,1.18.49.06.04.12.06.19.05.16-.01.33-.01.47-.1.02-.01.04-.02.07-.02.17-.01.29-.12.39-.24.54-.61.9-1.29.98-2.11.06-.56.02-1.12-.12-1.66-.14-.54-.39-1.03-.74-1.47-.21-.26-.44-.49-.71-.69-.5-.36-1.07-.57-1.68-.7-.56-.11-1.12-.09-1.69-.1-1.41-.03-2.82-.04-4.22-.03-.19,0-.37,0-.56,0-.19,0-.19,0-.12.16.28.66.42,1.35.45,2.07.03.66-.01,1.32-.17,1.96-.22.9-.66,1.68-1.35,2.32-.14.13-.27.27-.37.44-.25.41-.35.87-.34,1.35,0,.07,0,.14.03.21.12.31.13.64.16.96.04.53.07,1.06.04,1.59-.03.66-.13,1.31-.39,1.92-.25.58-.62,1.06-1.14,1.42-.62.43-1.31.62-2.05.63-.22,0-.2-.03-.2.19,0,1.88,0,3.76,0,5.64,0,.11-.03.21-.12.27-.15.1-.35,0-.37-.17,0-.04,0-.08,0-.12,0-1.93,0-3.86,0-5.8,0-.06.04-.14-.05-.17-.09-.03-.18-.02-.27.01-.02,0-.02.04-.02.06,0,.04,0,.08,0,.12,0,1.9,0,3.81,0,5.71,0,.06,0,.12,0,.17-.02.12-.12.21-.24.21-.13,0-.24-.09-.25-.22,0-.05,0-.1,0-.16,0-1.87,0-3.74,0-5.6,0-.02,0-.05,0-.07,0-.07-.02-.09-.09-.09-.19,0-.38,0-.57-.03-.8-.11-1.49-.43-2.05-1.01-.41-.42-.66-.93-.83-1.49-.2-.65-.24-1.33-.23-2,0-.49.03-.98.09-1.46.01-.12.03-.24.07-.36.09-.22.09-.45.07-.69-.06-.53-.24-1.02-.64-1.4-.16-.15-.31-.31-.46-.48-.32-.38-.56-.8-.74-1.25-.2-.49-.32-.99-.39-1.52-.13-1.01-.07-2.01.29-2.98.02-.06.04-.13.06-.21-.1-.03-.19-.02-.28-.02-.76,0-1.51.01-2.27.02-1.04,0-2.08.01-3.13.01-.77,0-1.49.16-2.16.52-.94.5-1.61,1.25-1.92,2.28-.27.91-.2,1.79.16,2.66.18.45.48.82.81,1.17.02.02.04.05.07.05.24.01.45.15.68.21.07.02.12.02.18-.03.43-.33.93-.5,1.46-.57.57-.08,1.14-.06,1.7.08.73.18,1.38.52,1.95,1.03.29.26.57.54.8.85.3.4.54.84.63,1.34.1.57-.05,1.08-.44,1.52-.42.47-.98.7-1.58.82-.85.18-1.7.17-2.53-.09-.89-.29-1.62-.8-2.19-1.54-.3-.38-.52-.8-.62-1.27-.03-.13-.06-.25-.05-.38,0-.07-.03-.1-.07-.15-.14-.15-.31-.25-.47-.36-.1-.07-.18-.15-.21-.27-.02-.07-.05-.11-.1-.15-.26-.24-.49-.5-.71-.77-.3-.37-.54-.77-.73-1.2-.22-.51-.36-1.04-.39-1.6-.05-.82.07-1.6.41-2.35.29-.64.69-1.2,1.2-1.68.85-.78,1.84-1.26,2.97-1.49.34-.07.69-.09,1.04-.09,1.97,0,3.93,0,5.9-.01.22,0,.43,0,.65,0,.06,0,.1-.01.14-.07.35-.48.78-.89,1.26-1.24.56-.41,1.17-.73,1.83-.96.8-.28,1.63-.37,2.47-.33.79.04,1.53.23,2.25.56.91.41,1.66,1.02,2.31,1.76,0,0,0,0,.01.01.13.28.37.3.64.3,1.22,0,2.43,0,3.65.02.95.01,1.91,0,2.86.05.67.03,1.33.15,1.96.39.52.19,1,.46,1.45.79.46.34.84.75,1.15,1.23.37.56.66,1.16.82,1.82.04.17.08.35.1.53Z"/>
        <path class="cls-4" d="M16,21.93c.02-.53.04-1.07.13-1.6,0-.05.02-.09.03-.14.24-1,0-1.88-.72-2.61-.48-.48-.86-1.02-1.1-1.66-.16-.42-.27-.86-.32-1.32-.06-.6-.09-1.2.02-1.79.09-.5.24-.98.45-1.44.23-.5.52-.97.89-1.39.48-.54,1.02-.99,1.66-1.34.61-.34,1.26-.56,1.94-.69.42-.08.84-.09,1.27-.08.58,0,1.14.13,1.69.3.37.12.73.28,1.07.46.54.29,1.02.65,1.44,1.09.75.79,1.26,1.72,1.48,2.8.13.63.16,1.26.07,1.89-.03.2-.04.39-.06.59-.07.51-.26.97-.51,1.42-.23.4-.51.77-.85,1.08-.53.48-.79,1.08-.87,1.78-.04.31-.02.61.07.91.06.21.07.42.09.64.07.82.11,1.65-.05,2.47-.08.43-.22.83-.44,1.21-.24.4-.56.71-.96.94-.47.27-.98.4-1.51.45-.13.01-.26,0-.38-.02-.21-.04-.32-.17-.33-.39,0-.05,0-.1,0-.16,0-.05.01-.09.06-.12.21-.12.3-.34.37-.55.11-.35.14-.71.15-1.07.01-.61-.03-1.22-.06-1.83-.05-1.16-.08-2.32.02-3.47.08-.85.22-1.68.51-2.49.14-.38.31-.74.56-1.06.15-.19.34-.33.53-.47.47-.34.92-.69,1.34-1.09.19-.18.36-.37.5-.58.2-.3.3-.63.18-.99-.06-.18-.18-.33-.31-.46-.26-.24-.56-.41-.89-.55-1.13-.46-2.3-.64-3.51-.61-.81.02-1.6.14-2.37.37-.55.17-1.07.39-1.51.76-.12.1-.21.23-.33.33-.05.04-.09.11-.07.19,0,.03,0,.06,0,.09-.04.22,0,.43.1.62.14.28.34.52.56.73.44.43.93.81,1.43,1.17.4.28.69.64.91,1.06.36.7.54,1.46.65,2.23.21,1.39.2,2.79.12,4.2-.04.67-.08,1.34-.05,2.01.02.3.05.59.15.87.08.23.18.44.4.58.02.01.05.03.05.05,0,.14.04.28-.02.41-.05.11-.16.17-.29.2-.29.05-.57,0-.85-.05-.54-.11-1.03-.33-1.45-.69-.24-.2-.42-.45-.57-.72-.3-.54-.42-1.13-.48-1.73-.02-.25-.04-.51-.03-.77Z"/>
        <path class="cls-4" d="M30.32,23.19c-.57-.01-1.08-.08-1.58-.28-.23-.09-.46-.21-.65-.37-.4-.35-.53-.79-.44-1.3.06-.32.21-.6.38-.87.24-.37.54-.69.87-.97.47-.39.99-.69,1.58-.86.73-.2,1.46-.22,2.18,0,.47.13.87.37,1.16.78.25.35.31.75.25,1.16-.06.4-.25.76-.49,1.09-.28.39-.63.7-1.02.96-.47.31-.97.51-1.53.6-.26.04-.52.05-.74.06Z"/>
        <path class="cls-4" d="M9.52,23.09c-.65,0-1.2-.09-1.72-.31-.58-.25-1.09-.6-1.5-1.08-.34-.4-.6-.84-.67-1.37-.09-.68.17-1.21.73-1.59.44-.3.94-.42,1.46-.46.79-.05,1.54.12,2.23.51.78.44,1.41,1.04,1.82,1.85.11.22.18.46.2.7.04.52-.18.91-.59,1.21-.36.26-.78.39-1.21.46-.27.05-.55.09-.75.08Z"/>
        <path class="cls-1" d="M23.98,11.98c.01.13-.03.23-.1.32-.14.2-.3.38-.49.55-.49.43-1.02.81-1.54,1.2-.31.22-.53.52-.71.84-.42.75-.62,1.57-.76,2.41-.21,1.27-.24,2.55-.19,3.83.03.67.08,1.34.08,2.01,0,.38-.02.77-.1,1.14-.03.16-.08.32-.17.45-.05.07-.08.07-.13,0-.04-.05-.06-.11-.09-.17-.13-.31-.15-.64-.16-.98-.02-.59.02-1.17.05-1.76.07-1.3.08-2.59-.06-3.89-.08-.75-.23-1.48-.48-2.19-.24-.66-.58-1.26-1.13-1.71-.3-.24-.62-.47-.93-.71-.37-.29-.72-.59-1-.97-.06-.08-.13-.16-.16-.27.05-.03.1,0,.13.02.56.23,1.13.23,1.71.07.9-.24,1.83-.34,2.76-.29.5.03.99.11,1.48.22.42.1.83.15,1.26.09.25-.04.49-.12.73-.26Z"/>
        <path class="cls-6" d="M35.27,19.11c-.08-.16-.16-.31-.24-.47.18-.22.38-.41.54-.64.28-.4.48-.83.6-1.31.23-.96.16-1.91-.21-2.82-.24-.59-.61-1.09-1.1-1.5-.78-.65-1.67-1.02-2.67-1.14-.34-.04-.68-.04-1.03-.05-1.62-.02-3.23-.03-4.85-.02-.14,0-.28,0-.42,0-.08,0-.12-.02-.16-.11-.09-.19-.21-.37-.32-.56-.03-.04-.06-.09-.08-.12.03-.05.07-.03.1-.03,1.27,0,2.54.02,3.8.03.89,0,1.78.02,2.67.04.58.01,1.16.12,1.71.3.6.19,1.14.49,1.63.89.61.5,1.09,1.11,1.39,1.84.27.66.46,1.33.45,2.05,0,.43-.08.85-.21,1.27-.29.92-.82,1.69-1.53,2.33-.01.01-.03.02-.06.04Z"/>
        <path class="cls-2" d="M14.37,10.54c-.07.13-.14.24-.2.37-.04.1-.11.13-.21.13-.38,0-.76,0-1.13,0-1.48,0-2.96,0-4.43,0-.52,0-1.04.04-1.54.18-.53.15-1.03.35-1.48.67-.28.2-.55.4-.78.66-.34.38-.62.79-.8,1.27-.17.44-.29.88-.31,1.35-.03.65.06,1.27.31,1.88.12.29.26.56.43.82.11.16.24.32.37.46.14.15.14.17.06.35-.05.11-.11.22-.17.34-.05-.04-.09-.08-.13-.12-.16-.2-.33-.39-.48-.59-.23-.32-.43-.64-.59-1.01-.29-.69-.42-1.4-.39-2.14.02-.45.13-.87.27-1.29.09-.26.21-.5.35-.74.2-.33.43-.63.7-.91.4-.42.86-.77,1.38-1.03.4-.2.81-.37,1.25-.47.44-.1.89-.16,1.35-.16,2.05,0,4.1,0,6.14-.03.01,0,.02,0,.05,0Z"/>
        <path class="cls-8" d="M23.9,11.66c-.19.17-.41.25-.65.29-.39.07-.78,0-1.15-.12-.49-.14-1-.22-1.5-.27-.47-.05-.94-.05-1.41,0-.56.07-1.12.15-1.66.29-.47.12-.93.06-1.38-.14-.06-.03-.12-.05-.17-.11.13-.14.29-.25.45-.34.62-.34,1.28-.53,1.97-.65.41-.07.83-.13,1.25-.14,1.06-.03,2.1.11,3.1.47.36.13.72.27,1.01.53.05.05.11.09.14.16Z"/>
        <path class="cls-5" d="M5.21,19.51c-.1-.05-.19-.12-.28-.18-.03-.03-.06-.05-.03-.1.07-.13.13-.27.2-.4.05-.1.08-.11.2-.07.08.03.15.06.22.09-.12.22-.24.42-.31.66Z"/>
        <path class="cls-3" d="M34.5,19.58c-.08-.2-.16-.41-.29-.59.1-.03.19-.06.27-.09.07-.03.11,0,.15.05.08.11.14.23.19.35.05.12.03.18-.09.24-.02,0-.04.02-.07.02-.05.01-.1.02-.16.03Z"/>
      </g>
    </g>
  </g>
</svg>