<?xml version="1.0" encoding="UTF-8"?>
<svg xmlns="http://www.w3.org/2000/svg" version="1.1" viewBox="0 0 40 40">
  <defs>
    <style>
      .cls-1 {
        fill: #2e3138;
      }

      .cls-2 {
        fill: #fbfafa;
      }

      .cls-3 {
        fill: #ef8ea9;
      }

      .cls-4 {
        fill: #618372;
      }

      .cls-5 {
        fill: #f4b6cc;
      }

      .cls-6 {
        fill: #fbfbfb;
      }

      .cls-7 {
        fill: #7fc195;
      }

      .cls-8 {
        fill: #b1d8b8;
      }

      .cls-9 {
        fill: #fafbfa;
      }

      .cls-10 {
        fill: #454752;
      }

      .cls-11 {
        fill: #faf9f9;
      }

      .cls-12 {
        fill: #4b615e;
      }

      .cls-13 {
        fill: #b2d8b9;
      }

      .cls-14 {
        fill: #ef8ca7;
      }

      .cls-15 {
        fill: #20222a;
      }

      .cls-16 {
        fill: #83c398;
      }

      .cls-17 {
        fill: #f3b8cb;
      }

      .cls-18 {
        fill: #343035;
      }

      .cls-19 {
        fill: #80c197;
      }

      .cls-20 {
        fill: #4c5e5c;
      }

      .cls-21 {
        fill: #7ec194;
      }

      .cls-22 {
        fill: #2c2c34;
      }
    </style>
  </defs>
  <!-- Generator: Adobe Illustrator 28.6.0, SVG Export Plug-In . SVG Version: 1.2.0 Build 709)  -->
  <g>
    <g id="Warstwa_1">
      <g>
        <path class="cls-7" d="M17.16,28.03c.06-.04.13-.05.2-.04.29.01.57-.02.86-.04.13.27.17.57.24.87.1.48.1.97.12,1.46-.05,0-.06-.03-.07-.06-.36-.75-.79-1.45-1.3-2.11-.02-.02-.03-.05-.04-.07Z"/>
        <path class="cls-16" d="M21.78,28.06s.01,0,.02.01c.13-.17.31-.15.48-.13.14.02.29.04.43.03.07,0,.12.03.16.08-.17.25-.34.49-.51.74-.29.42-.55.86-.77,1.32,0,.02-.01.04-.05.04-.01-.26-.01-.52,0-.78.03-.38.09-.76.17-1.14.01-.06.02-.13.07-.17Z"/>
        <g>
          <path class="cls-10" d="M30.27,21.94c-.07.11-.15.22-.25.3-.28.26-.43.6-.6.92-.29.57-.41,1.2-.62,1.8-.27.8-.64,1.55-1.16,2.22-.03.04-.09.07-.07.14-.24.35-.55.64-.86.92-.61.56-1.3,1-2.02,1.4-.72.4-1.46.78-2.16,1.22-.51.32-.99.69-1.37,1.17-.38.49-.63,1.04-.74,1.65-.03.16-.03.34-.02.5,0,.15-.16.31-.29.35-.14.04-.29-.02-.39-.15-.07-.09-.05-.19-.05-.28,0-.69-.22-1.31-.63-1.86-.26-.35-.58-.65-.92-.92-.56-.44-1.19-.77-1.81-1.11-.7-.38-1.4-.75-2.06-1.19-1.61-1.08-2.71-2.54-3.25-4.41-.06-.2-.12-.4-.18-.6-.18-.64-.48-1.21-.87-1.74-.09-.12-.18-.25-.27-.37-.1-.13-.13-.27-.06-.41.07-.15.2-.23.37-.24.19-.01.38.02.57.05,1.44.22,2.82.62,4.12,1.29,1.19.61,2.23,1.41,3.05,2.48.7.91,1.2,1.92,1.39,3.07.16.96.16,1.91-.13,2.85-.02.08-.01.13.04.19.21.23.42.45.65.7.06-.26,0-.52.05-.77.06.2,0,.41.03.58,0-3.78-.01-7.61.01-11.43,0,0,0,0,0,0,0,2.05,0,4.1,0,6.15,0,.95,0,1.91,0,2.86,0,.07.03.15-.02.22-.03-.07-.02-.14-.02-.21,0-3.02,0-6.04,0-9.05,0-.01,0-.03,0-.04,0-.18,0-.18-.18-.18-.94,0-1.86-.14-2.74-.48-1.61-.62-2.73-1.76-3.45-3.3-.41-.87-.65-1.79-.8-2.74-.26-1.6-.26-3.21-.22-4.83.01-.41.14-.79.31-1.15.11-.24.31-.33.59-.3,1,.12,1.92.46,2.75,1.02.26.18.52.35.78.54.08-.03.1-.1.13-.16.51-.95,1.14-1.82,1.98-2.51.25-.21.51-.4.78-.57.22-.14.44-.14.68-.02.48.26.91.6,1.31.99.65.63,1.16,1.37,1.55,2.18.01.03.03.05.04.08.08,0,.13-.07.19-.11.35-.27.72-.51,1.1-.73.57-.32,1.18-.5,1.82-.63.14-.03.29-.05.44-.07.27-.04.46.05.59.3.15.3.25.61.3.94.03.21.04.42.05.63.01.92.02,1.84-.05,2.76-.03.48-.09.95-.15,1.42-.09.76-.27,1.5-.52,2.23-.39,1.12-.97,2.11-1.86,2.91-.83.74-1.79,1.19-2.86,1.44-.03,0-.06,0-.08,0-.25-.01-.48.06-.73.09-.31.04-.62.03-.92.05-.12,0-.16.06-.16.17,0,.06,0,.11,0,.17,0,3.75,0,7.5,0,11.24,0,.1-.02.2.04.29.05.04.06-.01.07-.03.15-.21.31-.41.5-.6.09-.09.1-.18.07-.3-.28-1.13-.32-2.26-.05-3.39.2-.83.6-1.57,1.1-2.25.59-.81,1.3-1.48,2.14-2.03.02-.01.04-.02.05-.03.2-.05.34-.19.51-.29,1.26-.72,2.61-1.17,4.03-1.47.36-.07.71-.14,1.08-.15.36,0,.51.23.37.57,0,.02-.01.04,0,.06Z"/>
          <path class="cls-22" d="M20.42,31.85s-.08-.03-.08-.08c0-.06,0-.11,0-.17,0-3.78,0-7.55,0-11.33,0-.06,0-.11,0-.17.01-.07.04-.13.13-.14.12-.02.25-.05.37-.04.38.02.75-.05,1.12-.12.07-.01.15-.04.22.03,0,0-.02,0-.02,0h-.02s-.09,0-.14.03c-.04,0-.07,0-.11.01-.06.03-.13,0-.19.03-.04,0-.07,0-.11.01-.06.03-.13,0-.18.03-.26.03-.53.05-.8.05-.21,0-.21,0-.21.2,0,.27,0,.55,0,.82,0,3.25,0,6.51,0,9.76,0,.35.02.7,0,1.05Z"/>
          <path class="cls-18" d="M30.27,21.94c-.07-.06,0-.12.01-.17.06-.23-.06-.4-.3-.42-.32-.02-.63.03-.93.09-.74.15-1.47.33-2.18.58-.7.24-1.38.54-2.02.92-.14.08-.28.16-.41.25-.04.03-.09.08-.15.02.5-.36,1.05-.64,1.62-.89,1.12-.49,2.29-.81,3.5-1,.17-.03.35-.04.52-.05.19-.02.33.07.41.23.09.16.05.31-.07.44Z"/>
          <path class="cls-15" d="M19.74,29.5c.03-.09.01-.18.01-.27,0-2.97,0-5.94,0-8.9,0-.09,0-.18.03-.27v11.86c-.05-.27,0-.53-.04-.8,0-.54,0-1.08,0-1.62Z"/>
          <path class="cls-1" d="M27.58,27.34c-.06-.05-.01-.08.01-.12.14-.21.29-.41.43-.62.31-.49.54-1.03.73-1.57.14-.39.25-.79.37-1.18.17-.57.45-1.08.8-1.56.02-.03.04-.1.11-.04-.41.57-.73,1.18-.91,1.86-.08.3-.18.6-.28.9-.29.85-.69,1.64-1.27,2.33Z"/>
          <path class="cls-10" d="M21.72,19.92c.05-.06.12-.04.19-.03-.06.04-.12.04-.19.03Z"/>
          <path class="cls-10" d="M21.43,19.96c.05-.05.12-.04.18-.03-.06.04-.12.04-.18.03Z"/>
          <path class="cls-10" d="M22.02,19.88s.09-.04.14-.03c-.04.03-.09.04-.14.03Z"/>
          <path class="cls-5" d="M17.98,17.23c-.05-.07-.11-.13-.13-.21-.44-.87-.61-1.82-.73-2.77-.15-1.22.05-2.4.42-3.56.46-1.44,1.22-2.7,2.25-3.8.14-.15.21-.31.17-.51-.02-.08-.03-.17.08-.21.73.38,1.29.95,1.78,1.6.2.28.39.56.54.87.25.67.44,1.36.59,2.06.14.67.14,1.35.09,2.03-.04.53-.15,1.05-.32,1.56-.24.75-.64,1.4-1.19,1.96-.49.49-1.03.91-1.68,1.16-.48.18-.97.22-1.46.05-.15-.05-.27-.14-.4-.23Z"/>
          <path class="cls-5" d="M13.39,7.95c.29,0,.56.08.84.17.75.24,1.41.65,2.02,1.14.02.08,0,.15-.03.23-.19.62-.24,1.26-.29,1.91-.08,1.11-.01,2.23-.05,3.34-.02.59-.07,1.18-.25,1.74-.11.34-.28.64-.56.87-.13,0-.15-.11-.19-.19-.51-1.16-.86-2.37-1.1-3.62-.16-.86-.24-1.72-.33-2.59-.03-.25-.03-.5-.05-.76-.03-.64-.04-1.29-.09-1.93,0-.11-.03-.23.06-.32Z"/>
          <path class="cls-14" d="M26.4,7.97s.08,0,.12-.02c.3-.07.25-.03.33.2.08.22.11.45.12.68.04.89.04,1.78,0,2.67-.06,1.2-.22,2.39-.59,3.54-.35,1.09-.88,2.08-1.75,2.85-.87.77-1.88,1.2-3.03,1.35-.36.05-.71.06-1.07.07-.1,0-.15-.06-.12-.14.02-.05.06-.05.1-.06.63-.17,1.18-.49,1.62-.97.29-.32.53-.67.74-1.04.67-1.2,1.06-2.49,1.17-3.85.1-1.25-.07-2.46-.52-3.64-.06-.16-.06-.16.11-.28.13-.05.16.05.2.13.1.21.17.43.24.65.28.96.42,1.93.39,2.93-.03,1.05-.19,2.08-.63,3.05-.06.13-.12.27-.12.42,0,.26.17.36.39.23.24-.14.41-.36.55-.6.36-.6.6-1.25.8-1.92.4-1.32.61-2.68.74-4.05.06-.67.07-1.34.12-2.02,0-.08,0-.16.06-.21Z"/>
          <path class="cls-8" d="M11.88,25.02c-.08-.16-.12-.34-.18-.51-.14-.43-.24-.87-.42-1.29-.08-.2-.17-.39-.26-.59.07-.13.19-.1.29-.08.56.09,1.1.27,1.63.47.98.36,1.91.82,2.74,1.46.99.75,1.79,1.67,2.42,2.74.01.02.03.03.05.04.03.02.03.06.04.09,0,.03-.02.05-.05.06-.34.04-.67.08-1.01.03-.31-.37-.63-.74-.98-1.07-.08-.07-.16-.14-.24-.21-.09-.02-.16-.08-.23-.14-.35-.28-.73-.54-1.1-.79-.19-.13-.39-.25-.6-.33.13.16.3.28.44.44.31.27.6.56.87.87.06.07.13.12.16.22.27.32.55.63.82.95.03.03.05.07.07.1,0,.08-.07.05-.11.05-1.01.09-1.88-.26-2.69-.85-.58-.42-1.05-.92-1.45-1.51-.05-.08-.1-.15-.21-.15Z"/>
          <path class="cls-13" d="M23.61,26.62c-.28.26-.51.56-.76.84-.18-.01-.36-.02-.54-.04-.17-.03-.33-.04-.48.08-.03.02-.08.05-.08-.03.01-.09.03-.18.09-.25.08-.04.15-.11.2-.18.37-.54.84-.99,1.3-1.46,1.08-1.09,2.34-1.92,3.76-2.5.54-.22,1.08-.43,1.65-.55.08-.02.16-.06.24,0-.32.56-.49,1.19-.67,1.8-.05.17-.1.35-.18.51-.32.47-.67.91-1.1,1.29-.49.43-.99.84-1.58,1.13-.53.26-1.09.27-1.66.24-.05,0-.12,0-.12-.09.15-.22.35-.41.52-.63.1-.2.27-.36.42-.52.36-.39.76-.73,1.13-1.1.07-.07.15-.13.18-.26-.2.09-.36.2-.52.3-.58.38-1.16.77-1.64,1.28-.05.05-.11.08-.17.11Z"/>
          <path class="cls-17" d="M26.4,7.97c.01.5-.04.99-.06,1.49-.01.36-.06.72-.1,1.08-.03.27-.06.54-.09.81-.06.46-.13.92-.23,1.38-.15.72-.33,1.43-.58,2.12-.18.5-.39.99-.68,1.44-.13.21-.31.4-.52.54-.11.07-.23.09-.34.04-.12-.06-.15-.18-.15-.3,0-.16.05-.31.12-.44.28-.61.44-1.25.55-1.91.03-.21.06-.43.05-.65,0-.22.04-.44.04-.67,0-.83-.09-1.64-.31-2.44-.08-.3-.16-.61-.29-.9-.04-.09-.05-.2-.17-.22.14-.16.32-.26.49-.38.66-.47,1.38-.82,2.18-.98.03,0,.05,0,.08,0Z"/>
          <path class="cls-14" d="M17.98,17.23c.06,0,.1.02.15.05.2.12.41.18.65.21.53.06,1-.08,1.46-.33.4-.22.75-.5,1.09-.81.42-.39.77-.83,1.03-1.33.23-.46.39-.96.5-1.47.08-.42.1-.84.14-1.27.03-.32-.01-.63-.02-.94-.01-.37-.1-.74-.2-1.11-.09-.33-.17-.66-.26-.99-.03-.11-.08-.22-.12-.33-.03-.09-.05-.18-.04-.27.23.33.38.7.52,1.07.46,1.22.61,2.49.47,3.78-.14,1.31-.56,2.54-1.27,3.66-.28.44-.63.82-1.11,1.06-.81.41-1.73.3-2.41-.31-.23-.2-.44-.41-.58-.69Z"/>
          <path class="cls-3" d="M15.06,17.36c.01-.13.13-.18.2-.26.22-.27.32-.59.39-.92.08-.32.11-.64.14-.97.07-.9.02-1.79.03-2.69,0-.51.04-1.02.08-1.53.03-.47.1-.93.22-1.38.03-.12.06-.23.13-.33.26.18.26.18.16.47-.21.6-.33,1.22-.41,1.84-.06.45-.07.91-.04,1.37.05,1,.26,1.97.59,2.92.28.8.66,1.55,1.23,2.19.35.4.75.72,1.24.91.18.07.36.12.55.14.08.01.16,0,.15.12,0,.13-.11.09-.17.09-.5-.01-.99-.04-1.49-.13-.83-.16-1.59-.5-2.28-.99-.2-.14-.38-.31-.54-.5-.04-.13-.21-.19-.17-.35Z"/>
          <path class="cls-21" d="M11.88,25.02s.03-.06.06-.1c.07.04.11.1.15.16.27.38.54.75.88,1.07.24.23.52.42.79.62.32.22.65.4,1.02.54.27.1.55.16.84.17.24,0,.49,0,.73,0,.64.81,1.23,1.65,1.64,2.61.05.13.11.26.16.38-.03.04-.05,0-.07,0-.62-.39-1.27-.74-1.91-1.1-.72-.4-1.44-.81-2.09-1.33-.94-.77-1.67-1.7-2.13-2.83-.02-.06-.04-.12-.06-.18Z"/>
          <path class="cls-19" d="M23.7,27.42s.03.03.05.03c.31,0,.63.02.94-.02.62-.07,1.13-.39,1.61-.74.44-.32.83-.68,1.2-1.08.19-.2.33-.43.5-.65.04-.06.08-.12.16-.12-.15.52-.4.99-.68,1.44-.54.88-1.29,1.57-2.13,2.15-.74.52-1.54.94-2.34,1.37-.38.2-.75.43-1.14.69.1-.3.21-.56.34-.82.41-.81.9-1.57,1.48-2.26Z"/>
          <path class="cls-6" d="M20.04,6.16c-.06.06-.05.13-.03.2.05.22-.01.39-.17.55-.45.48-.85,1-1.21,1.55-.44.69-.78,1.42-1.03,2.2-.16.51-.31,1.03-.39,1.56-.07.49-.13.99-.09,1.48.06.8.17,1.59.4,2.37.09.29.19.57.3.85.01.03.04.06,0,.09-.26-.37-.44-.78-.6-1.19-.39-1.04-.59-2.12-.61-3.23-.02-1.64.44-3.13,1.35-4.49.5-.74,1.1-1.38,1.85-1.87.06-.04.11-.12.2-.07Z"/>
          <path class="cls-2" d="M15.06,17.36c.04.12.16.21.17.35-.59-.55-1.02-1.21-1.34-1.94-.35-.79-.54-1.62-.67-2.47-.24-1.55-.25-3.1-.18-4.66,0-.21.06-.42.13-.61.04-.11.11-.14.21-.07,0,.19-.02.38.03.56,0,.03,0,.06,0,.08-.02.5.03.99.05,1.49.02.47.05.95.1,1.42.03.32.07.64.1.96.02.23.05.46.09.68.1.53.19,1.06.33,1.58.2.73.42,1.45.72,2.14.07.17.11.35.24.49Z"/>
          <path class="cls-9" d="M29.01,22.54c-.56.08-1.09.26-1.61.47-.49.2-.96.43-1.43.66-.62.32-1.19.71-1.72,1.16-.42.35-.83.72-1.19,1.12-.26.29-.55.56-.8.87-.1.13-.16.28-.29.38-.04.03-.07.07-.12.01.07-.27.2-.52.33-.77.65-1.2,1.6-2.12,2.75-2.84,1.14-.71,2.38-1.16,3.68-1.45.25-.06.51-.11.78-.16-.13.19-.26.36-.38.54Z"/>
          <path class="cls-11" d="M18.15,27.24c-.05.05-.07,0-.09-.03-.19-.35-.43-.65-.68-.96-.75-.95-1.62-1.76-2.68-2.36-.73-.42-1.51-.74-2.31-1.01-.37-.13-.75-.22-1.14-.29-.09-.02-.17-.01-.24.04-.13-.21-.26-.41-.4-.63.15,0,.27.05.39.08,1.08.22,2.12.52,3.11,1.01,1.2.59,2.24,1.36,3.05,2.42.41.53.74,1.11.97,1.74Z"/>
          <path class="cls-12" d="M23.61,26.62c.24-.29.52-.52.81-.75.45-.35.92-.66,1.41-.95.04-.02.07-.04.11-.06.03-.01.07-.02.09.02.02.03,0,.06-.02.08-.05.06-.11.13-.17.19-.37.37-.75.74-1.12,1.11-.18.18-.35.36-.52.54-.11-.06-.22-.09-.35-.1-.09,0-.17-.05-.25-.08Z"/>
          <path class="cls-20" d="M14.6,25.18c.47.29.91.6,1.31.97-.05.03-.12.04-.18.06-.13.03-.24.08-.3.21-.14-.14-.27-.28-.41-.42-.21-.21-.43-.43-.64-.64.04-.1.17-.08.21-.18Z"/>
          <path class="cls-4" d="M14.6,25.18q-.02.16-.21.18c-.19-.15-.37-.33-.53-.52.29.03.52.18.74.34Z"/>
        </g>
      </g>
    </g>
  </g>
</svg>